<?xml version="1.0" encoding="UTF-8" standalone="no"?>
<!-- Created with Inkscape (http://www.inkscape.org/) -->

<svg
   xmlns:dc="http://purl.org/dc/elements/1.1/"
   xmlns:cc="http://creativecommons.org/ns#"
   xmlns:rdf="http://www.w3.org/1999/02/22-rdf-syntax-ns#"
   xmlns:svg="http://www.w3.org/2000/svg"
   xmlns="http://www.w3.org/2000/svg"
   xmlns:sodipodi="http://sodipodi.sourceforge.net/DTD/sodipodi-0.dtd"
   xmlns:inkscape="http://www.inkscape.org/namespaces/inkscape"
   id="svg2"
   version="1.1"
   inkscape:version="0.48.5 r10040"
   width="1260"
   height="765"
   xml:space="preserve"
   sodipodi:docname="logo_89grad_gmbh_cmyk_erweitert.svg"><metadata
     id="metadata8"><rdf:RDF><cc:Work
         rdf:about=""><dc:format>image/svg+xml</dc:format><dc:type
           rdf:resource="http://purl.org/dc/dcmitype/StillImage" /><dc:title></dc:title></cc:Work></rdf:RDF></metadata><defs
     id="defs6"><clipPath
       clipPathUnits="userSpaceOnUse"
       id="clipPath16"><path
         d="M 0,612 1008,612 1008,0 0,0 0,612 z"
         id="path18" /></clipPath></defs><sodipodi:namedview
     pagecolor="#ffffff"
     bordercolor="#666666"
     borderopacity="1"
     objecttolerance="10"
     gridtolerance="10"
     guidetolerance="10"
     inkscape:pageopacity="0"
     inkscape:pageshadow="2"
     inkscape:window-width="889"
     inkscape:window-height="658"
     id="namedview4"
     showgrid="false"
     inkscape:zoom="0.30849673"
     inkscape:cx="630"
     inkscape:cy="382.5"
     inkscape:window-x="0"
     inkscape:window-y="0"
     inkscape:window-maximized="0"
     inkscape:current-layer="g10" /><g
     id="g10"
     inkscape:groupmode="layer"
     inkscape:label="logo_89grad_gmbh_cmyk_erweitert"
     transform="matrix(1.25,0,0,-1.25,0,765)"><g
       id="g20"
       transform="translate(546.7061,306.1768)"><path
         d="m 0,0 c 2.021,0 3.767,0.729 5.231,2.19 1.455,1.458 2.186,3.204 2.186,5.227 l 0,64.293 c 0,2.028 -0.731,3.773 -2.186,5.231 -1.464,1.455 -3.21,2.19 -5.231,2.19 l -66.194,0 c -2.027,0 -3.773,-0.735 -5.227,-2.19 -1.458,-1.458 -2.187,-3.203 -2.187,-5.231 l 0,-64.293 c 0,-2.023 0.729,-3.769 2.187,-5.227 1.454,-1.461 3.2,-2.19 5.227,-2.19 L 0,0 z m 23.015,-35.944 c 0,-3.297 -0.604,-6.342 -1.803,-9.136 -1.213,-2.784 -2.822,-5.232 -4.857,-7.319 -2.027,-2.09 -4.472,-3.744 -7.321,-4.949 -2.855,-1.2 -5.87,-1.803 -9.034,-1.803 l -36.034,0 0,15.789 36.034,0 c 2.021,0 3.767,0.729 5.231,2.183 1.455,1.457 2.186,3.207 2.186,5.235 l 0,20.35 -73.611,0 c -3.167,0 -6.155,0.601 -8.944,1.806 -2.783,1.199 -5.228,2.85 -7.319,4.949 -2.09,2.088 -3.74,4.532 -4.942,7.322 -1.209,2.786 -1.812,5.767 -1.812,8.934 l 0,64.293 c 0,3.17 0.603,6.148 1.812,8.938 1.202,2.793 2.852,5.234 4.942,7.325 2.091,2.093 4.536,3.74 7.319,4.949 2.789,1.203 5.777,1.806 8.944,1.806 l 66.194,0 c 3.164,0 6.179,-0.603 9.034,-1.806 2.849,-1.209 5.294,-2.856 7.321,-4.949 2.035,-2.091 3.644,-4.532 4.857,-7.325 1.199,-2.79 1.803,-5.768 1.803,-8.938 l 0,-107.654 z"
         style="fill:#747577;fill-opacity:1;fill-rule:nonzero;stroke:none"
         id="path22"
         inkscape:connector-curvature="0" /></g><g
       id="g24"
       transform="translate(666.1436,400.9043)"><path
         d="m 0,0 0,-15.597 -62.01,0 c -2.027,0 -3.769,-0.735 -5.234,-2.19 -1.45,-1.457 -2.179,-3.203 -2.179,-5.231 l 0,-87.303 -15.598,0 0,87.303 c 0,3.171 0.604,6.149 1.809,8.938 1.199,2.793 2.857,5.235 4.943,7.325 2.093,2.093 4.533,3.74 7.328,4.949 C -68.158,-0.603 -65.176,0 -62.01,0 L 0,0 z"
         style="fill:#747577;fill-opacity:1;fill-rule:nonzero;stroke:none"
         id="path26"
         inkscape:connector-curvature="0" /></g><g
       id="g28"
       transform="translate(774.4336,337.9468)"><path
         d="m 0,0 -81.024,0 0,-24.353 c 0,-2.023 0.735,-3.769 2.192,-5.227 1.451,-1.461 3.193,-2.19 5.228,-2.19 L 0,-31.77 0,0 z m -7.414,62.958 c 3.175,0 6.188,-0.603 9.038,-1.806 2.849,-1.209 5.32,-2.856 7.413,-4.949 2.095,-2.091 3.744,-4.532 4.95,-7.325 1.205,-2.79 1.809,-5.768 1.809,-8.938 l 0,-87.304 -89.4,0 c -3.167,0 -6.156,0.601 -8.945,1.806 -2.783,1.199 -5.228,2.85 -7.321,4.949 -2.087,2.088 -3.731,4.532 -4.943,7.322 -1.206,2.786 -1.801,5.767 -1.801,8.934 l 0,39.947 96.614,0 0,24.346 c 0,2.028 -0.695,3.773 -2.087,5.231 -1.392,1.454 -3.167,2.19 -5.327,2.19 l -89.2,0 0,15.597 89.2,0 z"
         style="fill:#747577;fill-opacity:1;fill-rule:nonzero;stroke:none"
         id="path30"
         inkscape:connector-curvature="0" /></g><g
       id="g32"
       transform="translate(891.3506,306.1768)"><path
         d="m 0,0 c 2.027,0 3.776,0.729 5.229,2.19 1.456,1.458 2.192,3.204 2.192,5.227 l 0,64.293 c 0,2.028 -0.736,3.773 -2.192,5.231 -1.453,1.455 -3.202,2.19 -5.229,2.19 l -66.19,0 c -2.035,0 -3.771,-0.735 -5.229,-2.19 -1.463,-1.458 -2.192,-3.203 -2.192,-5.231 l 0,-64.293 c 0,-2.023 0.729,-3.769 2.192,-5.227 C -69.961,0.729 -68.225,0 -66.19,0 L 0,0 z m 23.018,130.864 0,-146.458 -89.208,0 c -3.299,0 -6.341,0.601 -9.13,1.806 -2.79,1.199 -5.235,2.85 -7.328,4.949 -2.088,2.088 -3.737,4.532 -4.937,7.322 -1.212,2.786 -1.809,5.767 -1.809,8.934 l 0,64.293 c 0,3.17 0.597,6.148 1.809,8.938 1.2,2.793 2.849,5.234 4.937,7.325 2.093,2.093 4.538,3.74 7.328,4.949 2.789,1.203 5.831,1.806 9.13,1.806 l 73.611,0 0,36.136 15.597,0 z"
         style="fill:#747577;fill-opacity:1;fill-rule:nonzero;stroke:none"
         id="path34"
         inkscape:connector-curvature="0" /></g><g
       id="g36"
       transform="translate(235.9189,361.4351)"><path
         d="m 0,0 c 0,2.594 -0.935,4.831 -2.799,6.699 -1.873,1.862 -4.102,2.799 -6.699,2.799 l -118.093,0 c -2.597,0 -4.833,-0.937 -6.699,-2.799 -1.865,-1.868 -2.795,-4.105 -2.795,-6.699 l 0,-41.39 c 0,-2.601 0.93,-4.834 2.795,-6.699 1.866,-1.869 4.102,-2.799 6.699,-2.799 l 118.093,0 c 2.597,0 4.826,0.93 6.699,2.799 C -0.935,-46.224 0,-43.991 0,-41.39 L 0,0 z m 0,74.754 c 0,2.594 -0.935,4.827 -2.799,6.695 -1.873,1.869 -4.102,2.8 -6.699,2.8 l -118.093,0 c -2.597,0 -4.833,-0.931 -6.699,-2.8 -1.865,-1.868 -2.795,-4.101 -2.795,-6.695 l 0,-38.472 c 0,-2.597 0.93,-4.83 2.795,-6.695 1.866,-1.869 4.102,-2.799 6.699,-2.799 l 118.093,0 c 2.597,0 4.826,0.93 6.699,2.799 C -0.935,31.452 0,33.685 0,36.282 l 0,38.472 z m 19.966,-35.55 c 0,-6.493 -2.435,-13.066 -7.305,-19.725 C 17.531,13.148 19.966,6.656 19.966,0 l 0,-41.39 c 0,-4.062 -0.772,-7.879 -2.316,-11.446 C 16.106,-56.408 14,-59.535 11.323,-62.212 8.646,-64.888 5.516,-67 1.948,-68.539 -1.627,-70.086 -5.44,-70.855 -9.498,-70.855 l -118.093,0 c -4.221,0 -8.117,0.769 -11.688,2.316 -3.571,1.539 -6.659,3.651 -9.253,6.327 -2.6,2.677 -4.667,5.804 -6.208,9.376 -1.547,3.567 -2.316,7.384 -2.316,11.446 l 0,41.39 c 0,6.656 2.435,13.148 7.305,19.479 -4.87,6.659 -7.305,13.232 -7.305,19.725 l 0,35.792 c 0,4.055 0.769,7.918 2.316,11.568 1.541,3.651 3.608,6.815 6.208,9.495 2.594,2.677 5.682,4.787 9.253,6.335 3.571,1.54 7.467,2.312 11.688,2.312 l 118.093,0 c 3.409,0 6.699,-0.696 9.862,-2.071 3.164,-1.382 6.046,-3.25 8.643,-5.602 2.595,-2.352 4.827,-5.032 6.696,-8.033 1.868,-3.005 3.286,-6.05 4.263,-9.134 l 0,-40.662 z"
         style="fill:#90c84b;fill-opacity:1;fill-rule:nonzero;stroke:none"
         id="path38"
         inkscape:connector-curvature="0" /></g><g
       id="g40"
       transform="translate(288.5859,394.3086)"><path
         d="m 0,0 c 0,-2.598 0.935,-4.834 2.796,-6.695 1.866,-1.869 4.099,-2.803 6.699,-2.803 l 127.59,0 0,51.62 c 0,2.598 -0.937,4.831 -2.802,6.699 -1.869,1.862 -4.098,2.796 -6.692,2.796 l -118.096,0 c -2.6,0 -4.833,-0.934 -6.699,-2.796 C 0.935,46.953 0,44.72 0,42.122 L 0,0 z m 9.495,-29.464 c -4.227,0 -8.12,0.771 -11.688,2.315 -3.571,1.544 -6.699,3.651 -9.375,6.334 -2.681,2.67 -4.791,5.798 -6.334,9.372 -1.544,3.565 -2.31,7.384 -2.31,11.443 l 0,42.122 c 0,4.056 0.766,7.918 2.31,11.569 1.543,3.651 3.653,6.815 6.334,9.495 2.676,2.676 5.804,4.787 9.375,6.334 3.568,1.541 7.461,2.312 11.688,2.312 l 118.096,0 c 4.055,0 7.867,-0.771 11.442,-2.312 3.568,-1.547 6.699,-3.658 9.369,-6.334 2.684,-2.68 4.79,-5.844 6.334,-9.495 1.544,-3.651 2.313,-7.513 2.313,-11.569 l 0,-116.386 c 0,-4.062 -0.769,-7.878 -2.313,-11.446 -1.544,-3.571 -3.65,-6.698 -6.334,-9.376 -2.67,-2.676 -5.801,-4.787 -9.369,-6.326 -3.575,-1.548 -7.387,-2.317 -11.442,-2.317 l -118.096,0 c -6.494,0 -12.297,1.866 -17.409,5.599 -5.119,3.734 -8.647,8.525 -10.594,14.368 l 146.099,0 c 2.594,0 4.823,0.931 6.692,2.8 1.865,1.865 2.802,4.098 2.802,6.698 l 0,35.305 c 0,2.594 -0.937,4.827 -2.802,6.695 -1.869,1.868 -4.098,2.8 -6.692,2.8 l -118.096,0 z"
         style="fill:#90c84b;fill-opacity:1;fill-rule:nonzero;stroke:none"
         id="path42"
         inkscape:connector-curvature="0" /></g><g
       id="g60"
       transform="translate(581.083,262.9707)"><path
         d="m 0,0 333.423,0 c -1.803,-4.539 -5.082,-8.252 -9.839,-11.151 -4.758,-2.899 -10.15,-4.346 -16.187,-4.346 L 0,-15.497"
         style="fill:#90c84b;fill-opacity:1;fill-rule:nonzero;stroke:none"
         id="path62"
         inkscape:connector-curvature="0" /></g><g
       id="g64"
       transform="translate(498.498,247.2842)"><path
         d="m 0,0 -14.421,0 c -6.089,0 -11.526,1.485 -16.319,4.459 -4.798,2.976 -8.104,6.789 -9.932,11.44 l 40.672,0"
         style="fill:#90c84b;fill-opacity:1;fill-rule:nonzero;stroke:none"
         id="path66"
         inkscape:connector-curvature="0" /></g><g
       id="g68"
       transform="translate(576.8564,366.832)"><path
         d="M 0,0 z"
         style="fill:#8fc74d;fill-opacity:1;fill-rule:nonzero;stroke:none"
         id="path70"
         inkscape:connector-curvature="0" /></g></g></svg>