<?xml version="1.0" encoding="UTF-8" standalone="no"?>
<!-- Created with Inkscape (http://www.inkscape.org/) -->

<svg
   xmlns:dc="http://purl.org/dc/elements/1.1/"
   xmlns:cc="http://creativecommons.org/ns#"
   xmlns:rdf="http://www.w3.org/1999/02/22-rdf-syntax-ns#"
   xmlns:svg="http://www.w3.org/2000/svg"
   xmlns="http://www.w3.org/2000/svg"
   xmlns:sodipodi="http://sodipodi.sourceforge.net/DTD/sodipodi-0.dtd"
   xmlns:inkscape="http://www.inkscape.org/namespaces/inkscape"
   version="1.1"
   id="svg2"
   xml:space="preserve"
   width="824.88"
   height="189.74667"
   viewBox="0 0 824.88 189.74667"
   sodipodi:docname="ai.svg"
   inkscape:version="0.92.2 5c3e80d, 2017-08-06"><metadata
     id="metadata8"><rdf:RDF><cc:Work
         rdf:about=""><dc:format>image/svg+xml</dc:format><dc:type
           rdf:resource="http://purl.org/dc/dcmitype/StillImage" /><dc:title></dc:title></cc:Work></rdf:RDF></metadata><defs
     id="defs6" /><sodipodi:namedview
     pagecolor="#ffffff"
     bordercolor="#666666"
     borderopacity="1"
     objecttolerance="10"
     gridtolerance="10"
     guidetolerance="10"
     inkscape:pageopacity="0"
     inkscape:pageshadow="2"
     inkscape:window-width="1916"
     inkscape:window-height="1041"
     id="namedview4"
     showgrid="false"
     inkscape:zoom="0.49704199"
     inkscape:cx="-116.69034"
     inkscape:cy="94.873337"
     inkscape:window-x="1920"
     inkscape:window-y="18"
     inkscape:window-maximized="0"
     inkscape:current-layer="g10" /><g
     id="g10"
     inkscape:groupmode="layer"
     inkscape:label="ink_ext_XXXXXX"
     transform="matrix(1.3333333,0,0,-1.3333333,0,189.74667)"><g
       id="g12"
       transform="scale(0.1)"><path
         d="m 1276.64,1423.13 c -104.93,0 -190,-85.07 -190,-190 0,-104.93 85.07,-190 190,-190 104.93,0 190,85.07 190,190 0,104.93 -85.07,190 -190,190"
         style="fill:#393536;fill-opacity:1;fill-rule:evenodd;stroke:none"
         id="path14"
         inkscape:connector-curvature="0" /><path
         d="M 1062.78,11.75 H 656.379 c -140,0 -100,1340.28 -220,1340.28 h 406.387 c 120,0 80.007,-1340.28 220.014,-1340.28"
         style="fill:#3a3c3e;fill-opacity:1;fill-rule:nonzero;stroke:none"
         id="path16"
         inkscape:connector-curvature="0" /><path
         d="m 862.902,1352.03 h -0.136 l 0.07,-0.01 z"
         style="fill:#393536;fill-opacity:1;fill-rule:nonzero;stroke:none"
         id="path18"
         inkscape:connector-curvature="0" /><path
         d="M 531.363,505.09 C 502.238,887.145 487.055,1351.75 416.438,1352.02 286.363,1351.57 -123.465,11.75 36.5039,11.75 H 482.902 c -53.441,0 -18.972,226.559 48.461,493.34"
         style="fill:#393536;fill-opacity:1;fill-rule:nonzero;stroke:none"
         id="path20"
         inkscape:connector-curvature="0" /><path
         d="m 1276.64,953.129 c -101.96,0 -191.16,54.511 -240.12,135.971 C 1018.81,995.203 991.594,884.117 959.395,769.566 983.742,407.98 1006.65,11.75 1082.78,11.75 h 10.12 c 61.15,0 283.83,618.664 373.28,1015.34 -49.86,-45.902 -116.41,-73.961 -189.54,-73.961"
         style="fill:#393536;fill-opacity:1;fill-rule:nonzero;stroke:none"
         id="path22"
         inkscape:connector-curvature="0" /><path
         d="m 1697.56,12.9688 h 129.69 V 611.207 H 1697.56 Z M 6114.48,147.531 c -19.99,0 -37.02,-7.031 -51.05,-21.082 -14.06,-14.051 -21.08,-31.0701 -21.08,-51.0506 0,-20.0078 7.02,-37.0273 21.08,-51.0781 14.03,-14.039 31.06,-21.0703 51.05,-21.0703 19.99,0 37.02,7.0313 51.08,21.0703 14.05,14.0508 21.07,31.0703 21.07,51.0781 0,19.9805 -7.02,36.9996 -21.07,51.0506 -14.06,14.051 -31.09,21.082 -51.08,21.082 z m 0,106.199 c 19.99,0 37.02,7.02 51.08,21.071 14.05,14.051 21.07,31.07 21.07,51.07 0,19.981 -7.02,37.02 -21.07,51.059 -14.06,14.039 -31.09,21.07 -51.08,21.07 -19.99,0 -37.02,-7.031 -51.05,-21.07 -14.06,-14.039 -21.08,-31.078 -21.08,-51.059 0,-20 7.02,-37.019 21.08,-51.07 14.03,-14.051 31.06,-21.071 51.05,-21.071 z m -303.96,1.622 -170.23,356.66 H 5523.57 V 12.9688 h 116.72 V 368.82 L 5811.33,12.9688 h 115.92 V 612.012 H 5810.52 Z M 5271.47,148.34 c -12.98,-23.781 -31.62,-35.66 -55.94,-35.66 -22.7,0 -40.53,10.789 -53.5,32.422 -14.59,22.707 -21.88,80.789 -21.88,174.277 0,79.98 6.2,131.848 18.64,155.644 12.97,23.77 31.88,35.661 56.74,35.661 23.78,0 42.16,-11.348 55.13,-34.043 13.49,-22.172 20.26,-74.563 20.26,-157.262 0,-89.707 -6.48,-146.719 -19.45,-171.039 z m -55.13,475.019 c -62.69,0 -112.95,-22.968 -150.78,-68.902 -40.53,-49.719 -60.79,-127.812 -60.79,-234.266 0,-118.351 19.46,-202.121 58.37,-251.2808 16.73,-22.1797 39.43,-39.1993 68.08,-51.0821 25.94,-11.87888 53.23,-17.8163812 81.88,-17.8163812 64.85,0 115.11,21.5976812 150.78,64.8398812 41.61,49.7184 62.42,134.5584 62.42,254.5274 0,110.781 -19.75,189.41 -59.18,235.894 -38.38,45.391 -88.64,68.086 -150.78,68.086 z M 4776.18,12.9688 h 129.71 V 611.207 H 4776.18 Z M 4343.32,492.855 h 117.55 V 12.9688 h 128.89 V 492.855 h 117.55 v 118.352 h -363.99 z m -304.09,-241.574 55.94,231.035 h 4.06 l 48.63,-231.035 z m -22.69,359.926 -168.6,-598.2382 h 133.75 l 30.79,128.8832 h 162.12 l 30.81,-128.8832 h 139.43 L 4178.66,611.207 Z m -273.75,0 -95.65,-424.758 -3.25,-0.82 -92.4,425.578 H 3425.04 L 3571.75,12.9688 h 142.68 l 152.4,598.2382 z M 3217.52,148.34 c -12.97,-23.781 -31.61,-35.66 -55.95,-35.66 -22.69,0 -40.51,10.789 -53.48,32.422 -14.59,22.707 -21.89,80.789 -21.89,174.277 0,79.98 6.2,131.848 18.64,155.644 12.97,23.77 31.89,35.661 56.73,35.661 23.79,0 42.17,-11.348 55.15,-34.043 13.49,-22.172 20.25,-74.563 20.25,-157.262 0,-89.707 -6.49,-146.719 -19.45,-171.039 z m -55.14,475.019 c -62.68,0 -112.93,-22.968 -150.76,-68.902 -40.52,-49.719 -60.8,-127.812 -60.8,-234.266 0,-118.351 19.47,-202.121 58.37,-251.2808 16.75,-22.1797 39.44,-39.1993 68.1,-51.0821 25.91,-11.87888 53.22,-17.8163812 81.86,-17.8163812 64.86,0 115.11,21.5976812 150.78,64.8398812 41.61,49.7184 62.42,134.5584 62.42,254.5274 0,110.781 -19.73,189.41 -59.18,235.894 -38.38,45.391 -88.64,68.086 -150.79,68.086 z M 2734.41,255.352 2564.17,612.012 H 2447.44 V 12.9688 h 116.73 V 368.82 L 2735.21,12.9688 h 115.91 V 612.012 h -116.71 z m -512.3,0 -170.23,356.66 H 1935.15 V 12.9688 h 116.73 V 368.82 L 2222.92,12.9688 h 115.91 V 612.012 h -116.72 z m 2181.98,978.378 h 117.53 V 753.848 h 128.9 v 479.882 h 117.54 v 118.34 H 4404.09 Z M 4050.68,1109.71 4221.7,753.848 h 115.93 V 1352.89 H 4220.91 V 996.211 L 4050.68,1352.89 H 3933.95 V 753.848 h 116.73 z M 3843.17,872.191 h -186.44 v 138.629 h 153.2 v 118.34 h -153.2 v 104.57 h 183.18 v 118.34 H 3528.64 V 753.848 h 313.72 z M 3292.78,753.848 h 129.69 v 598.222 h -129.69 z m -333.16,261.822 h 50.25 c 54.04,0 81.07,-23.783 81.07,-71.338 0,-52.418 -27.83,-78.617 -83.5,-78.617 h -47.82 z m 0,225.35 h 46.2 c 45.94,0 68.91,-21.08 68.91,-63.23 0,-19.45 -6.09,-35.25 -18.24,-47.41 -12.17,-12.17 -28.5,-18.25 -49.05,-18.25 h -47.82 z m 187.26,-436.915 c 39.43,34.04 59.18,80.778 59.18,140.227 0,29.715 -7.45,56.468 -22.31,80.248 -14.85,23.78 -33.63,40.54 -56.34,50.27 40.54,23.22 60.79,62.95 60.79,119.16 0,53.5 -19.72,94.3 -59.16,122.4 -33.52,23.77 -76.47,35.66 -128.89,35.66 h -160.5 V 753.848 h 154.01 c 62.13,0 113.21,16.742 153.22,50.257 z m -626.59,190.485 95.64,135.37 V 753.848 h 118.36 v 598.222 h -95.66 l -141.87,-215.61 -146.71,215.61 h -95.66 V 753.848 h 118.36 v 376.932 l 94.03,-136.19 z m -632.29,-2.426 55.93,231.016 h 4.06 l 48.64,-231.016 z m 166.18,-238.316 h 139.43 L 2027.43,1352.07 H 1865.3 L 1696.7,753.848 h 133.75 l 30.81,128.89 h 162.12 l 30.8,-128.89"
         style="fill:#393536;fill-opacity:1;fill-rule:evenodd;stroke:none"
         id="path24"
         inkscape:connector-curvature="0" /></g></g></svg>