<?xml version="1.0" encoding="UTF-8" standalone="no"?><!DOCTYPE svg PUBLIC "-//W3C//DTD SVG 1.1//EN" "http://www.w3.org/Graphics/SVG/1.1/DTD/svg11.dtd"><svg width="100%" height="100%" viewBox="0 0 1418 384" version="1.1" xmlns="http://www.w3.org/2000/svg" xmlns:xlink="http://www.w3.org/1999/xlink" xml:space="preserve" xmlns:serif="http://www.serif.com/" style="fill-rule:evenodd;clip-rule:evenodd;stroke-linejoin:round;stroke-miterlimit:1.41421;"><g><path d="M150.897,159.453c-4.383,0 -7.933,3.554 -7.933,7.933c0,4.384 3.55,7.934 7.933,7.934c4.38,0 7.934,-3.55 7.934,-7.934c0,-4.379 -3.554,-7.933 -7.934,-7.933Z" style="fill:#f99d28;fill-rule:nonzero;"/><path d="M67.589,167.386c0,4.384 3.55,7.934 7.933,7.934l59.505,0l0,-15.867l-59.505,0c-4.383,0 -7.933,3.554 -7.933,7.933Z" style="fill:#f99d28;fill-rule:nonzero;"/><path d="M194.535,127.716l-119.013,0c-4.383,0 -7.933,3.554 -7.933,7.937c0,4.379 3.55,7.933 7.933,7.933l119.013,0c4.379,0 7.933,-3.554 7.933,-7.933c0,-4.383 -3.554,-7.937 -7.933,-7.937Z" style="fill:#f99d28;fill-rule:nonzero;"/><path d="M75.522,111.849l119.013,0c4.379,0 7.933,-3.554 7.933,-7.933c0,-4.384 -3.554,-7.934 -7.933,-7.934l-119.013,0c-4.383,0 -7.933,3.55 -7.933,7.934c0,4.379 3.55,7.933 7.933,7.933Z" style="fill:#f99d28;fill-rule:nonzero;"/><path d="M577.385,248.391c2.762,1.379 3.946,3.354 3.946,6.312c0,3.55 -2.563,6.308 -5.917,6.308c-2.167,0 -3.746,-0.791 -5.917,-1.579c-9.066,-3.35 -15.966,-4.929 -26.02,-4.929c-14.592,0 -25.825,9.267 -25.825,21.1c0,11.825 6.308,17.546 17.941,23.258l22.867,11.242c12.812,6.504 26.612,15.179 26.612,37.058c0,23.263 -19.12,36.667 -41.791,36.667c-13.013,0 -24.25,-2.558 -35.092,-7.487c-2.954,-1.384 -4.337,-3.355 -4.337,-6.309c0,-3.75 2.562,-6.508 6.308,-6.508c1.775,0 2.954,0.396 5.912,1.775c8.48,3.942 16.563,5.717 27.209,5.717c15.375,0 27.991,-8.28 27.991,-23.459c0,-13.8 -7.883,-19.908 -20.5,-26.221l-23.066,-11.433c-13.996,-6.9 -23.854,-16.562 -23.854,-33.912c0,-19.909 16.754,-34.3 40.412,-34.3c13.013,0 23.463,1.97 33.121,6.7Z" style="fill:#f99d28;fill-rule:nonzero;"/><path d="M678.314,243.661c3.942,0 6.504,2.959 6.504,6.509c0,3.746 -2.562,6.704 -6.504,6.704l-53.821,0l0,46.717l51.259,0c3.941,0 6.7,2.766 6.7,6.512c0,3.742 -2.759,6.7 -6.7,6.7l-51.259,0l0,51.85l55.2,0c3.942,0 6.509,2.954 6.509,6.504c0,3.746 -2.567,6.704 -6.509,6.704l-60.325,0c-4.733,0 -8.675,-3.55 -8.675,-8.479l0,-121.241c0,-4.93 3.942,-8.48 8.675,-8.48l58.946,0Z" style="fill:#f99d28;fill-rule:nonzero;"/><path d="M828.131,249.182l0,127.75c0,3.938 -3.154,6.896 -6.9,6.896c-3.746,0 -6.7,-2.958 -6.7,-6.896l0,-105.666l-37.463,71.558c-1.179,2.367 -3.546,3.75 -6.504,3.75c-3.154,0 -5.517,-1.383 -6.704,-3.75l-37.258,-71.558l0,105.666c0,3.938 -3.155,6.896 -6.896,6.896c-3.75,0 -6.904,-2.958 -6.904,-6.896l0,-127.75c0,-4.533 3.154,-7.491 7.491,-7.491c3.354,0 5.717,1.579 7.296,4.533l42.975,81.025l42.979,-81.025c1.575,-2.954 3.942,-4.533 7.096,-4.533c4.533,0 7.492,2.958 7.492,7.491Z" style="fill:#f99d28;fill-rule:nonzero;"/><path d="M878.389,332.578l45.538,0l-22.671,-69.987l-22.867,69.987Zm30.358,-85.762l42.975,127.354c0.396,1.183 0.592,2.366 0.592,3.158c0,3.742 -2.758,6.5 -6.704,6.5c-2.758,0 -5.521,-1.575 -6.504,-4.533l-11.038,-34.104l-53.821,0l-11.041,34.104c-0.984,2.958 -3.746,4.533 -6.504,4.533c-3.946,0 -6.705,-2.758 -6.705,-6.5c0,-0.792 0.196,-1.975 0.592,-3.158l42.975,-127.354c1.183,-3.155 4.338,-5.125 7.692,-5.125c3.154,0 6.308,1.97 7.491,5.125Z" style="fill:#f99d28;fill-rule:nonzero;"/><path d="M1062.31,248.591l0,127.75c0,4.141 -3.35,7.487 -7.492,7.487c-2.958,0 -5.521,-1.575 -7.1,-4.533l-59.929,-108.625l0,106.262c0,3.938 -3.154,6.896 -6.9,6.896c-3.742,0 -6.9,-2.958 -6.9,-6.896l0,-127.75c0,-4.137 3.354,-7.491 7.492,-7.491c3.354,0 5.521,1.579 7.296,4.533l59.933,108.625l0,-106.258c0,-3.942 3.15,-6.9 6.9,-6.9c3.742,0 6.7,2.958 6.7,6.9Z" style="fill:#f99d28;fill-rule:nonzero;"/><path d="M1168.95,243.661c3.742,0 6.701,2.959 6.701,6.509c0,3.746 -2.959,6.704 -6.701,6.704l-33.316,0l0,120.058c0,3.938 -3.158,6.896 -6.904,6.896c-3.75,0 -6.9,-2.958 -6.9,-6.896l0,-120.058l-33.125,0c-3.938,0 -6.696,-2.958 -6.696,-6.704c0,-3.55 2.758,-6.509 6.696,-6.509l80.245,0Z" style="fill:#f99d28;fill-rule:nonzero;"/><path d="M1208.96,248.391l0,128.737c0,3.942 -3.158,6.7 -6.908,6.7c-3.742,0 -6.896,-2.758 -6.896,-6.7l0,-128.737c0,-3.942 3.154,-6.7 6.896,-6.7c3.75,0 6.908,2.758 6.908,6.7Z" style="fill:#f99d28;fill-rule:nonzero;"/><path d="M1313.83,249.382c3.154,1.771 4.929,3.546 4.929,6.5c0,3.159 -2.759,6.313 -6.5,6.313c-1.579,0 -2.958,-0.592 -4.338,-1.379c-7.495,-4.338 -14,-6.313 -22.083,-6.313c-20.504,0 -33.317,12.621 -33.317,32.729l0,51.059c0,20.308 13.013,32.725 33.317,32.725c7.688,0 14.392,-2.167 21.092,-5.917c2.371,-1.179 3.75,-1.771 5.329,-1.771c3.346,0 6.5,2.567 6.5,6.308c0,2.563 -1.179,4.338 -3.546,5.917c-8.679,5.913 -19.125,8.275 -29.375,8.275c-27.8,0 -47.117,-17.346 -47.117,-46.325l0,-49.483c0,-29.375 19.317,-46.329 47.117,-46.329c10.842,0 19.513,3.154 27.992,7.691Z" style="fill:#f99d28;fill-rule:nonzero;"/><path d="M1409.63,248.391c2.758,1.379 3.942,3.354 3.942,6.312c0,3.55 -2.563,6.308 -5.917,6.308c-2.167,0 -3.742,-0.791 -5.913,-1.579c-9.07,-3.35 -15.97,-4.929 -26.02,-4.929c-14.588,0 -25.83,9.267 -25.83,21.1c0,11.825 6.309,17.546 17.942,23.258l22.867,11.242c12.816,6.504 26.612,15.179 26.612,37.058c0,23.263 -19.116,36.667 -41.792,36.667c-13.012,0 -24.245,-2.558 -35.091,-7.487c-2.958,-1.384 -4.337,-3.355 -4.337,-6.309c0,-3.75 2.562,-6.508 6.312,-6.508c1.775,0 2.958,0.396 5.912,1.775c8.475,3.942 16.559,5.717 27.204,5.717c15.38,0 27.996,-8.28 27.996,-23.459c0,-13.8 -7.887,-19.908 -20.504,-26.221l-23.062,-11.433c-14,-6.9 -23.858,-16.562 -23.858,-33.912c0,-19.909 16.758,-34.3 40.412,-34.3c13.012,0 23.462,1.97 33.125,6.7Z" style="fill:#f99d28;fill-rule:nonzero;"/><path d="M213.185,208.441c-6.046,6.508 -9.8,16.008 -9.808,24.804c-0.005,6.433 0.016,14.796 0.045,23.608c-7.112,-4.667 -13.854,-9.083 -19.083,-12.496c-5.5,-3.583 -12.292,-5.55 -19.137,-5.55c-2.471,0 -4.905,0.259 -7.234,0.775c-8.279,1.834 -16.346,2.763 -23.987,2.763c-4.867,0 -9.709,-0.379 -14.4,-1.117c-26.613,-4.192 -47.825,-15.725 -64.838,-35.246c-22.091,-25.35 -30.491,-53.821 -25.671,-87.033c4.105,-28.283 17.234,-50.675 40.15,-68.442c19.725,-15.304 40.821,-22.741 64.492,-22.741c5.825,0 11.871,0.47 17.975,1.4c26.217,3.97 47.342,15.762 64.579,36.045c21.313,25.067 29.409,53.234 24.763,86.109c-3.05,21.562 -12.159,40.246 -27.846,57.121Zm20.337,18.908c19.046,-20.483 31.096,-44.508 35.005,-72.142c5.72,-40.458 -4.546,-76.75 -31.1,-107.983c-21.459,-25.246 -48.888,-40.563 -81.575,-45.517c-38.192,-5.787 -73.063,3.134 -103.65,26.854c-28.3,21.95 -45.475,51.009 -50.609,86.4c-5.966,41.1 4.838,77.85 32.213,109.267c21.6,24.779 49.041,39.325 81.454,44.433c16.333,2.571 32.567,1.605 48.7,-1.962c1.546,-0.342 3.879,0.05 5.204,0.917c13.046,8.508 35.504,23.279 49.6,32.529c5.429,3.562 12.625,-0.354 12.592,-6.846c-0.088,-17.021 -0.221,-44.308 -0.209,-60.038c0,-1.891 1.088,-4.525 2.375,-5.912Z" style="fill:#1c8b3d;fill-rule:nonzero;"/><path d="M283.872,327.274l14.013,-39.05l14.021,39.05l-28.034,0Zm26.125,-78.121c-1.066,-2.658 -2.941,-4.721 -5.429,-5.967c-1.979,-0.987 -4.229,-1.491 -6.683,-1.491c-2.454,0 -4.7,0.504 -6.675,1.491c-2.5,1.25 -4.379,3.321 -5.508,6.18l-42.346,117.55c-0.554,1.379 -0.821,2.633 -0.821,3.829l0,1.096c0,3.55 1.446,6.733 4.054,8.941c2.354,2.009 5.3,3.075 8.508,3.075c5.546,0 9.788,-2.954 11.284,-7.704l8.562,-24.117l45.738,0l8.796,24.355c1.02,2.554 2.745,4.57 4.97,5.825c1.934,1.087 4.03,1.641 6.23,1.641c3.2,0 6.141,-1.062 8.491,-3.062c2.629,-2.221 4.075,-5.404 4.075,-8.954l0,-1.096c0,-1.2 -0.262,-2.409 -0.741,-3.617l-42.505,-117.975Z" style="fill:#1c8b3d;fill-rule:nonzero;"/><path d="M462.256,365.053l-34.217,-52.271l33.963,-51.725c1.395,-1.946 2.095,-4.296 2.095,-6.983c0,-3.204 -1.166,-6.138 -3.391,-8.483c-2.304,-2.43 -5.354,-3.717 -8.804,-3.717c-4.363,0 -8.217,2.058 -10.967,5.963l-27.438,41.533l-27.545,-41.7c-2.642,-3.738 -6.367,-5.796 -10.488,-5.796l-0.362,0c-3.517,0 -6.6,1.358 -8.925,3.929c-2.142,2.383 -3.275,5.238 -3.275,8.271c0,2.637 0.67,4.946 2.008,6.862l33.875,51.846l-33.942,52.121l-0.187,0.304c-1.046,1.825 -1.575,3.934 -1.575,6.267c0,3.017 0.991,5.846 2.85,8.167c2.171,2.72 5.425,4.216 9.171,4.216c4.241,0 8.029,-2.058 10.77,-5.946l27.625,-41.595l27.73,41.745c2.637,3.738 6.425,5.796 10.675,5.796c3.729,0 6.983,-1.491 9.162,-4.212c1.867,-2.329 2.854,-5.159 2.854,-8.171c0,-2.325 -0.529,-4.429 -1.566,-6.254l-0.096,-0.167Z" style="fill:#1c8b3d;fill-rule:nonzero;"/></g></svg>