<?xml version="1.0" encoding="UTF-8" standalone="no"?>
<!-- Created with Inkscape (http://www.inkscape.org/) -->

<svg
   xmlns:dc="http://purl.org/dc/elements/1.1/"
   xmlns:cc="http://creativecommons.org/ns#"
   xmlns:rdf="http://www.w3.org/1999/02/22-rdf-syntax-ns#"
   xmlns:svg="http://www.w3.org/2000/svg"
   xmlns="http://www.w3.org/2000/svg"
   xmlns:sodipodi="http://sodipodi.sourceforge.net/DTD/sodipodi-0.dtd"
   xmlns:inkscape="http://www.inkscape.org/namespaces/inkscape"
   version="1.1"
   id="svg2"
   xml:space="preserve"
   width="827.01331"
   height="145.26666"
   viewBox="0 0 827.01331 145.26666"
   sodipodi:docname="divio.svg"
   inkscape:version="0.92.2 2405546, 2018-03-11"><metadata
     id="metadata8"><rdf:RDF><cc:Work
         rdf:about=""><dc:format>image/svg+xml</dc:format><dc:type
           rdf:resource="http://purl.org/dc/dcmitype/StillImage" /><dc:title></dc:title></cc:Work></rdf:RDF></metadata><defs
     id="defs6" /><sodipodi:namedview
     pagecolor="#ffffff"
     bordercolor="#666666"
     borderopacity="1"
     objecttolerance="10"
     gridtolerance="10"
     guidetolerance="10"
     inkscape:pageopacity="0"
     inkscape:pageshadow="2"
     inkscape:window-width="1916"
     inkscape:window-height="969"
     id="namedview4"
     showgrid="false"
     inkscape:zoom="0.51994327"
     inkscape:cx="267.33686"
     inkscape:cy="72.633331"
     inkscape:window-x="1920"
     inkscape:window-y="90"
     inkscape:window-maximized="0"
     inkscape:current-layer="g10" /><g
     id="g10"
     inkscape:groupmode="layer"
     inkscape:label="ink_ext_XXXXXX"
     transform="matrix(1.3333333,0,0,-1.3333333,0,145.26667)"><g
       id="g12"
       transform="scale(0.1)"><path
         d="m 1780.93,1089.5 h 263.88 V 0.449219 H 1780.93 V 1089.5"
         style="fill:#050301;fill-opacity:1;fill-rule:nonzero;stroke:none"
         id="path14"
         inkscape:connector-curvature="0" /><path
         d="M 3038.99,0.449219 2380.69,1089.5 h 300.66 l 460.34,-790.84 434.51,790.84 h 275.24 L 3221.58,0.449219 h -182.59"
         style="fill:#050301;fill-opacity:1;fill-rule:nonzero;stroke:none"
         id="path16"
         inkscape:connector-curvature="0" /><path
         d="m 4154.81,1089.5 h 263.93 V 0.449219 H 4154.81 V 1089.5"
         style="fill:#050301;fill-opacity:1;fill-rule:nonzero;stroke:none"
         id="path18"
         inkscape:connector-curvature="0" /><path
         d="m 5935.96,294.461 c 0,-48.621 -50.85,-87.969 -113.54,-87.969 h -645.94 c -62.68,0 -113.52,39.348 -113.52,87.969 v 505.977 c 0,48.527 50.84,87.929 113.52,87.929 h 645.94 c 62.69,0 113.54,-39.402 113.54,-87.929 z m 189.27,724.859 c -39.35,34.34 -95.76,69.72 -205.31,69.72 h -840.67 c -109.87,0 -166.21,-35.38 -205.53,-69.72 -39.53,-34.234 -77.4,-84.781 -77.4,-187.691 V 257.371 c 0,-101.16 37.87,-151.367 77.4,-186.5116 C 4913.04,35.7188 4969.38,0 5079.25,0 h 840.67 c 107.94,0 163.86,35.7188 204.13,70.8594 40.45,35.1446 78.59,85.3516 78.59,186.5116 v 574.258 c 0,102.91 -37.87,153.457 -77.41,187.691"
         style="fill:#050301;fill-opacity:1;fill-rule:nonzero;stroke:none"
         id="path20"
         inkscape:connector-curvature="0" /><path
         d="m 1139.73,294.461 c 0,-48.621 -50.85,-87.969 -113.53,-87.969 H 266.656 l 0.074,87.969 v 505.977 l 0.247,87.929 H 1026.2 c 62.68,0 113.53,-39.402 113.53,-87.929 z M 0.09375,1089.14 V 0 H 0 1123.69 c 107.94,0 163.86,35.7188 204.13,70.8594 40.46,35.1446 78.59,85.3516 78.59,186.5116 v 574.258 c 0,102.91 -37.87,153.457 -77.41,187.691 -39.35,34.34 -95.76,69.72 -205.31,69.72 H 0.09375 v 0.1"
         style="fill:#050301;fill-opacity:1;fill-rule:nonzero;stroke:none"
         id="path22"
         inkscape:connector-curvature="0" /></g></g></svg>