<?xml version="1.0" encoding="UTF-8" standalone="no"?>
<!-- Created with Inkscape (http://www.inkscape.org/) -->

<svg
   xmlns:dc="http://purl.org/dc/elements/1.1/"
   xmlns:cc="http://creativecommons.org/ns#"
   xmlns:rdf="http://www.w3.org/1999/02/22-rdf-syntax-ns#"
   xmlns:svg="http://www.w3.org/2000/svg"
   xmlns="http://www.w3.org/2000/svg"
   xmlns:sodipodi="http://sodipodi.sourceforge.net/DTD/sodipodi-0.dtd"
   xmlns:inkscape="http://www.inkscape.org/namespaces/inkscape"
   version="1.1"
   id="svg2"
   xml:space="preserve"
   width="1066.6667"
   height="1066.6667"
   viewBox="0 0 1066.6667 1066.6667"
   sodipodi:docname="divio.svg"
   inkscape:version="0.92.2 2405546, 2018-03-11"><metadata
     id="metadata8"><rdf:RDF><cc:Work
         rdf:about=""><dc:format>image/svg+xml</dc:format><dc:type
           rdf:resource="http://purl.org/dc/dcmitype/StillImage" /><dc:title></dc:title></cc:Work></rdf:RDF></metadata><defs
     id="defs6" /><sodipodi:namedview
     pagecolor="#ffffff"
     bordercolor="#666666"
     borderopacity="1"
     objecttolerance="10"
     gridtolerance="10"
     guidetolerance="10"
     inkscape:pageopacity="0"
     inkscape:pageshadow="2"
     inkscape:window-width="956"
     inkscape:window-height="1041"
     id="namedview4"
     showgrid="false"
     inkscape:zoom="0.22124998"
     inkscape:cx="610.16954"
     inkscape:cy="533.33337"
     inkscape:window-x="2880"
     inkscape:window-y="18"
     inkscape:window-maximized="0"
     inkscape:current-layer="g10" /><g
     id="g10"
     inkscape:groupmode="layer"
     inkscape:label="ink_ext_XXXXXX"
     transform="matrix(1.3333333,0,0,-1.3333333,0,1066.6667)"><g
       id="g12"
       transform="scale(0.1)"><path
         d="M 8000,0 H 0 V 8000 H 8000 V 0"
         style="fill:#5ebbec;fill-opacity:1;fill-rule:nonzero;stroke:none"
         id="path14"
         inkscape:connector-curvature="0" /><path
         d="m 2669.88,4550 h 265.83 V 3452.92 H 2669.88 V 4550"
         style="fill:#ffffff;fill-opacity:1;fill-rule:nonzero;stroke:none"
         id="path16"
         inkscape:connector-curvature="0" /><path
         d="m 3937.22,3450.45 -663.15,1097.07 h 302.87 l 463.73,-796.66 437.71,796.66 h 277.26 L 4121.15,3450.45 h -183.93"
         style="fill:#ffffff;fill-opacity:1;fill-rule:nonzero;stroke:none"
         id="path18"
         inkscape:connector-curvature="0" /><path
         d="m 5061.25,4547.52 h 265.87 V 3450.45 h -265.87 v 1097.07"
         style="fill:#ffffff;fill-opacity:1;fill-rule:nonzero;stroke:none"
         id="path20"
         inkscape:connector-curvature="0" /><path
         d="m 6855.51,3746.63 c 0,-48.98 -51.22,-88.62 -114.37,-88.62 h -650.69 c -63.15,0 -114.36,39.64 -114.36,88.62 v 509.7 c 0,48.88 51.21,88.58 114.36,88.58 h 650.69 c 63.15,0 114.37,-39.7 114.37,-88.58 z m 190.68,730.19 c -39.65,34.6 -96.47,70.24 -206.83,70.24 H 5992.5 c -110.69,0 -167.44,-35.64 -207.04,-70.24 -39.83,-34.48 -77.98,-85.4 -77.98,-189.07 v -578.48 c 0,-101.91 38.15,-152.49 77.98,-187.89 39.6,-35.4 96.35,-71.38 207.04,-71.38 h 846.86 c 108.74,0 165.07,35.98 205.64,71.38 40.74,35.4 79.16,85.98 79.16,187.89 v 578.48 c 0,103.67 -38.15,154.59 -77.97,189.07"
         style="fill:#ffffff;fill-opacity:1;fill-rule:nonzero;stroke:none"
         id="path22"
         inkscape:connector-curvature="0" /><path
         d="m 2023.96,3746.63 c 0,-48.98 -51.22,-88.62 -114.37,-88.62 h -765.13 l 0.07,88.62 v 509.7 l 0.25,88.58 h 764.81 c 63.15,0 114.37,-39.7 114.37,-88.58 z M 875.934,4547.16 V 3450 h -0.094 1131.97 c 108.73,0 165.07,35.98 205.63,71.38 40.75,35.4 79.16,85.98 79.16,187.89 v 578.48 c 0,103.67 -38.15,154.59 -77.97,189.07 -39.64,34.6 -96.46,70.24 -206.82,70.24 H 875.934 v 0.1"
         style="fill:#ffffff;fill-opacity:1;fill-rule:nonzero;stroke:none"
         id="path24"
         inkscape:connector-curvature="0" /></g></g></svg>