<?xml version="1.0" encoding="UTF-8" standalone="no"?>
<!-- Generator: Adobe Illustrator 21.0.0, SVG Export Plug-In . SVG Version: 6.00 Build 0)  -->

<svg
   xmlns:dc="http://purl.org/dc/elements/1.1/"
   xmlns:cc="http://creativecommons.org/ns#"
   xmlns:rdf="http://www.w3.org/1999/02/22-rdf-syntax-ns#"
   xmlns:svg="http://www.w3.org/2000/svg"
   xmlns="http://www.w3.org/2000/svg"
   xmlns:sodipodi="http://sodipodi.sourceforge.net/DTD/sodipodi-0.dtd"
   xmlns:inkscape="http://www.inkscape.org/namespaces/inkscape"
   version="1.1"
   id="Layer_1"
   x="0px"
   y="0px"
   viewBox="0 0 1000 193.10001"
   xml:space="preserve"
   sodipodi:docname="labdigital.svg"
   width="1000"
   height="193.10001"
   inkscape:version="0.92.2 2405546, 2018-03-11"><metadata
   id="metadata37"><rdf:RDF><cc:Work
       rdf:about=""><dc:format>image/svg+xml</dc:format><dc:type
         rdf:resource="http://purl.org/dc/dcmitype/StillImage" /><dc:title></dc:title></cc:Work></rdf:RDF></metadata><defs
   id="defs35" /><sodipodi:namedview
   pagecolor="#ffffff"
   bordercolor="#666666"
   borderopacity="1"
   objecttolerance="10"
   gridtolerance="10"
   guidetolerance="10"
   inkscape:pageopacity="0"
   inkscape:pageshadow="2"
   inkscape:window-width="636"
   inkscape:window-height="1041"
   id="namedview33"
   showgrid="false"
   fit-margin-top="0"
   fit-margin-left="0"
   fit-margin-right="0"
   fit-margin-bottom="0"
   inkscape:zoom="0.30729167"
   inkscape:cx="164.81356"
   inkscape:cy="96.4"
   inkscape:window-x="3200"
   inkscape:window-y="18"
   inkscape:window-maximized="0"
   inkscape:current-layer="Layer_1" />
<g
   id="g26"
   transform="translate(-12,-287.3)">
	<path
   d="m 391.9,367.3 c -0.6,-18.1 -14.2,-27 -41.2,-27 -22.5,0 -35.3,8.9 -38.2,27 H 337 c 1.3,-4.6 6.1,-6.8 14.8,-6.8 10.2,0 15.3,2.8 15.9,8.3 0,5.4 -5.4,8.5 -15.9,9.8 -24.7,2.4 -41.7,8.7 -42.3,32.1 0,21.6 16.3,32.5 39.7,30.6 7.8,-0.5 16.3,-3.5 20.5,-7.5 1.7,3 4.9,7.7 9.8,7.7 h 12.4 v -62.5 0 z m -45.8,54.1 c -7.8,0 -11.8,-3.7 -12.4,-11.5 0,-7.2 5,-11.8 14.8,-13.7 7.2,-1.5 13.9,-3.5 19.6,-5.9 v 9 c 0,14 -8.4,22.1 -22,22.1 z"
   id="path2"
   inkscape:connector-curvature="0" />
	<path
   d="m 459.5,340.3 c -12.2,0 -21.4,5 -27.7,15.1 v -29.2 c 0,-8.1 -4.1,-12.4 -12.2,-12.4 h -12.4 v 83.3 c 0,0 0,0 0,0 v 44.3 h 12.4 c 4.8,0 8.2,-4.6 10.2,-7.5 5.1,5.4 14.1,7 23.3,6.9 30.3,-0.6 45.4,-17 45.4,-49.5 0,-33 -13,-50 -39,-51 z m -7.2,79.8 c -14,0 -20.7,-10 -20.5,-29.7 0.7,-18.8 7.6,-28.1 20.9,-28.1 13.3,0 20.1,9.2 20.7,28.1 -0.1,19.7 -7.1,29.7 -21.1,29.7 z"
   id="path4"
   inkscape:connector-curvature="0" />
	<path
   d="m 622.3,326.3 c 0,-6.7 -5.5,-12.4 -12.2,-12.4 h -12.2 v 41.5 c -6.3,-10.2 -15.7,-15.1 -27.9,-15.1 -26,0.9 -39,17.9 -39,51.1 0,32.5 15.1,48.9 45.4,49.5 9.2,0.1 19.9,-2.5 23.4,-7 2,2.9 5.3,7.5 10.2,7.5 h 12.4 v -83.3 l -0.2,0.4 v -32.2 z m -45.4,93.8 c -14,0 -20.7,-10 -20.5,-29.7 0.7,-18.8 7.6,-28.1 20.9,-28.1 13.3,0 20.1,9.2 20.7,28.1 -0.1,19.7 -7.1,29.7 -21.1,29.7 z"
   id="path6"
   inkscape:connector-curvature="0" />
	<path
   d="m 651.6,341.8 h -12.7 v 97.7 h 24.6 v -85.9 c -0.1,-7.9 -4,-11.8 -11.9,-11.8 z"
   id="path8"
   inkscape:connector-curvature="0" />
	<path
   d="m 796.3,341.8 h -12.7 v 97.7 h 24.6 v -85.9 c -0.1,-7.9 -4,-11.8 -11.9,-11.8 z"
   id="path10"
   inkscape:connector-curvature="0" />
	<path
   d="m 848.2,403.4 v -44.1 h 2.6 c 6.8,0 12.2,-5.2 12.2,-12.2 v -5.4 h -14.8 v -15.5 c 0,-6.5 -5.4,-12.4 -11.8,-12.4 H 823.7 V 406 c 0,15.3 -0.2,33.2 19.5,33.2 5.5,0 10.5,0 20,0 0,0 0,-15.2 0,-18.6 -4.2,0 -3.6,0 -5.9,0 -9.7,0.1 -9.1,-7.1 -9.1,-17.2 z"
   id="path12"
   inkscape:connector-curvature="0" />
	<path
   d="m 915.8,340.3 c -22.5,0 -35.3,8.9 -38.2,27 h 24.6 c 1.3,-4.6 6.1,-6.8 14.8,-6.8 10.2,0 15.3,2.8 15.9,8.3 0,5.4 -5.4,8.5 -15.9,9.8 -24.7,2.4 -41.7,8.7 -42.3,32.1 0,21.6 16.2,32.5 39.7,30.6 7.8,-0.5 15.7,-1.8 20.5,-7.5 1.7,3 4.9,7.7 9.8,7.7 H 957 v -41 -21.5 -11.7 c -0.6,-18.1 -14.3,-27 -41.2,-27 z m -4.6,81.1 c -7.8,0 -11.8,-3.7 -12.4,-11.5 0,-7.2 5,-11.8 14.8,-13.7 7.2,-1.5 13.8,-3.5 19.6,-5.9 v 9 c -0.1,14 -8.4,22.1 -22,22.1 z"
   id="path14"
   inkscape:connector-curvature="0" />
	<path
   d="m 744.5,353.6 c -3.6,-8.1 -14.3,-12.2 -23.6,-12.1 -30.3,0.6 -45.4,16.8 -45.4,49.3 0,33.6 12.9,50.6 39,50.6 12.2,0 21.6,-4.8 27.9,-14.4 0,10.2 0,10 0,10 0,15.1 -6.6,22.7 -19.6,22.7 -10.2,0 -15.9,-3.3 -17.5,-10.3 h -27.1 c 5.7,20.7 19.8,31 41.9,31 31.2,-0.6 46.7,-12.9 46.7,-37.5 V 424.8 385 341.4 h -12.4 c -4.6,0.1 -9.9,2.2 -9.9,12.2 z m -23.2,66.1 c -13.3,0 -19.9,-9.4 -20.5,-28.3 0,-19.8 6.8,-29.5 20.9,-29.5 14,0 20.9,9.8 20.7,29.5 -0.8,18.9 -7.8,28.3 -21.1,28.3 z"
   id="path16"
   inkscape:connector-curvature="0" />
	<path
   d="m 651.5,311.5 c -6.8,0 -12.5,5 -12.7,11.2 -0.2,6.2 5.1,11.2 11.9,11.2 6.8,0 12.5,-5 12.7,-11.2 0.2,-6.2 -5.1,-11.2 -11.9,-11.2 z"
   id="path18"
   inkscape:connector-curvature="0" />
	<path
   d="m 796.4,311.5 c -6.8,0 -12.5,5 -12.7,11.2 -0.2,6.2 5.1,11.2 11.9,11.2 6.8,0 12.5,-5 12.7,-11.2 0.2,-6.2 -5.1,-11.2 -11.9,-11.2 z"
   id="path20"
   inkscape:connector-curvature="0" />
	<path
   d="m 1006.1,420.6 c -9.1,0 -9.1,-6.5 -9.1,-15.7 v -5.9 5.9 c 0,-0.5 0,-6.9 0,-7.4 v 0 -71.4 c 0,-6.5 -5.4,-12 -11.8,-12 h -12.7 v -0.1 0.1 0 85 0 10.8 c 0,11.7 -0.2,29.5 19.5,29.5 5.5,0 10.5,0 20,0 0,0 0,-15.2 0,-18.6 -4.2,-0.2 -3.6,-0.2 -5.9,-0.2 z"
   id="path22"
   inkscape:connector-curvature="0" />
	<path
   d="M 285.7,406.1 V 400.2 326 c 0,-6.5 -5.4,-12 -11.8,-12 h -12.7 v 6.1 80.1 5.9 c 0,15.4 -0.2,33.2 19.5,33.2 5.5,0 10.5,0 20,0 0,0 0,-15.2 0,-18.6 -4.2,0 -3.6,0 -5.9,0 -8.8,-0.1 -9.1,-6.1 -9.1,-14.6 z"
   id="path24"
   inkscape:connector-curvature="0" />
</g>
<g
   id="g30"
   transform="translate(-12,-287.3)">
	<path
   d="m 161.8,348.4 c -9.1,0 -17.4,3.4 -23.8,9 -0.8,-0.6 -1.5,-1.3 -2.3,-1.9 -2.8,-2.2 -5.8,-4.6 -8.9,-6.7 -3.1,-2.2 -6.3,-4.3 -9.6,-6.5 -3.3,-2.1 -6.6,-4.2 -9.9,-6.2 -1.6,-1 -3.1,-1.8 -4.7,-2.7 0,-0.3 0,-0.5 0,-0.8 0,-25 -20.3,-45.3 -45.3,-45.3 -25,0 -45.3,20.3 -45.3,45.3 0,20.6 13.7,37.9 32.5,43.4 0.1,0.3 0.1,0.5 0.2,0.8 1.3,4.6 2.7,9.2 4.2,13.6 1.5,4.4 3.3,8.7 5,12.8 1.8,4.1 3.6,8 5.5,11.6 1.2,2.4 2.4,4.6 3.6,6.7 -7.1,4.9 -11.7,13.2 -11.7,22.4 0,15.1 12.3,27.4 27.4,27.4 15.1,0 27.4,-12.3 27.4,-27.4 0,-2.3 -0.3,-4.6 -0.9,-6.8 0,0 0,0 0,0 1.3,-0.6 2.6,-1.2 4,-1.8 1.3,-0.7 2.7,-1.3 4.1,-2 2.8,-1.3 5.6,-2.9 8.5,-4.5 2.8,-1.7 5.7,-3.3 8.5,-5.1 2.8,-1.8 5.7,-3.5 8.4,-5.4 1.7,-1.1 3.3,-2.2 4.9,-3.4 5.3,3.2 11.6,5 18.2,5 19.8,0 35.9,-16.1 35.9,-35.9 0,-19.5 -16.1,-35.6 -35.9,-35.6 z m -36.7,68.2 c -2.5,2 -5,3.9 -7.5,5.8 -2.6,1.8 -5,3.7 -7.6,5.4 -1.2,0.8 -2.5,1.7 -3.7,2.5 -1,0.7 -2,1.3 -3,1.9 -4.4,-9.2 -13.8,-15.5 -24.6,-15.5 -4.2,0 -8.2,1 -11.8,2.7 -2.3,-5.5 -4.6,-11.7 -6.7,-18.4 -2.3,-7.3 -4.5,-15.2 -6.1,-23.2 1.1,0.1 2.1,0.2 3.2,0.2 20.1,0 37.2,-13.1 43.1,-31.3 0.5,0.2 1,0.4 1.5,0.6 3.4,1.2 6.8,2.7 10.2,4.3 3.3,1.6 6.6,3.3 9.9,5.1 3.2,1.8 6.4,3.5 9.4,5.3 0.6,0.3 1.1,0.7 1.7,1 -4.4,6 -7.1,13.4 -7.1,21.4 0,9 3.3,17.2 8.8,23.5 -0.9,0.8 -1.7,1.7 -2.6,2.5 -2.3,2.1 -4.7,4.2 -7.1,6.2 z"
   id="path28"
   inkscape:connector-curvature="0" />
</g>
</svg>