<?xml version="1.0" encoding="UTF-8" standalone="no"?>
<!-- Created with Inkscape (http://www.inkscape.org/) -->

<svg
   xmlns:dc="http://purl.org/dc/elements/1.1/"
   xmlns:cc="http://creativecommons.org/ns#"
   xmlns:rdf="http://www.w3.org/1999/02/22-rdf-syntax-ns#"
   xmlns:svg="http://www.w3.org/2000/svg"
   xmlns="http://www.w3.org/2000/svg"
   xmlns:sodipodi="http://sodipodi.sourceforge.net/DTD/sodipodi-0.dtd"
   xmlns:inkscape="http://www.inkscape.org/namespaces/inkscape"
   version="1.1"
   id="svg2"
   xml:space="preserve"
   width="473.54666"
   height="135.52"
   viewBox="0 0 473.54666 135.52"
   sodipodi:docname="nexmo.svg"
   inkscape:version="0.92.2 2405546, 2018-03-11"><metadata
     id="metadata8"><rdf:RDF><cc:Work
         rdf:about=""><dc:format>image/svg+xml</dc:format><dc:type
           rdf:resource="http://purl.org/dc/dcmitype/StillImage" /><dc:title></dc:title></cc:Work></rdf:RDF></metadata><defs
     id="defs6" /><sodipodi:namedview
     pagecolor="#ffffff"
     bordercolor="#666666"
     borderopacity="1"
     objecttolerance="10"
     gridtolerance="10"
     guidetolerance="10"
     inkscape:pageopacity="0"
     inkscape:pageshadow="2"
     inkscape:window-width="636"
     inkscape:window-height="1041"
     id="namedview4"
     showgrid="false"
     inkscape:zoom="0.90804146"
     inkscape:cx="123.34239"
     inkscape:cy="67.760002"
     inkscape:window-x="3200"
     inkscape:window-y="18"
     inkscape:window-maximized="0"
     inkscape:current-layer="g10" /><g
     id="g10"
     inkscape:groupmode="layer"
     inkscape:label="ink_ext_XXXXXX"
     transform="matrix(1.3333333,0,0,-1.3333333,0,135.52)"><g
       id="g12"
       transform="scale(0.1)"><path
         d="M 16.9609,1001.66 H 127.367 v -89.547 h 2.449 c 28.215,61.34 101.817,104.277 191.364,104.277 112.859,0 210.996,-67.468 210.996,-222.038 V 420.211 H 421.773 v 343.477 c 0,109.175 -62.562,149.652 -132.488,149.652 -91.996,0 -161.918,-58.879 -161.918,-193.813 V 420.211 H 16.9609 v 581.449"
         style="fill:#444142;fill-opacity:1;fill-rule:nonzero;stroke:none"
         id="path14"
         inkscape:connector-curvature="0" /><path
         d="m 1050.57,758.785 c -2.45,96.903 -56.425,169.281 -168.054,169.281 -109.172,0 -180.325,-92.007 -180.325,-169.281 z M 702.191,670.453 c 0,-101.816 94.454,-169.285 196.274,-169.285 67.465,0 116.535,34.355 159.475,87.098 l 83.41,-63.782 c -61.34,-79.73 -145.975,-118.992 -257.608,-118.992 -184.008,0 -299.316,132.481 -299.316,305.449 0,174.192 126.351,305.449 300.543,305.449 204.861,0 283.371,-157.019 283.371,-306.683 V 670.453 H 702.191"
         style="fill:#444142;fill-opacity:1;fill-rule:nonzero;stroke:none"
         id="path16"
         inkscape:connector-curvature="0" /><path
         d="m 1380.06,730.566 -206.08,271.094 h 142.29 l 141.07,-206.082 138.62,206.082 h 133.71 L 1530.94,730.566 1766.47,420.211 h -142.3 L 1452.43,664.32 1280.7,420.211 h -136.17 l 235.53,310.355"
         style="fill:#444142;fill-opacity:1;fill-rule:nonzero;stroke:none"
         id="path18"
         inkscape:connector-curvature="0" /><path
         d="m 1795.89,1001.66 h 103.04 v -90.769 h 2.45 c 11.05,34.347 82.19,105.499 186.46,105.499 85.87,0 144.76,-36.804 181.56,-107.952 38.03,71.148 114.07,107.952 184.01,107.952 179.09,0 220.8,-127.577 220.8,-257.605 V 420.211 h -110.4 v 323.848 c 0,88.324 -18.4,169.281 -125.13,169.281 -106.72,0 -148.43,-72.371 -148.43,-175.418 V 420.211 h -110.41 v 304.223 c 0,110.402 -15.94,188.906 -122.66,188.906 -79.74,0 -150.88,-60.106 -150.88,-191.356 V 420.211 h -110.41 v 581.449"
         style="fill:#444142;fill-opacity:1;fill-rule:nonzero;stroke:none"
         id="path20"
         inkscape:connector-curvature="0" /><path
         d="m 3131.57,717.539 c 0,-39.129 -31.72,-70.855 -70.85,-70.855 -39.14,0 -70.86,31.726 -70.86,70.855 0,39.137 31.72,70.859 70.86,70.859 39.13,0 70.85,-31.722 70.85,-70.859"
         style="fill:#3b70c0;fill-opacity:1;fill-rule:nonzero;stroke:none"
         id="path22"
         inkscape:connector-curvature="0" /><path
         d="m 3058.17,913.293 c 99.47,0 181.99,-71.66 199.31,-166.125 h -38.94 l 94.74,-93.145 95.01,93.145 h -47.5 c -18.16,151.07 -146.65,268.202 -302.62,268.202 -126.48,0 -234.98,-77.026 -281.15,-186.725 l 95.14,-37.258 c 31.27,71.738 102.76,121.906 186.01,121.906"
         style="fill:#444142;fill-opacity:1;fill-rule:nonzero;stroke:none"
         id="path24"
         inkscape:connector-curvature="0" /><path
         d="m 3058.17,507.57 c -97.58,0 -178.84,68.973 -198.24,160.77 h 42.96 l -94.73,93.148 -95.02,-93.148 h 43.09 c 20.52,-148.477 147.83,-262.848 301.94,-262.848 126.18,0 234.45,76.645 280.82,185.906 l -95.16,37.266 C 3212.38,557.363 3141.11,507.57 3058.17,507.57"
         style="fill:#444142;fill-opacity:1;fill-rule:nonzero;stroke:none"
         id="path26"
         inkscape:connector-curvature="0" /><path
         d="m 3468.11,944.574 h 12.58 c 11.22,0 15.42,5.836 15.42,12.84 0,7.703 -5.38,12.832 -14.48,12.832 h -13.52 z m 23.8,-9.804 20.29,-29.161 h -14.22 l -18.9,28 h -10.97 v -28 h -11.9 v 75.602 h 27.29 c 17.51,0 25.19,-10.258 25.19,-24.027 0,-12.379 -6.51,-19.61 -16.78,-22.414 z m 45.97,8.183 c 0,31.715 -24.74,57.867 -56.95,57.867 -32.65,0 -57.62,-26.375 -57.62,-58.113 0,-31.484 24.97,-57.867 57.38,-57.867 32.22,0 57.19,26.605 57.19,58.113 z m 13.77,0 c 0,-38.504 -31.28,-71.402 -70.96,-71.402 -39.67,0 -70.93,32.418 -70.93,71.402 0,38.719 31.26,71.617 71.17,71.617 39.66,0 70.72,-32.652 70.72,-71.617"
         style="fill:#444142;fill-opacity:1;fill-rule:nonzero;stroke:none"
         id="path28"
         inkscape:connector-curvature="0" /><path
         d="M 83.5234,198.199 H -0.00390625 v 18.555 H 187.977 v -18.555 h -83.52 V 43.7734 H 83.5234 V 198.199"
         style="fill:#444142;fill-opacity:1;fill-rule:nonzero;stroke:none"
         id="path30"
         inkscape:connector-curvature="0" /><path
         d="m 210.75,216.754 h 19.266 v -66.621 c 13.093,11.426 30.226,21.883 52.355,21.883 15.469,0 51.395,-3.563 51.395,-46.153 V 43.7734 h -19.278 v 78.2816 c 0.481,29.511 -20.937,33.554 -34.496,33.554 -21.179,0 -38.781,-13.086 -49.976,-24.988 V 43.7734 H 210.75 V 216.754"
         style="fill:#444142;fill-opacity:1;fill-rule:nonzero;stroke:none"
         id="path32"
         inkscape:connector-curvature="0" /><path
         d="m 475.051,118.48 c -3.809,20.469 -21.414,37.129 -50.922,37.129 -28.316,0 -44.258,-14.285 -49.731,-37.129 z M 492.414,69.7031 C 479.574,56.1367 467.195,39.9688 424.84,39.9688 c -41.875,0 -70.43,28.5507 -70.43,66.6292 0,39.48 29.742,65.418 68.055,65.418 39.734,0 74.473,-20.692 73.523,-69.942 h -122.3 c 1.906,-23.3279 20.699,-45.6834 53.058,-45.6834 32.117,0 42.828,14.5117 50.684,24.2578 l 14.984,-10.9453"
         style="fill:#444142;fill-opacity:1;fill-rule:nonzero;stroke:none"
         id="path34"
         inkscape:connector-curvature="0" /><path
         d="m 585.844,216.754 h 36.164 L 686.965,78.7461 753.113,216.754 h 36.172 L 704.574,43.7734 H 669.359 L 585.844,216.754"
         style="fill:#f47216;fill-opacity:1;fill-rule:nonzero;stroke:none"
         id="path36"
         inkscape:connector-curvature="0" /><path
         d="m 883.211,108.258 c 0,29.98 -19.273,42.344 -41.641,42.344 -22.601,0 -41.64,-12.364 -41.64,-42.344 0,-27.1291 15.23,-43.5549 41.64,-43.5549 26.414,0 41.641,16.4258 41.641,43.5549 z m -113.262,-0.481 c 0,34.258 20.699,68.047 71.621,68.047 50.918,0 71.621,-33.789 71.621,-68.047 0,-50.9176 -36.644,-68.2887 -71.621,-68.2887 -34.98,0 -71.621,17.3711 -71.621,68.2887"
         style="fill:#f47216;fill-opacity:1;fill-rule:nonzero;stroke:none"
         id="path38"
         inkscape:connector-curvature="0" /><path
         d="m 927.172,171.551 h 29.027 v -15.942 c 9.281,9.043 21.895,20.215 47.831,20.215 26.65,0 49.96,-11.172 49.96,-50.203 V 43.7734 h -29.5 v 70.9026 c 0,25.222 -7.62,35.926 -27.361,35.926 -23.559,0 -33.078,-9.758 -40.457,-18.789 V 43.7734 h -29.5 V 171.551"
         style="fill:#f47216;fill-opacity:1;fill-rule:nonzero;stroke:none"
         id="path40"
         inkscape:connector-curvature="0" /><path
         d="m 1178.15,108.258 c -17.14,-0.711 -32.13,-3.098 -45.93,-6.438 -18.32,-4.2653 -26.89,-10.4567 -27.12,-21.6403 -0.24,-10.957 6.89,-17.8516 21.41,-17.8516 22.37,0 40.22,9.7578 51.64,16.6524 z m 29.5,-43.7892 c 0,-8.5665 0.48,-17.129 2.38,-20.6954 h -30.22 c -0.95,4.2891 -1.66,8.5547 -1.66,12.8555 -12.38,-7.1523 -30.7,-17.1406 -55.92,-17.1406 -16.9,0 -49.49,7.1406 -49.49,38.543 0,43.0777 64.24,49.2617 105.41,51.6447 v 5.703 c 0,9.754 -8.81,16.656 -33.08,16.656 -27.12,0 -32.84,-10 -34.5,-16.894 h -30.69 c 7.13,34.746 41.16,40.683 64.95,40.683 61.63,0 62.82,-29.98 62.82,-47.586 V 64.4688"
         style="fill:#f47216;fill-opacity:1;fill-rule:nonzero;stroke:none"
         id="path42"
         inkscape:connector-curvature="0" /><path
         d="m 1334.42,129.195 c 0,19.032 -19.52,24.746 -35.22,24.746 -16.18,0 -34.27,-5.714 -34.27,-24.98 0,-19.992 18.32,-24.992 34.03,-24.992 15.71,0 35.46,6.418 35.46,25.226 z m -56.87,-87.0895 c -6.9,0 -16.9,-1.9063 -16.9,-9.2774 0,-10.4687 13.81,-11.6601 37.12,-11.6601 23.08,0 47.83,2.6172 47.83,12.8437 0,8.8047 -5.24,8.3281 -37.83,8.0938 z m 100.17,108.7495 c -2.62,0.711 -7.38,2.372 -10.71,1.895 -3.33,0 -7.61,-1.426 -9.52,-2.383 1.91,-2.605 5.95,-10.226 5.95,-21.172 0,-34.7341 -30.93,-47.1208 -64.72,-47.1208 -11.89,0 -21.17,1.9141 -26.89,4.0547 -3.33,-2.1406 -8.08,-5.7109 -8.08,-10.2344 0,-4.5234 2.85,-7.6172 28.55,-7.375 h 40.21 c 28.79,-0.957 45.45,-9.2851 45.45,-29.2656 C 1377.96,8.78906 1333.46,0 1294.92,0 c -35.69,0 -66.63,7.12109 -66.63,28.3047 0,15.2383 13.56,17.375 25.7,19.7578 v 0.4688 c -10.94,0.9453 -19.27,6.8945 -19.27,19.746 0,12.8516 12.13,22.6094 22.36,24.0313 v 0.4687 c -14.27,7.8637 -21.17,20.4687 -21.17,36.6607 0,37.589 34.5,46.386 65.91,46.386 22.37,0 35.45,-5.703 44.25,-11.656 4.52,4.754 14.04,13.797 26.89,13.797 h 4.76 v -27.11"
         style="fill:#f47216;fill-opacity:1;fill-rule:nonzero;stroke:none"
         id="path44"
         inkscape:connector-curvature="0" /><path
         d="m 1501.39,122.293 c -4.51,21.656 -19.27,29.742 -40.45,29.742 -15.46,0 -33.31,-5.242 -39.26,-29.742 z m 29.04,-40.2188 c -2.15,-10.457 -19.28,-42.5859 -66.63,-42.5859 -45.68,0 -73.05,28.5547 -73.05,68.5237 0,36.172 23.79,67.812 70.91,67.812 48.06,-0.469 71.15,-30.215 71.15,-76.3748 h -112.07 c 1.18,-8.0859 5.7,-34.7461 42.1,-36.164 18.57,0 30.94,8.8007 35.22,18.789 h 32.37"
         style="fill:#f47216;fill-opacity:1;fill-rule:nonzero;stroke:none"
         id="path46"
         inkscape:connector-curvature="0" /><path
         d="m 1560.5,163.57 h 9.15 c 5.54,0 9.98,0.645 9.98,6.746 0,5.918 -4.9,6.567 -9.98,6.567 h -9.15 z m 7.66,-4.992 h -7.66 v -18.672 h -5.55 v 41.965 h 16.63 c 9.43,0 13.59,-4.062 13.59,-11.641 0,-7.304 -4.89,-10.722 -10.53,-11.652 l 12.66,-18.672 h -6.84 z m 0.38,-27.449 c 16.45,0 29.76,13.223 29.76,29.668 0,16.457 -13.31,29.766 -29.76,29.766 -16.46,0 -29.68,-13.309 -29.68,-29.766 0,-16.445 13.22,-29.668 29.68,-29.668 z m 0,64.988 c 19.49,0 35.31,-15.722 35.31,-35.222 0,-19.512 -15.82,-35.313 -35.31,-35.313 -19.5,0 -35.22,15.801 -35.22,35.313 0,19.5 15.72,35.222 35.22,35.222"
         style="fill:#f47216;fill-opacity:1;fill-rule:nonzero;stroke:none"
         id="path48"
         inkscape:connector-curvature="0" /><path
         d="m 1815.11,107.254 -46.37,92.957 -46.36,-92.957 z m -59.21,109.375 h 25.67 l 88.69,-172.8556 h -23.53 l -22.36,44.9336 h -111.5 l -22.59,-44.9336 h -23.3 l 88.92,172.8556"
         style="fill:#444142;fill-opacity:1;fill-rule:nonzero;stroke:none"
         id="path50"
         inkscape:connector-curvature="0" /><path
         d="m 1917.78,136.02 h 74.88 c 34.71,0 52.31,7.367 52.31,30.91 0,23.769 -17.6,31.152 -52.31,31.152 h -74.88 z m -20.94,80.609 h 101.29 c 34.95,0 66.81,-9.992 66.81,-49.465 0,-39.695 -31.86,-49.687 -66.81,-49.687 h -80.35 V 43.7734 h -20.94 V 216.629"
         style="fill:#444142;fill-opacity:1;fill-rule:nonzero;stroke:none"
         id="path52"
         inkscape:connector-curvature="0" /><path
         d="m 2094.63,216.629 h 20.91 V 43.7734 h -20.91 V 216.629"
         style="fill:#444142;fill-opacity:1;fill-rule:nonzero;stroke:none"
         id="path54"
         inkscape:connector-curvature="0" /><path
         d="m 2267.45,136.02 h 74.89 c 34.72,0 52.31,7.367 52.31,30.91 0,23.769 -17.59,31.152 -52.31,31.152 h -74.89 z m -20.93,80.609 h 101.3 c 34.94,0 66.81,-9.992 66.81,-49.465 0,-39.695 -31.87,-49.687 -66.81,-49.687 h -80.37 V 43.7734 h -20.93 V 216.629"
         style="fill:#444142;fill-opacity:1;fill-rule:nonzero;stroke:none"
         id="path56"
         inkscape:connector-curvature="0" /><path
         d="m 2438.59,216.629 h 19.26 V 43.7734 h -19.26 V 216.629"
         style="fill:#444142;fill-opacity:1;fill-rule:nonzero;stroke:none"
         id="path58"
         inkscape:connector-curvature="0" /><path
         d="m 2595.28,112.484 c -56.59,-5.468 -94.64,-10.703 -94.64,-34.7145 0,-19.4922 21.88,-22.1093 31.39,-22.1093 26.86,0 50.88,12.8437 63.25,19.4921 z m 19.26,-49.4527 c 0,-7.3711 0.95,-12.6055 2.13,-19.2579 h -19.26 c -0.95,3.8008 -2.38,9.9844 -2.38,14.9844 -18.06,-11.664 -38.28,-18.789 -62.04,-18.789 -20.46,0 -50.65,5.7031 -50.65,37.8007 0,43.0355 64.43,44.6995 112.94,50.4025 v 4.754 c 0,16.883 -20.22,23.301 -39.95,23.301 -33.06,0 -44.7,-13.789 -50.88,-20.918 l -14.51,9.992 c 7.14,8.797 20.69,26.621 63.96,26.621 28.3,0 60.64,-8.313 60.64,-40.18 V 63.0313"
         style="fill:#444142;fill-opacity:1;fill-rule:nonzero;stroke:none"
         id="path60"
         inkscape:connector-curvature="0" /><path
         d="m 2731.23,151.715 h -49.45 V 76.5898 c 0,-13.5585 5.94,-20.2187 25.43,-20.2187 9.28,0 16.89,1.6719 27.35,3.8008 V 43.543 c -13.79,-2.1524 -23.54,-3.5742 -31.38,-3.5742 -40.65,0 -40.65,24.7226 -40.65,34.7148 v 77.0314 h -26.39 v 16.406 h 26.39 v 41.367 h 19.25 v -41.367 h 49.45 v -16.406"
         style="fill:#444142;fill-opacity:1;fill-rule:nonzero;stroke:none"
         id="path62"
         inkscape:connector-curvature="0" /><path
         d="m 2780.43,149.105 h -31.38 v 16.399 h 31.38 v 9.512 c 0,20.437 6.42,45.886 44.23,45.886 19.73,0 27.33,-2.136 32.34,-3.328 v -17.109 c -8.56,2.129 -16.88,4.031 -26.64,4.031 -26.63,0 -30.67,-12.598 -30.67,-30.906 v -8.086 h 51.12 v -16.399 h -51.12 V 43.7734 h -19.26 V 149.105"
         style="fill:#444142;fill-opacity:1;fill-rule:nonzero;stroke:none"
         id="path64"
         inkscape:connector-curvature="0" /><path
         d="m 2984.65,105.824 c 0,22.59 -14.74,49.699 -52.31,49.699 -37.57,0 -52.54,-27.109 -52.54,-49.699 0,-29.7263 19.96,-49.4529 52.54,-49.4529 32.58,0 52.31,19.7266 52.31,49.4529 z m -124.11,2.375 c 0,35.438 28.06,63.723 71.8,63.723 43.75,0 71.57,-28.285 71.57,-63.723 0,-43.9763 -29.24,-68.2302 -71.57,-68.2302 -42.32,0 -71.8,24.2539 -71.8,68.2302"
         style="fill:#444142;fill-opacity:1;fill-rule:nonzero;stroke:none"
         id="path66"
         inkscape:connector-curvature="0" /><path
         d="m 3029.31,168.121 h 19.26 v -25.918 c 11.17,12.606 26.87,29.719 51.84,29.719 4.27,0 7.84,-0.238 11.4,-0.949 v -19.258 c -2.38,0.234 -7.13,1.672 -15.44,1.672 -27.35,0 -47.09,-31.633 -47.8,-35.199 V 43.7734 h -19.26 V 168.121"
         style="fill:#444142;fill-opacity:1;fill-rule:nonzero;stroke:none"
         id="path68"
         inkscape:connector-curvature="0" /><path
         d="m 3133.9,168.121 h 18.55 v -17.355 c 14.27,12.129 29,21.156 49.46,21.156 27.1,0 34.47,-13.07 39.46,-22.113 19.51,16.41 32.35,22.113 50.65,22.113 11.42,0 45.64,-2.375 45.64,-38.285 V 43.7734 h -19.25 v 82.7386 c 0,7.617 0,29.011 -27.35,29.011 -21.63,0 -37.57,-14.265 -45.64,-21.886 V 43.7734 h -19.26 v 82.7386 c 0,7.617 0,29.011 -26.87,29.011 -22.11,0 -38.04,-14.265 -46.13,-21.886 V 43.7734 H 3133.9 V 168.121"
         style="fill:#444142;fill-opacity:1;fill-rule:nonzero;stroke:none"
         id="path70"
         inkscape:connector-curvature="0" /></g></g></svg>