<?xml version="1.0" encoding="UTF-8" standalone="no"?>
<svg
   xmlns:dc="http://purl.org/dc/elements/1.1/"
   xmlns:cc="http://creativecommons.org/ns#"
   xmlns:rdf="http://www.w3.org/1999/02/22-rdf-syntax-ns#"
   xmlns:svg="http://www.w3.org/2000/svg"
   xmlns="http://www.w3.org/2000/svg"
   viewBox="0 0 660.35999 104.76"
   height="104.76"
   width="660.35999"
   xml:space="preserve"
   id="svg2"
   version="1.1"><metadata
     id="metadata8"><rdf:RDF><cc:Work
         rdf:about=""><dc:format>image/svg+xml</dc:format><dc:type
           rdf:resource="http://purl.org/dc/dcmitype/StillImage" /><dc:title></dc:title></cc:Work></rdf:RDF></metadata><defs
     id="defs6" /><g
     transform="matrix(1.3333333,0,0,-1.3333333,0,104.76)"
     id="g10"><g
       transform="scale(0.1)"
       id="g12"><path
         id="path14"
         style="fill:#00adef;fill-opacity:1;fill-rule:nonzero;stroke:none"
         d="m 196.41,419.246 h 132.004 c 61.25,0 105.594,25.344 105.594,93.992 0,70.746 -45.403,99.258 -105.594,99.258 H 196.41 Z M 0,769.844 h 357.98 c 140.442,0 272.442,-64.418 272.442,-242.879 0,-186.934 -106.652,-259.797 -272.442,-259.797 H 196.41 V 15.8438 H 0 V 769.844" /><path
         id="path16"
         style="fill:#00adef;fill-opacity:1;fill-rule:nonzero;stroke:none"
         d="m 930.355,442.477 h 164.735 c 59.13,0 90.81,31.687 90.81,88.699 0,55.976 -44.35,81.32 -99.26,81.32 H 930.355 Z m -196.41,327.367 h 384.385 c 133.05,0 263.98,-60.196 263.98,-212.262 0,-81.312 -39.06,-158.398 -118.27,-189.023 v -2.114 c 80.26,-19.019 103.49,-108.769 109.83,-180.582 2.11,-31.691 5.28,-142.5505 31.68,-170.0192 h -194.3 c -16.9,25.3515 -20.06,99.2772 -22.18,120.3862 -5.28,76.028 -17.95,154.192 -109.82,154.192 H 930.355 V 15.8438 H 733.945 V 769.844" /><path
         id="path18"
         style="fill:#00adef;fill-opacity:1;fill-rule:nonzero;stroke:none"
         d="m 1850.14,168.977 c 126.72,0 175.29,111.921 175.29,223.871 0,111.933 -48.57,223.875 -175.29,223.875 -126.73,0 -175.3,-111.942 -175.3,-223.875 0,-111.95 48.57,-223.871 175.3,-223.871 z m 0,616.703 c 237.59,0 371.71,-174.239 371.71,-392.832 C 2221.85,174.258 2087.73,0 1850.14,0 c -237.6,0 -371.71,174.258 -371.71,392.848 0,218.593 134.11,392.832 371.71,392.832" /><path
         id="path20"
         style="fill:#102e57;fill-opacity:1;fill-rule:nonzero;stroke:none"
         d="M 2990.63,327.371 C 2990.63,108.773 2890.31,0 2662.23,0 2434.12,0 2333.81,108.773 2333.81,327.371 v 442.473 h 196.41 V 315.746 c 0,-97.141 35.91,-146.769 132.01,-146.769 96.08,0 131.99,49.628 131.99,146.769 v 454.098 h 196.41 V 327.371" /><path
         id="path22"
         style="fill:#102e57;fill-opacity:1;fill-rule:nonzero;stroke:none"
         d="m 3130.05,769.844 h 201.7 l 261.88,-464.645 h 2.11 v 464.645 h 184.8 V 15.8438 h -201.69 l -261.9,469.9332 h -2.11 V 15.8438 H 3130.05 V 769.844" /><path
         id="path24"
         style="fill:#102e57;fill-opacity:1;fill-rule:nonzero;stroke:none"
         d="m 3925.24,769.844 h 196.42 V 15.8438 H 3925.24 V 769.844" /><path
         id="path26"
         style="fill:#102e57;fill-opacity:1;fill-rule:nonzero;stroke:none"
         d="M 4460.63,411.859 4214.6,769.844 h 231.25 l 126.7,-234.434 134.13,234.434 h 223.85 L 4686.61,411.859 4952.72,15.8438 H 4714.06 L 4572.55,267.168 4418.39,15.8438 H 4192.4 l 268.23,396.0152" /></g></g></svg>