<?xml version="1.0" encoding="UTF-8" standalone="no"?>
<!-- Generator: Adobe Illustrator 15.0.2, SVG Export Plug-In . SVG Version: 6.00 Build 0)  -->

<svg
   xmlns:dc="http://purl.org/dc/elements/1.1/"
   xmlns:cc="http://creativecommons.org/ns#"
   xmlns:rdf="http://www.w3.org/1999/02/22-rdf-syntax-ns#"
   xmlns:svg="http://www.w3.org/2000/svg"
   xmlns="http://www.w3.org/2000/svg"
   xmlns:xlink="http://www.w3.org/1999/xlink"
   xmlns:sodipodi="http://sodipodi.sourceforge.net/DTD/sodipodi-0.dtd"
   xmlns:inkscape="http://www.inkscape.org/namespaces/inkscape"
   version="1.1"
   id="Ebene_1"
   x="0px"
   y="0px"
   width="342.991211px"
   height="170.077148px"
   viewBox="0 0 342.991211 170.077148"
   style="enable-background:new 0 0 342.991211 170.077148;"
   xml:space="preserve"
   sodipodi:docname="pysv.svg"><metadata
   id="metadata1924"><rdf:RDF><cc:Work
       rdf:about=""><dc:format>image/svg+xml</dc:format><dc:type
         rdf:resource="http://purl.org/dc/dcmitype/StillImage" /></cc:Work></rdf:RDF></metadata><defs
   id="defs1922">
	
	
	
	
	
	
	
	
	
	

		
		
	
		<defs
   id="defs1895">
			<path
   id="SVGID_6_"
   d="m 68.599121,27.006348 c -12.67334,2.212891 -14.964355,6.87793 -14.964355,15.437988 V 53.736328 H 83.583985 V 57.52539 H 53.634766 42.39502 c -8.708984,0 -16.325195,5.19873 -18.710938,15.053711 -2.745117,11.306152 -2.873047,18.338867 0,30.135739 2.14502,8.78321 7.207031,15.05762 15.906738,15.05762 h 10.299316 v -13.55469 c 0,-9.791014 8.564941,-18.456541 18.708984,-18.456541 h 29.950684 c 8.321286,0 14.970216,-6.770996 14.970216,-15.071289 V 42.444336 c 0,-8.046387 -6.85596,-14.114258 -14.970216,-15.437988 -4.984863,-0.825195 -10.147949,-1.203125 -15.12793,-1.203125 -5.295897,0 -10.382812,0.427734 -14.822753,1.203125"
   inkscape:connector-curvature="0" />
		</defs>
		<clipPath
   id="SVGID_7_">
			<use
   xlink:href="#SVGID_6_"
   style="overflow:visible"
   id="use1897"
   x="0"
   y="0"
   width="100%"
   height="100%" />
		</clipPath>
		
			<linearGradient
   id="SVGID_8_"
   gradientUnits="userSpaceOnUse"
   x1="-0.001465"
   y1="170.08301"
   x2="0.99853498"
   y2="170.08301"
   gradientTransform="matrix(-91.804695,-0.7299,-0.7299,91.804695,237.51431,-15542.179)">
			<stop
   offset="0"
   style="stop-color:#39699A"
   id="stop1900" />
			<stop
   offset="1"
   style="stop-color:#3877B4"
   id="stop1902" />
		</linearGradient>
		
	
		<defs
   id="defs1885">
			<rect
   id="SVGID_4_"
   width="342.99121"
   height="170.07715"
   x="0"
   y="0" />
		</defs>
		<clipPath
   id="SVGID_5_">
			<use
   xlink:href="#SVGID_4_"
   style="overflow:visible"
   id="use1887"
   x="0"
   y="0"
   width="100%"
   height="100%" />
		</clipPath>
		
	
		<defs
   id="defs1870">
			<path
   id="SVGID_1_"
   d="m 117.04785,57.525391 v 13.164551 c 0,10.213379 -8.74707,18.840332 -18.717771,18.840332 H 68.395996 c -8.187012,0 -14.961914,6.936523 -14.961914,15.080076 v 28.24805 c 0,8.0293 7.049805,12.74414 14.961914,15.04883 9.478027,2.75976 18.581055,3.25781 29.934082,0 7.536132,-2.16114 14.969732,-6.48242 14.969732,-15.04883 v -11.30762 h -29.9419 v -3.77832 h 29.9419 14.97607 c 8.70312,0 11.95019,-6.02734 14.9751,-15.05761 3.1289,-9.304693 2.99609,-18.213872 0,-30.135747 C 141.10596,63.979004 137,57.525391 128.27588,57.525391 Z"
   inkscape:connector-curvature="0" />
		</defs>
		
		
			<linearGradient
   id="SVGID_3_"
   gradientUnits="userSpaceOnUse"
   x1="0.001953"
   y1="170.0752"
   x2="1.001951"
   y2="170.0752"
   gradientTransform="matrix(-181.97389,0,0,-181.97389,145.75,31053.43)">
			<stop
   offset="0"
   style="stop-color:#F9B000"
   id="stop1875" />
			<stop
   offset="1"
   style="stop-color:#FFE873"
   id="stop1877" />
		</linearGradient>
		
	
		
		
		
		
	
		
		
		
		
		
		
		
	
		
		
		
		
		
		
		
		
	
		
		
		
		
		
		
	</defs><sodipodi:namedview
   pagecolor="#ffffff"
   bordercolor="#666666"
   borderopacity="1"
   objecttolerance="10"
   gridtolerance="10"
   guidetolerance="10"
   inkscape:pageopacity="0"
   inkscape:pageshadow="2"
   inkscape:window-width="640"
   inkscape:window-height="480"
   id="namedview1920"
   showgrid="false" />
<path
   style="fill:#666568"
   d="m 168.44922,26.182129 c 3.82617,0 6.75977,0.697266 8.7998,2.090332 2.04004,1.394043 3.06055,3.573242 3.06055,6.538574 0,1.545898 -0.27246,2.869629 -0.81738,3.972168 -0.54492,1.102539 -1.33692,2.002441 -2.37598,2.69873 -1.03906,0.697754 -2.30664,1.210449 -3.80078,1.539551 -1.49609,0.330078 -3.20654,0.494141 -5.13232,0.494141 h -2.39454 v 9.275391 h -4.78955 V 26.828125 c 1.11475,-0.25293 2.3501,-0.423828 3.70606,-0.513184 1.35547,-0.08838 2.604,-0.132812 3.74414,-0.132812 z m 0.34228,4.143066 c -1.21631,0 -2.21777,0.03809 -3.00293,0.114258 v 8.971191 h 2.31885 c 2.30567,0 4.08008,-0.323242 5.32129,-0.969727 1.24219,-0.645996 1.86328,-1.868164 1.86328,-3.667969 0,-0.861328 -0.16504,-1.583496 -0.49414,-2.166992 -0.33008,-0.58252 -0.78613,-1.038574 -1.36914,-1.368164 -0.58301,-0.329102 -1.27344,-0.563965 -2.07129,-0.703613 -0.79834,-0.138671 -1.65381,-0.208984 -2.56592,-0.208984 z"
   id="path1809"
   inkscape:connector-curvature="0" /><path
   style="fill:#666568"
   d="m 201.02539,32.910156 c -2.04883,7.552246 -4.42676,14.394531 -7.13281,20.526855 -0.50781,1.140625 -1.02734,2.115723 -1.56055,2.927246 -0.5332,0.810547 -1.1289,1.482422 -1.78808,2.014648 -0.66016,0.532227 -1.39649,0.918457 -2.20704,1.15918 -0.8125,0.240723 -1.75097,0.361328 -2.8164,0.361328 -0.70996,0 -1.41504,-0.07617 -2.11231,-0.228027 -0.69726,-0.151855 -1.22363,-0.317383 -1.5791,-0.494141 l 0.83594,-3.6875 c 0.91699,0.35498 1.82129,0.532227 2.71191,0.532227 1.19629,0 2.13184,-0.285156 2.80665,-0.85498 0.6748,-0.570312 1.26562,-1.451172 1.77539,-2.64209 -1.45118,-2.787598 -2.84375,-5.828613 -4.18067,-9.123047 -1.33594,-3.293945 -2.52636,-6.791504 -3.56933,-10.491699 h 4.90429 c 0.25391,1.064453 0.56543,2.217773 0.93457,3.459473 0.36914,1.2417 0.76953,2.50293 1.20215,3.782227 0.43262,1.279785 0.88965,2.553223 1.37305,3.820312 0.4834,1.267089 0.9668,2.445801 1.45019,3.535156 0.80762,-2.255371 1.56446,-4.656738 2.27149,-7.203613 0.70605,-2.546875 1.34863,-5.01123 1.92969,-7.393555 z"
   id="path1811"
   inkscape:connector-curvature="0" /><path
   style="fill:#666568"
   d="m 204.29492,27.664551 4.59961,-0.760254 v 6.005859 h 7.07031 v 3.839355 h -7.07031 v 8.09668 c 0,1.59668 0.25293,2.736816 0.75977,3.421387 0.50683,0.684082 1.36816,1.026367 2.58496,1.026367 0.83594,0 1.57715,-0.08887 2.22363,-0.266113 0.64649,-0.177246 1.15918,-0.342285 1.54004,-0.494141 l 0.75977,3.648926 c -0.53223,0.228027 -1.2295,0.462891 -2.09082,0.703613 -0.86133,0.240234 -1.875,0.36084 -3.04102,0.36084 -1.41895,0 -2.60352,-0.189941 -3.55371,-0.570312 -0.9502,-0.379883 -1.70508,-0.931152 -2.26172,-1.65332 -0.55762,-0.722168 -0.95019,-1.59668 -1.17871,-2.623047 -0.22852,-1.026367 -0.3418,-2.198242 -0.3418,-3.516113 z"
   id="path1813"
   inkscape:connector-curvature="0" /><path
   style="fill:#666568"
   d="M 220.41211,52.791016 V 24.053223 l 4.59961,-0.760254 v 9.845215 c 0.50683,-0.176758 1.0957,-0.329102 1.76758,-0.456055 0.67187,-0.126465 1.33691,-0.189941 1.99609,-0.189941 1.59668,0 2.91992,0.222168 3.97266,0.665039 1.05078,0.443848 1.89355,1.064453 2.52734,1.862793 0.63281,0.79834 1.08301,1.754883 1.34961,2.870117 0.26562,1.115234 0.39941,2.356445 0.39941,3.725098 V 52.791016 H 232.4248 V 42.337402 c 0,-1.064453 -0.0703,-1.970215 -0.20898,-2.717773 -0.13965,-0.74707 -0.36816,-1.355469 -0.68457,-1.824707 -0.31738,-0.46875 -0.74121,-0.810547 -1.27344,-1.026367 -0.53223,-0.214844 -1.1914,-0.323242 -1.97656,-0.323242 -0.6084,0 -1.22949,0.06348 -1.86328,0.189941 -0.63379,0.127441 -1.10156,0.241211 -1.40625,0.342285 v 15.813477 z"
   id="path1815"
   inkscape:connector-curvature="0" /><path
   style="fill:#666568"
   d="m 260.51562,42.831543 c 0,1.571777 -0.22851,3.00293 -0.68457,4.29541 -0.45605,1.29248 -1.10253,2.39502 -1.93847,3.307129 -0.83594,0.912598 -1.84375,1.62207 -3.02149,2.128906 -1.17871,0.506348 -2.47753,0.760254 -3.89648,0.760254 -1.41992,0 -2.71191,-0.253906 -3.87793,-0.760254 -1.16602,-0.506836 -2.16602,-1.216309 -3.00293,-2.128906 -0.83594,-0.912109 -1.48926,-2.014648 -1.95703,-3.307129 -0.46973,-1.29248 -0.7041,-2.723633 -0.7041,-4.29541 0,-1.570801 0.23437,-2.996582 0.7041,-4.276367 0.46777,-1.279297 1.12695,-2.375977 1.97656,-3.288086 0.84863,-0.912598 1.85547,-1.615723 3.02149,-2.109863 1.16601,-0.49414 2.44531,-0.741211 3.83984,-0.741211 1.39355,0 2.67969,0.24707 3.8584,0.741211 1.17773,0.494141 2.18554,1.197266 3.02148,2.109863 0.83692,0.912109 1.48828,2.008789 1.95801,3.288086 0.46875,1.279785 0.70312,2.705566 0.70312,4.276367 z m -4.71386,0 c 0,-1.976562 -0.42481,-3.541016 -1.27344,-4.694336 -0.84961,-1.152832 -2.0332,-1.72998 -3.55371,-1.72998 -1.52051,0 -2.70606,0.577148 -3.55469,1.72998 -0.84961,1.15332 -1.27344,2.717773 -1.27344,4.694336 0,2.002441 0.42383,3.586426 1.27344,4.751465 0.84863,1.166016 2.03418,1.749023 3.55469,1.749023 1.52051,0 2.7041,-0.583008 3.55371,-1.749023 0.84863,-1.165039 1.27344,-2.749024 1.27344,-4.751465 z"
   id="path1817"
   inkscape:connector-curvature="0" /><path
   style="fill:#666568"
   d="m 265.2666,33.556641 c 0.88672,-0.253418 2.04004,-0.494141 3.45899,-0.722656 1.41894,-0.228027 2.99023,-0.341797 4.71386,-0.341797 1.62207,0 2.97754,0.222168 4.06739,0.665039 1.08984,0.443848 1.958,1.064453 2.60449,1.862793 0.64551,0.79834 1.10156,1.761719 1.36816,2.888672 0.26563,1.12793 0.39942,2.36377 0.39942,3.706543 V 52.791016 H 277.2793 V 42.337402 c 0,-1.064453 -0.0703,-1.970215 -0.20899,-2.717773 -0.13965,-0.74707 -0.36816,-1.355469 -0.68457,-1.824707 -0.31738,-0.46875 -0.74804,-0.810547 -1.29297,-1.026367 -0.54492,-0.214844 -1.20996,-0.323242 -1.99511,-0.323242 -0.58301,0 -1.19141,0.03809 -1.8252,0.114258 -0.63379,0.07568 -1.10156,0.139648 -1.40625,0.189941 v 16.041504 h -4.59961 z"
   id="path1819"
   inkscape:connector-curvature="0" /><path
   style="fill:#666568"
   d="m 167.38525,82.859375 c 1.72266,0 2.97705,-0.291016 3.76319,-0.874512 0.78515,-0.58252 1.17871,-1.40625 1.17871,-2.470703 0,-0.633301 -0.13379,-1.178223 -0.39942,-1.634277 -0.26562,-0.456543 -0.64648,-0.868164 -1.14062,-1.23584 -0.49414,-0.366699 -1.09619,-0.708984 -1.80566,-1.026367 -0.70948,-0.316406 -1.52051,-0.626953 -2.43262,-0.931152 -0.9126,-0.329102 -1.79346,-0.689941 -2.64209,-1.083496 -0.84912,-0.392578 -1.59668,-0.879883 -2.24268,-1.463379 -0.64599,-0.58252 -1.16601,-1.279297 -1.55859,-2.09082 -0.39307,-0.810547 -0.58936,-1.786621 -0.58936,-2.926758 0,-2.381836 0.82325,-4.250977 2.47119,-5.606934 1.64698,-1.355469 3.88965,-2.033691 6.72803,-2.033691 1.64697,0 3.11084,0.184082 4.39111,0.55127 1.2793,0.367676 2.28614,0.766602 3.02149,1.197266 l -1.48242,3.877441 c -0.86231,-0.480957 -1.80567,-0.848633 -2.83203,-1.102539 -1.02637,-0.25293 -2.08497,-0.379883 -3.17383,-0.379883 -1.29248,0 -2.29981,0.266113 -3.02246,0.797852 -0.72217,0.532227 -1.08301,1.280273 -1.08301,2.243164 0,0.583008 0.11963,1.083008 0.36084,1.501465 0.24072,0.417969 0.58301,0.791992 1.02637,1.121094 0.44335,0.32959 0.96289,0.633789 1.55859,0.912598 0.59521,0.279297 1.24805,0.544922 1.95752,0.79834 1.2417,0.456055 2.35059,0.918457 3.32617,1.387207 0.97559,0.469238 1.79883,1.026367 2.4707,1.672852 0.67188,0.645996 1.18457,1.40625 1.54004,2.280762 0.3545,0.874023 0.53223,1.932617 0.53223,3.173828 0,2.382324 -0.84277,4.226074 -2.52832,5.530762 -1.68555,1.305664 -4.1499,1.958008 -7.39307,1.958008 -1.09033,0 -2.08496,-0.07031 -2.98437,-0.208984 -0.8999,-0.139648 -1.69824,-0.310547 -2.39453,-0.513672 -0.69727,-0.202148 -1.29932,-0.411133 -1.80567,-0.626953 -0.50732,-0.214844 -0.91259,-0.411621 -1.2163,-0.589355 l 1.40625,-3.915039 c 0.68408,0.379883 1.60888,0.760254 2.7749,1.140137 1.16552,0.380367 2.57177,0.570308 4.21972,0.570308 z"
   id="path1823"
   inkscape:connector-curvature="0" /><path
   style="fill:#666568"
   d="m 199.27734,76.473145 c 0,1.571777 -0.22851,3.00293 -0.68457,4.29541 -0.45605,1.29248 -1.10254,2.39502 -1.93847,3.307129 -0.83594,0.912598 -1.84375,1.62207 -3.02149,2.128418 -1.17871,0.506836 -2.47754,0.760742 -3.89648,0.760742 -1.41992,0 -2.71192,-0.253906 -3.87793,-0.760742 -1.16602,-0.506348 -2.16602,-1.21582 -3.00293,-2.128418 -0.83594,-0.912109 -1.48926,-2.014648 -1.95703,-3.307129 -0.46973,-1.29248 -0.7041,-2.723633 -0.7041,-4.29541 0,-1.570801 0.23437,-2.996582 0.7041,-4.276367 0.46777,-1.279297 1.12695,-2.375977 1.97656,-3.288086 0.84863,-0.912598 1.85547,-1.615723 3.02148,-2.109863 1.16602,-0.49414 2.44532,-0.741211 3.83985,-0.741211 1.39355,0 2.67969,0.24707 3.8584,0.741211 1.17773,0.494141 2.18554,1.197266 3.02148,2.109863 0.83691,0.912109 1.48828,2.008789 1.95801,3.288086 0.46875,1.279784 0.70312,2.705566 0.70312,4.276367 z m -4.71386,0 c 0,-1.976562 -0.42481,-3.541016 -1.27344,-4.694336 -0.84961,-1.152832 -2.0332,-1.72998 -3.55371,-1.72998 -1.52051,0 -2.70606,0.577148 -3.55469,1.72998 -0.84961,1.15332 -1.27344,2.717773 -1.27344,4.694336 0,2.002441 0.42383,3.586426 1.27344,4.751465 0.84863,1.166016 2.03418,1.749023 3.55469,1.749023 1.52051,0 2.7041,-0.583008 3.55371,-1.749023 0.84863,-1.16504 1.27344,-2.749024 1.27344,-4.751465 z"
   id="path1825"
   inkscape:connector-curvature="0" /><path
   style="fill:#666568"
   d="m 212.125,56.93457 c 1.06445,0 2.00195,0.09521 2.81348,0.285156 0.81054,0.189941 1.41894,0.36084 1.82422,0.513184 l -0.87403,3.80127 c -0.43164,-0.202637 -0.93164,-0.367188 -1.50195,-0.494141 -0.56934,-0.126465 -1.18457,-0.189941 -1.84277,-0.189941 -0.73535,0 -1.35645,0.10791 -1.86328,0.322754 -0.50684,0.21582 -0.91211,0.513184 -1.21582,0.893555 -0.30469,0.379883 -0.52051,0.842773 -0.64649,1.387207 -0.12695,0.54541 -0.19043,1.134766 -0.19043,1.767578 v 1.330566 h 7.22266 v 3.839355 h -7.22266 v 16.041504 h -4.59961 V 65.145508 c 0,-2.55957 0.67188,-4.567871 2.01465,-6.025391 1.34277,-1.457031 3.37012,-2.185547 6.08203,-2.185547 z"
   id="path1827"
   inkscape:connector-curvature="0" /><path
   style="fill:#666568"
   d="m 219.00586,61.306152 4.59961,-0.760254 v 6.005859 h 7.07031 v 3.839355 h -7.07031 v 8.09668 c 0,1.59668 0.25293,2.736816 0.75976,3.421387 0.50684,0.684082 1.36817,1.026367 2.58496,1.026367 0.83594,0 1.57715,-0.08887 2.22364,-0.266113 0.64648,-0.177246 1.15918,-0.342285 1.54004,-0.494141 l 0.75976,3.648926 c -0.53222,0.228027 -1.22949,0.462891 -2.09082,0.703125 -0.86132,0.241211 -1.875,0.361328 -3.04101,0.361328 -1.41895,0 -2.60352,-0.19043 -3.55371,-0.570312 -0.9502,-0.379882 -1.70508,-0.931152 -2.26172,-1.65332 -0.55762,-0.722168 -0.9502,-1.59668 -1.17871,-2.623047 -0.22852,-1.026367 -0.3418,-2.198242 -0.3418,-3.516113 z"
   id="path1829"
   inkscape:connector-curvature="0" /><path
   style="fill:#666568"
   d="m 247.00195,73.92627 c -0.58203,2.230469 -1.20898,4.403809 -1.87988,6.519531 -0.6709,2.116211 -1.33496,4.111816 -1.99316,5.986816 h -3.77637 c -0.50781,-1.165527 -1.04102,-2.495605 -1.59961,-3.991211 -0.55859,-1.495117 -1.11719,-3.091797 -1.67578,-4.789551 -0.55859,-1.697754 -1.11719,-3.484375 -1.67578,-5.359863 -0.55762,-1.875488 -1.10352,-3.788574 -1.63672,-5.740234 h 4.86719 c 0.22949,1.064453 0.49707,2.211426 0.80175,3.44043 0.30567,1.229492 0.62403,2.483887 0.95508,3.763184 0.33203,1.279785 0.67578,2.527832 1.03223,3.744141 0.35645,1.216309 0.71289,2.332031 1.06934,3.345215 0.38085,-1.165527 0.75585,-2.369141 1.12402,-3.611328 0.36816,-1.241211 0.71777,-2.483398 1.04785,-3.725098 0.33008,-1.2417 0.6416,-2.452148 0.93359,-3.630371 0.292,-1.178223 0.55274,-2.286621 0.78125,-3.326172 h 3.53516 c 0.22754,1.039551 0.48047,2.147949 0.75781,3.326172 0.27832,1.178223 0.5752,2.388672 0.8916,3.630371 0.31543,1.241699 0.65723,2.483887 1.02344,3.725098 0.36719,1.242188 0.74024,2.445801 1.11914,3.611328 0.33106,-1.013184 0.67481,-2.128906 1.03125,-3.345215 0.35645,-1.216309 0.70703,-2.464355 1.05078,-3.744141 0.34375,-1.279297 0.66895,-2.533691 0.97364,-3.763184 0.30566,-1.229004 0.57324,-2.375977 0.80273,-3.44043 h 4.75293 c -0.5332,1.95166 -1.0791,3.864746 -1.63769,5.740234 -0.5586,1.875488 -1.11719,3.662109 -1.67578,5.359863 -0.5586,1.697754 -1.11719,3.294434 -1.67578,4.789551 -0.5586,1.495605 -1.1045,2.825684 -1.63672,3.991211 h -3.73926 c -0.6582,-1.875 -1.33496,-3.870605 -2.03125,-5.986816 -0.69629,-2.115723 -1.33497,-4.289063 -1.917,-6.519531 z"
   id="path1831"
   inkscape:connector-curvature="0" /><path
   style="fill:#666568"
   d="m 271.38769,66.057617 c 1.52051,0 2.79981,0.189941 3.83985,0.570312 1.03809,0.379883 1.86816,0.912109 2.48926,1.59668 0.62109,0.684082 1.06445,1.51416 1.33105,2.489746 0.26563,0.975586 0.39844,2.046875 0.39844,3.211914 v 12.050293 c -0.70898,0.151367 -1.78027,0.335938 -3.21191,0.550781 -1.43164,0.214843 -3.04688,0.323242 -4.84668,0.323242 -1.19141,0 -2.28028,-0.114258 -3.26856,-0.341797 -0.98828,-0.228516 -1.83105,-0.595215 -2.52832,-1.102539 -0.69726,-0.506836 -1.24219,-1.165527 -1.63476,-1.976562 -0.39258,-0.811035 -0.58887,-1.811523 -0.58887,-3.00293 0,-1.140625 0.22168,-2.103516 0.66504,-2.88916 0.44336,-0.785156 1.0459,-1.425293 1.80566,-1.919922 0.76074,-0.494141 1.64063,-0.848633 2.6416,-1.063965 1.00098,-0.215332 2.04688,-0.323242 3.13672,-0.323242 0.50684,0 1.03906,0.03223 1.59668,0.09521 0.55664,0.06348 1.15235,0.170898 1.78614,0.322754 v -0.760254 c 0,-0.532227 -0.0635,-1.038574 -0.18946,-1.520508 -0.12793,-0.480957 -0.34863,-0.905762 -0.66601,-1.273438 -0.31641,-0.366699 -0.73536,-0.651855 -1.25391,-0.85498 -0.51953,-0.202637 -1.17285,-0.304199 -1.95801,-0.304199 -1.06445,0 -2.04004,0.07617 -2.92676,0.228027 -0.88769,0.151855 -1.60937,0.32959 -2.16699,0.532227 l -0.57031,-3.725586 c 0.58301,-0.202148 1.43164,-0.404785 2.54687,-0.60791 1.11524,-0.202636 2.30567,-0.304199 3.57324,-0.304199 z m 0.38086,17.144043 c 1.41895,0 2.49512,-0.07617 3.23047,-0.228027 v -5.09375 c -0.2539,-0.07617 -0.62109,-0.152344 -1.10253,-0.228027 -0.48145,-0.07617 -1.01368,-0.114258 -1.59668,-0.114258 -0.50684,0 -1.01954,0.03809 -1.53907,0.114258 -0.51953,0.07568 -0.98828,0.215332 -1.40625,0.417969 -0.41797,0.203125 -0.75488,0.488281 -1.00781,0.855469 -0.25293,0.367188 -0.37988,0.830078 -0.37988,1.387207 0,1.089844 0.3418,1.84375 1.02637,2.261719 0.68456,0.418456 1.60937,0.62744 2.77538,0.62744 z"
   id="path1833"
   inkscape:connector-curvature="0" /><path
   style="fill:#666568"
   d="m 296.40039,70.695312 c -0.37988,-0.126465 -0.90625,-0.259766 -1.57715,-0.399414 -0.67187,-0.138672 -1.45117,-0.208984 -2.33789,-0.208984 -0.50781,0 -1.0459,0.05127 -1.61621,0.152344 -0.57031,0.101562 -0.96875,0.189941 -1.19727,0.266113 v 15.927246 h -4.5996 V 67.501953 c 0.88671,-0.329102 1.99609,-0.639648 3.32617,-0.931152 1.33105,-0.291016 2.80664,-0.437012 4.42871,-0.437012 0.30371,0 0.65918,0.01904 1.06445,0.05713 0.40527,0.0376 0.81055,0.08887 1.2168,0.151855 0.4043,0.06348 0.79785,0.139648 1.17773,0.228027 0.37989,0.08935 0.68457,0.170898 0.91211,0.24707 z"
   id="path1835"
   inkscape:connector-curvature="0" /><path
   style="fill:#666568"
   d="m 299.28906,76.587402 c 0,-1.748535 0.25977,-3.281738 0.7793,-4.599609 0.51953,-1.317383 1.20996,-2.414062 2.07226,-3.288086 0.86133,-0.874512 1.84961,-1.533203 2.96485,-1.977051 1.11523,-0.442871 2.25488,-0.665039 3.4209,-0.665039 2.7373,0 4.87207,0.849609 6.40527,2.546875 1.5332,1.698242 2.29981,4.232422 2.29981,7.602539 0,0.253906 -0.007,0.538574 -0.0186,0.855469 -0.0137,0.316895 -0.0322,0.602051 -0.0576,0.85498 H 304.041 c 0.12695,1.59668 0.69043,2.832031 1.6914,3.706543 1.00098,0.874023 2.45215,1.311523 4.35254,1.311523 1.11523,0 2.13477,-0.101074 3.06055,-0.304199 0.9248,-0.202637 1.65332,-0.417969 2.18554,-0.646484 l 0.6084,3.763672 c -0.2539,0.126953 -0.60254,0.259766 -1.0459,0.398926 -0.44336,0.139648 -0.95019,0.265625 -1.5205,0.379883 -0.57032,0.114258 -1.18457,0.208984 -1.84375,0.285156 -0.65918,0.07617 -1.33008,0.114258 -2.01465,0.114258 -1.74805,0 -3.26856,-0.259766 -4.56153,-0.779297 -1.29199,-0.519043 -2.35644,-1.241211 -3.19238,-2.166504 -0.83691,-0.924805 -1.45801,-2.014648 -1.86328,-3.269531 -0.40527,-1.254395 -0.6084,-2.628418 -0.6084,-4.124024 z m 13.34278,-2.052734 c 0,-0.633301 -0.0889,-1.235352 -0.26563,-1.805664 -0.17773,-0.570312 -0.4375,-1.064453 -0.7793,-1.482422 -0.34277,-0.418457 -0.76074,-0.747559 -1.25488,-0.988281 -0.49414,-0.240722 -1.08301,-0.361328 -1.76758,-0.361328 -0.70996,0 -1.33008,0.132812 -1.8623,0.398926 -0.53223,0.266114 -0.98242,0.614746 -1.34961,1.04541 -0.36719,0.431152 -0.65235,0.925293 -0.85547,1.482422 -0.20313,0.558105 -0.3418,1.12793 -0.41797,1.710938 h 8.55274 z"
   id="path1837"
   inkscape:connector-curvature="0" /><path
   style="fill:#666568"
   d="m 168.52978,120.07422 c -1.90185,-4.10547 -3.73437,-8.40039 -5.49658,-12.88672 -1.7622,-4.48535 -3.40381,-8.970703 -4.92529,-13.456055 h 5.28564 c 0.60938,1.773438 1.23194,3.585938 1.86768,5.435547 0.63477,1.850588 1.26953,3.667968 1.90527,5.455078 0.63477,1.78613 1.27002,3.51563 1.90528,5.18848 0.63476,1.67285 1.25732,3.20605 1.86767,4.59961 0.58399,-1.39356 1.19336,-2.91993 1.8291,-4.58008 0.63477,-1.66016 1.27637,-3.38965 1.92481,-5.18945 0.64746,-1.79883 1.28809,-3.62305 1.92383,-5.473638 0.63476,-1.849609 1.24511,-3.662109 1.83008,-5.435547 h 5.13281 c -1.55078,4.485352 -3.20508,8.970705 -4.95899,13.456055 -1.75586,4.48633 -3.58691,8.78125 -5.49414,12.88672 z"
   id="path1841"
   inkscape:connector-curvature="0" /><path
   style="fill:#666568"
   d="m 184.11035,110.22852 c 0,-1.74805 0.25977,-3.28125 0.7793,-4.59961 0.51953,-1.31739 1.20996,-2.41309 2.07227,-3.28809 0.86132,-0.87402 1.8496,-1.53223 2.96484,-1.97656 1.11523,-0.442384 2.25488,-0.66504 3.4209,-0.66504 2.7373,0 4.87207,0.84961 6.40527,2.54688 1.5332,1.69824 2.29981,4.23242 2.29981,7.60253 0,0.25391 -0.007,0.53907 -0.0186,0.85547 -0.0137,0.31739 -0.0322,0.60254 -0.0576,0.85547 h -13.11425 c 0.12695,1.59668 0.69043,2.83203 1.6914,3.70606 1.00098,0.87402 2.45215,1.31152 4.35254,1.31152 1.11523,0 2.13477,-0.10156 3.06055,-0.30469 0.9248,-0.20215 1.65332,-0.41797 2.18554,-0.64551 l 0.6084,3.7627 c -0.2539,0.12793 -0.60254,0.26074 -1.0459,0.39941 -0.44335,0.13965 -0.95019,0.2666 -1.5205,0.37989 -0.57032,0.11425 -1.18457,0.20898 -1.84375,0.28515 -0.65918,0.0762 -1.33008,0.11426 -2.01465,0.11426 -1.74805,0 -3.26856,-0.25977 -4.56152,-0.7793 -1.292,-0.51953 -2.35645,-1.24121 -3.19239,-2.16699 -0.83691,-0.9248 -1.45801,-2.01465 -1.86328,-3.26855 -0.40527,-1.25489 -0.6084,-2.62891 -0.6084,-4.125 z m 13.34277,-2.05274 c 0,-0.63281 -0.0889,-1.23535 -0.26562,-1.80566 -0.17773,-0.56934 -0.4375,-1.06348 -0.7793,-1.48242 -0.34277,-0.41797 -0.76074,-0.74707 -1.25488,-0.98829 -0.49414,-0.24023 -1.08301,-0.36132 -1.76758,-0.36132 -0.70996,0 -1.33008,0.13379 -1.8623,0.39941 -0.53223,0.2666 -0.98243,0.61523 -1.34961,1.0459 -0.36719,0.43066 -0.65235,0.9248 -0.85547,1.48242 -0.20313,0.55762 -0.3418,1.12793 -0.41797,1.70996 z"
   id="path1843"
   inkscape:connector-curvature="0" /><path
   style="fill:#666568"
   d="m 218.24609,104.33691 c -0.37988,-0.12695 -0.90625,-0.25976 -1.57714,-0.39941 -0.67188,-0.13867 -1.45118,-0.20898 -2.3379,-0.20898 -0.50781,0 -1.04589,0.0508 -1.61621,0.15234 -0.57031,0.10156 -0.96875,0.18945 -1.19726,0.26563 v 15.92773 h -4.59961 v -18.93067 c 0.88672,-0.3291 1.99609,-0.63964 3.32617,-0.93066 1.33106,-0.291015 2.80664,-0.437499 4.42871,-0.437499 0.30371,0 0.65918,0.01856 1.06445,0.05664 0.40528,0.03809 0.81055,0.08984 1.2168,0.152344 0.4043,0.06346 0.79785,0.139645 1.17774,0.228515 0.37988,0.0889 0.68457,0.1709 0.9121,0.24707 z"
   id="path1845"
   inkscape:connector-curvature="0" /><path
   style="fill:#666568"
   d="m 240.1416,110.15234 c 0,1.59668 -0.23437,3.03516 -0.70312,4.31543 -0.46973,1.2793 -1.14063,2.375 -2.01465,3.28809 -0.87402,0.91211 -1.93262,1.60938 -3.17383,2.08984 -1.24219,0.48145 -2.64844,0.72266 -4.21973,0.72266 -1.5205,0 -2.97168,-0.11426 -4.35253,-0.3418 -1.38184,-0.22851 -2.52833,-0.48144 -3.44043,-0.76074 V 91.335938 l 4.5996,-0.759766 v 10.301758 c 0.53223,-0.2793 1.18457,-0.53223 1.95801,-0.76074 0.77246,-0.227541 1.62793,-0.341799 2.56543,-0.341799 1.39356,0 2.64258,0.247069 3.74414,0.741209 1.10254,0.49414 2.02149,1.19727 2.75684,2.10938 0.73437,0.91211 1.29785,2.00879 1.69141,3.28808 0.39257,1.28028 0.58886,2.69336 0.58886,4.23828 z m -4.71387,-0.0752 c 0,-1.95117 -0.38672,-3.49707 -1.15918,-4.6377 -0.77343,-1.14062 -1.99511,-1.71093 -3.66797,-1.71093 -0.76074,0 -1.47656,0.11425 -2.14746,0.34179 -0.67187,0.22852 -1.21093,0.48242 -1.61621,0.76074 v 11.44141 c 0.32911,0.0762 0.75391,0.14648 1.27344,0.20996 0.51953,0.0635 1.14648,0.0947 1.88184,0.0947 1.69726,0 3.02832,-0.57617 3.99121,-1.72949 0.96289,-1.15332 1.44433,-2.74317 1.44433,-4.77051 z"
   id="path1847"
   inkscape:connector-curvature="0" /><path
   style="fill:#666568"
   d="m 251.50684,99.699219 c 1.5205,0 2.7998,0.19043 3.83984,0.570311 1.03809,0.37988 1.86816,0.91211 2.48926,1.59668 0.62109,0.6836 1.06445,1.51465 1.33105,2.48926 0.26563,0.97656 0.39844,2.04687 0.39844,3.21289 v 12.04981 c -0.70898,0.15234 -1.78027,0.33593 -3.21191,0.55078 -1.43164,0.21484 -3.04688,0.32324 -4.84668,0.32324 -1.19141,0 -2.28028,-0.11426 -3.26856,-0.3418 -0.98828,-0.22851 -1.83105,-0.5957 -2.52832,-1.10254 -0.69726,-0.50683 -1.24219,-1.16504 -1.63476,-1.97656 -0.39258,-0.81055 -0.58887,-1.81152 -0.58887,-3.00293 0,-1.14062 0.22168,-2.10352 0.66504,-2.88965 0.44336,-0.78515 1.0459,-1.4248 1.80566,-1.91894 0.76074,-0.49414 1.64063,-0.84864 2.6416,-1.06446 1.00098,-0.21484 2.04688,-0.32324 3.13672,-0.32324 0.50684,0 1.03907,0.0322 1.59668,0.0947 0.55664,0.0635 1.15235,0.1709 1.78614,0.32324 v -0.75976 c 0,-0.53223 -0.0635,-1.03907 -0.18946,-1.52051 -0.12793,-0.48145 -0.34863,-0.90625 -0.66601,-1.27344 -0.31641,-0.36719 -0.73535,-0.65234 -1.25391,-0.85547 -0.51953,-0.20312 -1.17285,-0.30469 -1.95801,-0.30469 -1.06445,0 -2.04004,0.0762 -2.92675,0.22852 -0.8877,0.15234 -1.60938,0.33008 -2.167,0.53223 l -0.57031,-3.72559 c 0.58301,-0.20215 1.43164,-0.40527 2.54688,-0.6084 1.11523,-0.202149 2.30566,-0.303711 3.57324,-0.303711 z m 0.38085,17.143551 c 1.41895,0 2.49512,-0.0762 3.23047,-0.22754 v -5.09375 c -0.2539,-0.0762 -0.62109,-0.15234 -1.10254,-0.22851 -0.48144,-0.0762 -1.01367,-0.11426 -1.59668,-0.11426 -0.50683,0 -1.01953,0.0381 -1.53906,0.11426 -0.51953,0.0762 -0.98828,0.21582 -1.40625,0.41797 -0.41797,0.20312 -0.75488,0.48828 -1.00781,0.85547 -0.25293,0.36816 -0.37988,0.83105 -0.37988,1.38769 0,1.08984 0.3418,1.84375 1.02636,2.26172 0.68457,0.41797 1.60938,0.62695 2.77539,0.62695 z"
   id="path1849"
   inkscape:connector-curvature="0" /><path
   style="fill:#666568"
   d="m 265.19141,100.83984 c 0.88671,-0.25293 2.04003,-0.49414 3.45898,-0.72265 1.41894,-0.227541 2.99023,-0.341799 4.71387,-0.341799 1.62207,0 2.97754,0.22168 4.06738,0.665039 1.08984,0.44336 1.95801,1.06445 2.60449,1.86231 0.64551,0.79882 1.10156,1.76171 1.36817,2.88964 0.26562,1.12793 0.39941,2.36328 0.39941,3.70606 v 11.17578 h -4.59961 v -10.45313 c 0,-1.06445 -0.0703,-1.9707 -0.20898,-2.71875 -0.13965,-0.74707 -0.36817,-1.35546 -0.68457,-1.82421 -0.31739,-0.46875 -0.74805,-0.81055 -1.29297,-1.02637 -0.54492,-0.21485 -1.20996,-0.32324 -1.99512,-0.32324 -0.58301,0 -1.19141,0.0381 -1.82519,0.11425 -0.63379,0.0762 -1.10157,0.13965 -1.40625,0.19043 v 16.04102 h -4.59961 z"
   id="path1851"
   inkscape:connector-curvature="0" /><path
   style="fill:#666568"
   d="m 304.23047,119.46582 c -0.91211,0.2793 -2.0586,0.53223 -3.44043,0.76074 -1.38086,0.22754 -2.83106,0.3418 -4.35156,0.3418 -1.57227,0 -2.97852,-0.24121 -4.21973,-0.72266 -1.24219,-0.48047 -2.2998,-1.17187 -3.17383,-2.07129 -0.875,-0.89941 -1.54687,-1.98925 -2.01465,-3.26953 -0.46972,-1.27929 -0.7041,-2.71777 -0.7041,-4.31445 0,-1.57031 0.19629,-2.99609 0.58985,-4.27637 0.39257,-1.27929 0.96875,-2.37597 1.72949,-3.28808 0.75976,-0.91211 1.68457,-1.61524 2.77441,-2.10938 1.08985,-0.49414 2.34375,-0.741209 3.76367,-0.741209 0.9629,0 1.81153,0.114258 2.54688,0.341799 0.73437,0.22851 1.36816,0.48144 1.90039,0.76074 v -9.541992 l 4.59961,-0.759766 z m -13.19043,-9.38867 c 0,2.02734 0.48144,3.61719 1.44433,4.77051 0.9629,1.15332 2.29395,1.72949 3.99122,1.72949 0.73535,0 1.3623,-0.0312 1.88183,-0.0947 0.51953,-0.0635 0.94434,-0.13379 1.27344,-0.20996 v -11.40332 c -0.40527,-0.27832 -0.94434,-0.53809 -1.61523,-0.7793 -0.67188,-0.24023 -1.3877,-0.36133 -2.14746,-0.36133 -1.67286,0 -2.89551,0.57032 -3.66895,1.71094 -0.77344,1.14063 -1.15918,2.68653 -1.15918,4.6377 z"
   id="path1853"
   inkscape:connector-curvature="0" /><path
   style="fill:#666568"
   d="m 158.89893,140.66894 c 0,-1.01171 0.1499,-1.89746 0.45068,-2.66015 0.2998,-0.76172 0.69922,-1.39551 1.19775,-1.90137 0.49805,-0.50488 1.06934,-0.88574 1.71436,-1.14258 0.64453,-0.25585 1.3042,-0.38476 1.97803,-0.38476 1.58252,0 2.81689,0.49121 3.70361,1.47265 0.88672,0.98145 1.33008,2.44727 1.33008,4.39649 0,0.14648 -0.004,0.31055 -0.0112,0.49414 -0.007,0.18359 -0.0186,0.34863 -0.0327,0.49414 h -7.58301 c 0.0728,0.92383 0.39893,1.6377 0.97803,2.14356 0.57861,0.50488 1.41748,0.75781 2.5166,0.75781 0.64453,0 1.23438,-0.0576 1.76953,-0.17578 0.53467,-0.11719 0.95606,-0.24121 1.26368,-0.37305 l 0.35156,2.17578 c -0.14649,0.0732 -0.34815,0.15039 -0.60449,0.23047 -0.25635,0.0811 -0.54932,0.1543 -0.87891,0.21973 -0.33008,0.0664 -0.68506,0.12109 -1.06641,0.16504 -0.38086,0.0439 -0.76904,0.0664 -1.16455,0.0664 -1.01123,0 -1.89062,-0.15039 -2.63769,-0.45117 -0.74756,-0.29981 -1.3628,-0.71777 -1.84619,-1.25293 -0.48389,-0.53418 -0.84278,-1.16504 -1.07715,-1.88965 -0.23438,-0.72559 -0.35156,-1.52051 -0.35156,-2.38477 z m 7.71484,-1.1875 c 0,-0.36621 -0.0518,-0.71386 -0.15381,-1.04394 -0.10254,-0.33008 -0.25293,-0.61523 -0.45068,-0.85742 -0.19776,-0.24121 -0.43946,-0.43164 -0.7251,-0.57129 -0.28613,-0.13867 -0.62647,-0.20899 -1.02246,-0.20899 -0.41016,0 -0.76905,0.0771 -1.07666,0.23145 -0.30811,0.15332 -0.56836,0.35547 -0.78028,0.60449 -0.21289,0.24902 -0.37744,0.53418 -0.49462,0.85645 -0.11768,0.32324 -0.19776,0.65234 -0.2417,0.98925 z"
   id="path1857"
   inkscape:connector-curvature="0" /><path
   style="fill:#666568"
   d="m 175.07617,144.91113 c 0,0.5127 -0.17187,0.93067 -0.51758,1.25196 -0.34375,0.32226 -0.75781,0.48437 -1.24218,0.48437 -0.49805,0 -0.91407,-0.16211 -1.25196,-0.48437 -0.33789,-0.32129 -0.50586,-0.73926 -0.50586,-1.25196 0,-0.51367 0.16797,-0.93457 0.50586,-1.26464 0.33789,-0.32911 0.75391,-0.49415 1.25196,-0.49415 0.48437,0 0.89843,0.16504 1.24218,0.49415 0.34571,0.33007 0.51758,0.75097 0.51758,1.26464 z"
   id="path1859"
   inkscape:connector-curvature="0" /><path
   style="fill:#666568"
   d="m 180.92383,146.36133 c -1.09961,-2.37403 -2.15918,-4.85742 -3.17774,-7.45117 -1.01953,-2.59375 -1.96875,-5.1875 -2.84863,-7.78125 h 3.05664 c 0.35254,1.02636 0.71192,2.07421 1.08008,3.14355 0.36719,1.06934 0.73437,2.12109 1.10156,3.1543 0.36719,1.0332 0.73438,2.0332 1.10156,3 0.36719,0.96679 0.72754,1.85351 1.08008,2.65918 0.33789,-0.80567 0.69043,-1.68848 1.05762,-2.64844 0.36719,-0.95898 0.73828,-1.95898 1.1123,-3 0.375,-1.04004 0.7461,-2.0957 1.11328,-3.16504 0.36719,-1.06934 0.71973,-2.11719 1.05762,-3.14355 h 2.96875 c -0.89746,2.59375 -1.85351,5.1875 -2.86816,7.78125 -1.01465,2.59375 -2.07324,5.07714 -3.17676,7.45117 z"
   id="path1861"
   inkscape:connector-curvature="0" /><path
   style="fill:#666568"
   d="m 192.96777,144.91113 c 0,0.5127 -0.17187,0.93067 -0.5166,1.25196 -0.34473,0.32226 -0.75781,0.48437 -1.24219,0.48437 -0.49804,0 -0.91504,-0.16211 -1.25195,-0.48437 -0.33789,-0.32129 -0.50586,-0.73926 -0.50586,-1.25196 0,-0.51367 0.16797,-0.93457 0.50586,-1.26464 0.33691,-0.32911 0.75391,-0.49415 1.25195,-0.49415 0.48438,0 0.89746,0.16504 1.24219,0.49415 0.34473,0.33007 0.5166,0.75097 0.5166,1.26464 z"
   id="path1863"
   inkscape:connector-curvature="0" /><path
   inkscape:connector-curvature="0"
   id="path1867"
   d="m 113.29981,132.8584 c 0,8.5664 -7.43409,12.88769 -14.97022,15.04883 -11.353027,3.25781 -20.455566,2.75976 -29.933594,0 -7.912109,-2.30567 -14.962402,-7.01856 -14.962402,-15.04883 v -28.24805 c 0,-8.143554 6.775391,-15.080077 14.962402,-15.080077 H 98.32959 c 9.97217,0 18.71826,-8.626953 18.71826,-18.839844 V 57.525391 h 11.22901 c 8.72314,0 12.8291,6.453125 14.97412,15.054199 2.9956,11.922852 3.12988,20.830566 0,30.13428 -3.02442,9.03125 -6.271,15.05761 -14.97412,15.05761 H 113.2998 83.358887 v 3.7793 H 113.2998 v 11.30762 z"
   style="fill:none;stroke:#ffffff;stroke-width:7.11600018" /><path
   style="fill:url(#SVGID_3_)"
   clip-path="none"
   d="M 53.434082,57.525146 H 146.37988 V 151.16479 H 53.434082 Z"
   id="rect1880" />
		<path
   style="fill:none;stroke:#ffffff;stroke-width:7.11600018"
   d="m 53.635742,42.444336 c 0,-8.561035 2.290039,-13.226074 14.962891,-15.437988 8.615234,-1.50293 19.665039,-1.702148 29.951172,0 8.113775,1.324219 14.969725,7.39209 14.969725,15.437988 V 70.69043 c 0,8.299805 -6.64892,15.069824 -14.969725,15.069824 H 68.598633 c -10.144043,0 -18.708984,8.666504 -18.708984,18.457516 v 13.55372 H 39.59082 c -8.700195,0 -13.762207,-6.27344 -15.907227,-15.05567 -2.873047,-11.796874 -2.743652,-18.831542 0,-30.136229 C 26.0708,62.724122 33.686523,57.525392 42.394531,57.525392 H 53.635742 83.583496 V 53.73633 H 53.635742 Z"
   clip-path="url(#SVGID_5_)"
   id="path1890"
   inkscape:connector-curvature="0" /><polygon
   style="fill:url(#SVGID_8_)"
   points="113.51416,118.50879 20.080078,117.7666 20.816895,25.066406 114.25098,25.809082 "
   clip-path="url(#SVGID_7_)"
   id="polygon1905" /><path
   style="fill:#ffffff"
   d="m 63.490234,40.563477 c 0,-3.115234 2.507812,-5.645996 5.61377,-5.645996 3.086426,0 5.612305,2.530762 5.612305,5.645996 0,3.125 -2.525879,5.644043 -5.612305,5.644043 -3.105957,0 -5.61377,-2.519043 -5.61377,-5.644043"
   id="path1909"
   inkscape:connector-curvature="0" /><path
   style="fill:#ffffff"
   d="m 94.113281,134.72266 c 0,-3.1084 2.518066,-5.62891 5.600098,-5.62891 3.115721,0 5.620121,2.52051 5.620121,5.62891 0,3.13281 -2.5044,5.65039 -5.620121,5.65039 -3.082031,0 -5.600098,-2.51758 -5.600098,-5.65039"
   id="path1911"
   inkscape:connector-curvature="0" /><rect
   y="0"
   x="0"
   id="rect1915"
   height="170.07715"
   width="342.99121"
   style="fill:none" />
</svg>