<?xml version="1.0" encoding="iso-8859-1"?>
<!-- Generator: Adobe Illustrator 15.0.2, SVG Export Plug-In . SVG Version: 6.00 Build 0)  -->
<!DOCTYPE svg PUBLIC "-//W3C//DTD SVG 1.1//EN" "http://www.w3.org/Graphics/SVG/1.1/DTD/svg11.dtd" [
	<!ENTITY st0 "clip-path:url(#SVGID_2_);fill:url(#SVGID_3_);">
	<!ENTITY st1 "clip-path:url(#SVGID_7_);fill:url(#SVGID_8_);">
	<!ENTITY st2 "fill:none;stroke:#FFFFFF;stroke-width:7.116;">
	<!ENTITY st3 "clip-path:url(#SVGID_5_);fill:none;stroke:#FFFFFF;stroke-width:7.116;">
	<!ENTITY st4 "fill:#FFFFFF;">
	<!ENTITY st5 "fill:none;">
	<!ENTITY st6 "fill:#666568;">
]>
<svg version="1.1" id="Ebene_1" xmlns="http://www.w3.org/2000/svg" xmlns:xlink="http://www.w3.org/1999/xlink" x="0px" y="0px"
	 width="342.991211px" height="170.077148px" viewBox="0 0 342.991211 170.077148"
	 style="enable-background:new 0 0 342.991211 170.077148;" xml:space="preserve">
<g>
	<g>
		<path style="&st6;" d="M168.449219,26.182129c3.826172,0,6.759766,0.697266,8.799805,2.090332
			c2.040039,1.394043,3.060547,3.573242,3.060547,6.538574c0,1.545898-0.272461,2.869629-0.817383,3.972168
			s-1.336914,2.002441-2.375977,2.69873c-1.039062,0.697754-2.306641,1.210449-3.800781,1.539551
			c-1.496094,0.330078-3.206543,0.494141-5.132324,0.494141h-2.394531v9.275391h-4.789551V26.828125
			c1.114746-0.25293,2.350098-0.423828,3.706055-0.513184C166.060547,26.226562,167.309082,26.182129,168.449219,26.182129z
			 M168.791504,30.325195c-1.216309,0-2.217773,0.038086-3.00293,0.114258v8.971191h2.318848
			c2.305664,0,4.080078-0.323242,5.321289-0.969727c1.242188-0.645996,1.863281-1.868164,1.863281-3.667969
			c0-0.861328-0.165039-1.583496-0.494141-2.166992c-0.330078-0.58252-0.786133-1.038574-1.369141-1.368164
			c-0.583008-0.329102-1.273438-0.563965-2.071289-0.703613C170.559082,30.395508,169.703613,30.325195,168.791504,30.325195z"/>
		<path style="&st6;" d="M201.025391,32.910156c-2.048828,7.552246-4.426758,14.394531-7.132812,20.526855
			c-0.507812,1.140625-1.027344,2.115723-1.560547,2.927246c-0.533203,0.810547-1.128906,1.482422-1.788086,2.014648
			c-0.660156,0.532227-1.396484,0.918457-2.207031,1.15918c-0.8125,0.240723-1.750977,0.361328-2.816406,0.361328
			c-0.709961,0-1.415039-0.076172-2.112305-0.228027s-1.223633-0.317383-1.579102-0.494141l0.835938-3.6875
			c0.916992,0.35498,1.821289,0.532227,2.711914,0.532227c1.196289,0,2.131836-0.285156,2.806641-0.85498
			c0.674805-0.570312,1.265625-1.451172,1.775391-2.64209c-1.451172-2.787598-2.84375-5.828613-4.180664-9.123047
			c-1.335938-3.293945-2.526367-6.791504-3.569336-10.491699h4.904297c0.253906,1.064453,0.56543,2.217773,0.93457,3.459473
			s0.769531,2.50293,1.202148,3.782227c0.432617,1.279785,0.889648,2.553223,1.373047,3.820312s0.966797,2.445801,1.450195,3.535156
			c0.807617-2.255371,1.564453-4.656738,2.271484-7.203613c0.706055-2.546875,1.348633-5.01123,1.929688-7.393555H201.025391z"/>
		<path style="&st6;" d="M204.294922,27.664551l4.599609-0.760254v6.005859h7.070312v3.839355h-7.070312v8.09668
			c0,1.59668,0.25293,2.736816,0.759766,3.421387c0.506836,0.684082,1.368164,1.026367,2.584961,1.026367
			c0.835938,0,1.577148-0.088867,2.223633-0.266113s1.15918-0.342285,1.540039-0.494141l0.759766,3.648926
			c-0.532227,0.228027-1.229492,0.462891-2.09082,0.703613c-0.861328,0.240234-1.875,0.36084-3.041016,0.36084
			c-1.418945,0-2.603516-0.189941-3.553711-0.570312c-0.950195-0.379883-1.705078-0.931152-2.261719-1.65332
			c-0.557617-0.722168-0.950195-1.59668-1.178711-2.623047s-0.341797-2.198242-0.341797-3.516113V27.664551z"/>
		<path style="&st6;" d="M220.412109,52.791016V24.053223l4.599609-0.760254v9.845215
			c0.506836-0.176758,1.095703-0.329102,1.767578-0.456055c0.671875-0.126465,1.336914-0.189941,1.996094-0.189941
			c1.59668,0,2.919922,0.222168,3.972656,0.665039c1.050781,0.443848,1.893555,1.064453,2.527344,1.862793
			c0.632812,0.79834,1.083008,1.754883,1.349609,2.870117c0.265625,1.115234,0.399414,2.356445,0.399414,3.725098v11.175781
			h-4.599609V42.337402c0-1.064453-0.070312-1.970215-0.208984-2.717773c-0.139648-0.74707-0.368164-1.355469-0.68457-1.824707
			c-0.317383-0.46875-0.741211-0.810547-1.273438-1.026367c-0.532227-0.214844-1.191406-0.323242-1.976562-0.323242
			c-0.608398,0-1.229492,0.063477-1.863281,0.189941c-0.633789,0.127441-1.101562,0.241211-1.40625,0.342285v15.813477H220.412109z"
			/>
		<path style="&st6;" d="M260.515625,42.831543c0,1.571777-0.228516,3.00293-0.68457,4.29541s-1.102539,2.39502-1.938477,3.307129
			c-0.835938,0.912598-1.84375,1.62207-3.021484,2.128906c-1.178711,0.506348-2.477539,0.760254-3.896484,0.760254
			c-1.419922,0-2.711914-0.253906-3.87793-0.760254c-1.166016-0.506836-2.166016-1.216309-3.00293-2.128906
			c-0.835938-0.912109-1.489258-2.014648-1.957031-3.307129c-0.469727-1.29248-0.704102-2.723633-0.704102-4.29541
			c0-1.570801,0.234375-2.996582,0.704102-4.276367c0.467773-1.279297,1.126953-2.375977,1.976562-3.288086
			c0.848633-0.912598,1.855469-1.615723,3.021484-2.109863s2.445312-0.741211,3.839844-0.741211
			c1.393555,0,2.679688,0.24707,3.858398,0.741211c1.177734,0.494141,2.185547,1.197266,3.021484,2.109863
			c0.836914,0.912109,1.488281,2.008789,1.958008,3.288086C260.28125,39.834961,260.515625,41.260742,260.515625,42.831543z
			 M255.801758,42.831543c0-1.976562-0.424805-3.541016-1.273438-4.694336c-0.849609-1.152832-2.033203-1.72998-3.553711-1.72998
			s-2.706055,0.577148-3.554688,1.72998c-0.849609,1.15332-1.273438,2.717773-1.273438,4.694336
			c0,2.002441,0.423828,3.586426,1.273438,4.751465c0.848633,1.166016,2.03418,1.749023,3.554688,1.749023
			s2.704102-0.583008,3.553711-1.749023C255.376953,46.417969,255.801758,44.833984,255.801758,42.831543z"/>
		<path style="&st6;" d="M265.266602,33.556641c0.886719-0.253418,2.040039-0.494141,3.458984-0.722656
			c1.418945-0.228027,2.990234-0.341797,4.713867-0.341797c1.62207,0,2.977539,0.222168,4.067383,0.665039
			c1.089844,0.443848,1.958008,1.064453,2.604492,1.862793c0.645508,0.79834,1.101562,1.761719,1.368164,2.888672
			c0.265625,1.12793,0.399414,2.36377,0.399414,3.706543v11.175781h-4.599609V42.337402
			c0-1.064453-0.070312-1.970215-0.208984-2.717773c-0.139648-0.74707-0.368164-1.355469-0.68457-1.824707
			c-0.317383-0.46875-0.748047-0.810547-1.292969-1.026367c-0.544922-0.214844-1.209961-0.323242-1.995117-0.323242
			c-0.583008,0-1.191406,0.038086-1.825195,0.114258c-0.633789,0.075684-1.101562,0.139648-1.40625,0.189941v16.041504h-4.599609
			V33.556641z"/>
	</g>
	<g>
		<path style="&st6;" d="M167.385254,82.859375c1.722656,0,2.977051-0.291016,3.763184-0.874512
			c0.785156-0.58252,1.178711-1.40625,1.178711-2.470703c0-0.633301-0.133789-1.178223-0.399414-1.634277
			c-0.265625-0.456543-0.646484-0.868164-1.140625-1.23584c-0.494141-0.366699-1.096191-0.708984-1.805664-1.026367
			c-0.709473-0.316406-1.520508-0.626953-2.432617-0.931152c-0.912598-0.329102-1.793457-0.689941-2.64209-1.083496
			c-0.849121-0.392578-1.59668-0.879883-2.242676-1.463379c-0.645996-0.58252-1.166016-1.279297-1.558594-2.09082
			c-0.393066-0.810547-0.589355-1.786621-0.589355-2.926758c0-2.381836,0.823242-4.250977,2.471191-5.606934
			c1.646973-1.355469,3.889648-2.033691,6.728027-2.033691c1.646973,0,3.11084,0.184082,4.391113,0.55127
			c1.279297,0.367676,2.286133,0.766602,3.021484,1.197266l-1.482422,3.877441
			c-0.862305-0.480957-1.805664-0.848633-2.832031-1.102539c-1.026367-0.25293-2.084961-0.379883-3.173828-0.379883
			c-1.29248,0-2.299805,0.266113-3.022461,0.797852c-0.722168,0.532227-1.083008,1.280273-1.083008,2.243164
			c0,0.583008,0.119629,1.083008,0.36084,1.501465c0.240723,0.417969,0.583008,0.791992,1.026367,1.121094
			c0.443359,0.32959,0.962891,0.633789,1.558594,0.912598c0.595215,0.279297,1.248047,0.544922,1.95752,0.79834
			c1.241699,0.456055,2.350586,0.918457,3.326172,1.387207c0.975586,0.469238,1.798828,1.026367,2.470703,1.672852
			c0.671875,0.645996,1.18457,1.40625,1.540039,2.280762c0.354492,0.874023,0.532227,1.932617,0.532227,3.173828
			c0,2.382324-0.842773,4.226074-2.52832,5.530762c-1.685547,1.305664-4.149902,1.958008-7.393066,1.958008
			c-1.090332,0-2.084961-0.070312-2.984375-0.208984c-0.899902-0.139648-1.698242-0.310547-2.394531-0.513672
			c-0.697266-0.202148-1.299316-0.411133-1.805664-0.626953c-0.507324-0.214844-0.912598-0.411621-1.216309-0.589355
			l1.40625-3.915039c0.684082,0.379883,1.608887,0.760254,2.774902,1.140137
			C164.331055,82.669434,165.737305,82.859375,167.385254,82.859375z"/>
		<path style="&st6;" d="M199.277344,76.473145c0,1.571777-0.228516,3.00293-0.68457,4.29541s-1.102539,2.39502-1.938477,3.307129
			c-0.835938,0.912598-1.84375,1.62207-3.021484,2.128418c-1.178711,0.506836-2.477539,0.760742-3.896484,0.760742
			c-1.419922,0-2.711914-0.253906-3.87793-0.760742c-1.166016-0.506348-2.166016-1.21582-3.00293-2.128418
			c-0.835938-0.912109-1.489258-2.014648-1.957031-3.307129c-0.469727-1.29248-0.704102-2.723633-0.704102-4.29541
			c0-1.570801,0.234375-2.996582,0.704102-4.276367c0.467773-1.279297,1.126953-2.375977,1.976562-3.288086
			c0.848633-0.912598,1.855469-1.615723,3.021484-2.109863s2.445312-0.741211,3.839844-0.741211
			c1.393555,0,2.679688,0.24707,3.858398,0.741211c1.177734,0.494141,2.185547,1.197266,3.021484,2.109863
			c0.836914,0.912109,1.488281,2.008789,1.958008,3.288086C199.042969,73.476562,199.277344,74.902344,199.277344,76.473145z
			 M194.563477,76.473145c0-1.976562-0.424805-3.541016-1.273438-4.694336c-0.849609-1.152832-2.033203-1.72998-3.553711-1.72998
			s-2.706055,0.577148-3.554688,1.72998c-0.849609,1.15332-1.273438,2.717773-1.273438,4.694336
			c0,2.002441,0.423828,3.586426,1.273438,4.751465c0.848633,1.166016,2.03418,1.749023,3.554688,1.749023
			s2.704102-0.583008,3.553711-1.749023C194.138672,80.05957,194.563477,78.475586,194.563477,76.473145z"/>
		<path style="&st6;" d="M212.125,56.93457c1.064453,0,2.001953,0.095215,2.813477,0.285156
			c0.810547,0.189941,1.418945,0.36084,1.824219,0.513184l-0.874023,3.80127
			c-0.431641-0.202637-0.931641-0.367188-1.501953-0.494141c-0.569336-0.126465-1.18457-0.189941-1.842773-0.189941
			c-0.735352,0-1.356445,0.10791-1.863281,0.322754c-0.506836,0.21582-0.912109,0.513184-1.21582,0.893555
			c-0.304688,0.379883-0.520508,0.842773-0.646484,1.387207c-0.126953,0.54541-0.19043,1.134766-0.19043,1.767578v1.330566h7.222656
			v3.839355h-7.222656v16.041504h-4.599609V65.145508c0-2.55957,0.671875-4.567871,2.014648-6.025391
			C207.385742,57.663086,209.413086,56.93457,212.125,56.93457z"/>
		<path style="&st6;" d="M219.005859,61.306152l4.599609-0.760254v6.005859h7.070312v3.839355h-7.070312v8.09668
			c0,1.59668,0.25293,2.736816,0.759766,3.421387c0.506836,0.684082,1.368164,1.026367,2.584961,1.026367
			c0.835938,0,1.577148-0.088867,2.223633-0.266113s1.15918-0.342285,1.540039-0.494141l0.759766,3.648926
			c-0.532227,0.228027-1.229492,0.462891-2.09082,0.703125c-0.861328,0.241211-1.875,0.361328-3.041016,0.361328
			c-1.418945,0-2.603516-0.19043-3.553711-0.570312s-1.705078-0.931152-2.261719-1.65332
			c-0.557617-0.722168-0.950195-1.59668-1.178711-2.623047s-0.341797-2.198242-0.341797-3.516113V61.306152z"/>
		<path style="&st6;" d="M247.001953,73.92627c-0.582031,2.230469-1.208984,4.403809-1.879883,6.519531
			c-0.670898,2.116211-1.334961,4.111816-1.993164,5.986816h-3.776367c-0.507812-1.165527-1.041016-2.495605-1.599609-3.991211
			c-0.558594-1.495117-1.117188-3.091797-1.675781-4.789551s-1.117188-3.484375-1.675781-5.359863
			c-0.557617-1.875488-1.103516-3.788574-1.636719-5.740234h4.867188c0.229492,1.064453,0.49707,2.211426,0.801758,3.44043
			c0.305664,1.229492,0.624023,2.483887,0.955078,3.763184c0.332031,1.279785,0.675781,2.527832,1.032227,3.744141
			s0.712891,2.332031,1.069336,3.345215c0.380859-1.165527,0.755859-2.369141,1.124023-3.611328
			c0.368164-1.241211,0.717773-2.483398,1.047852-3.725098s0.641602-2.452148,0.933594-3.630371s0.552734-2.286621,0.78125-3.326172
			h3.535156c0.227539,1.039551,0.480469,2.147949,0.757812,3.326172c0.27832,1.178223,0.575195,2.388672,0.891602,3.630371
			c0.31543,1.241699,0.657227,2.483887,1.023438,3.725098c0.367188,1.242188,0.740234,2.445801,1.119141,3.611328
			c0.331055-1.013184,0.674805-2.128906,1.03125-3.345215s0.707031-2.464355,1.050781-3.744141
			c0.34375-1.279297,0.668945-2.533691,0.973633-3.763184c0.305664-1.229004,0.573242-2.375977,0.802734-3.44043h4.75293
			c-0.533203,1.95166-1.079102,3.864746-1.637695,5.740234s-1.117188,3.662109-1.675781,5.359863
			s-1.117188,3.294434-1.675781,4.789551c-0.558594,1.495605-1.104492,2.825684-1.636719,3.991211h-3.739258
			c-0.658203-1.875-1.334961-3.870605-2.03125-5.986816C248.222656,78.330078,247.583984,76.156738,247.001953,73.92627z"/>
		<path style="&st6;" d="M271.387695,66.057617c1.520508,0,2.799805,0.189941,3.839844,0.570312
			c1.038086,0.379883,1.868164,0.912109,2.489258,1.59668c0.621094,0.684082,1.064453,1.51416,1.331055,2.489746
			c0.265625,0.975586,0.398438,2.046875,0.398438,3.211914v12.050293c-0.708984,0.151367-1.780273,0.335938-3.211914,0.550781
			s-3.046875,0.323242-4.84668,0.323242c-1.191406,0-2.280273-0.114258-3.268555-0.341797
			c-0.988281-0.228516-1.831055-0.595215-2.52832-1.102539c-0.697266-0.506836-1.242188-1.165527-1.634766-1.976562
			s-0.588867-1.811523-0.588867-3.00293c0-1.140625,0.22168-2.103516,0.665039-2.88916
			c0.443359-0.785156,1.045898-1.425293,1.805664-1.919922c0.760742-0.494141,1.640625-0.848633,2.641602-1.063965
			s2.046875-0.323242,3.136719-0.323242c0.506836,0,1.039062,0.032227,1.59668,0.095215
			c0.556641,0.063477,1.152344,0.170898,1.786133,0.322754v-0.760254c0-0.532227-0.063477-1.038574-0.189453-1.520508
			c-0.12793-0.480957-0.348633-0.905762-0.666016-1.273438c-0.316406-0.366699-0.735352-0.651855-1.253906-0.85498
			c-0.519531-0.202637-1.172852-0.304199-1.958008-0.304199c-1.064453,0-2.040039,0.076172-2.926758,0.228027
			c-0.887695,0.151855-1.609375,0.32959-2.166992,0.532227l-0.570312-3.725586
			c0.583008-0.202148,1.431641-0.404785,2.546875-0.60791C268.929688,66.15918,270.120117,66.057617,271.387695,66.057617z
			 M271.768555,83.20166c1.418945,0,2.495117-0.076172,3.230469-0.228027v-5.09375
			c-0.253906-0.076172-0.621094-0.152344-1.102539-0.228027c-0.481445-0.076172-1.013672-0.114258-1.59668-0.114258
			c-0.506836,0-1.019531,0.038086-1.539062,0.114258c-0.519531,0.075684-0.988281,0.215332-1.40625,0.417969
			c-0.417969,0.203125-0.754883,0.488281-1.007812,0.855469s-0.379883,0.830078-0.379883,1.387207
			c0,1.089844,0.341797,1.84375,1.026367,2.261719C269.677734,82.992676,270.602539,83.20166,271.768555,83.20166z"/>
		<path style="&st6;" d="M296.400391,70.695312c-0.379883-0.126465-0.90625-0.259766-1.577148-0.399414
			c-0.671875-0.138672-1.451172-0.208984-2.337891-0.208984c-0.507812,0-1.045898,0.05127-1.616211,0.152344
			c-0.570312,0.101562-0.96875,0.189941-1.197266,0.266113v15.927246h-4.599609V67.501953
			c0.886719-0.329102,1.996094-0.639648,3.326172-0.931152c1.331055-0.291016,2.806641-0.437012,4.428711-0.437012
			c0.303711,0,0.65918,0.019043,1.064453,0.057129c0.405273,0.037598,0.810547,0.088867,1.216797,0.151855
			c0.404297,0.063477,0.797852,0.139648,1.177734,0.228027c0.379883,0.089355,0.68457,0.170898,0.912109,0.24707
			L296.400391,70.695312z"/>
		<path style="&st6;" d="M299.289062,76.587402c0-1.748535,0.259766-3.281738,0.779297-4.599609
			c0.519531-1.317383,1.209961-2.414062,2.072266-3.288086c0.861328-0.874512,1.849609-1.533203,2.964844-1.977051
			c1.115234-0.442871,2.254883-0.665039,3.420898-0.665039c2.737305,0,4.87207,0.849609,6.405273,2.546875
			c1.533203,1.698242,2.299805,4.232422,2.299805,7.602539c0,0.253906-0.006836,0.538574-0.018555,0.855469
			c-0.013672,0.316895-0.032227,0.602051-0.057617,0.85498h-13.114258c0.126953,1.59668,0.69043,2.832031,1.691406,3.706543
			c1.000977,0.874023,2.452148,1.311523,4.352539,1.311523c1.115234,0,2.134766-0.101074,3.060547-0.304199
			c0.924805-0.202637,1.65332-0.417969,2.185547-0.646484l0.608398,3.763672
			c-0.253906,0.126953-0.602539,0.259766-1.045898,0.398926c-0.443359,0.139648-0.950195,0.265625-1.520508,0.379883
			s-1.18457,0.208984-1.84375,0.285156s-1.330078,0.114258-2.014648,0.114258c-1.748047,0-3.268555-0.259766-4.561523-0.779297
			c-1.291992-0.519043-2.356445-1.241211-3.192383-2.166504c-0.836914-0.924805-1.458008-2.014648-1.863281-3.269531
			C299.492188,79.457031,299.289062,78.083008,299.289062,76.587402z M312.631836,74.534668
			c0-0.633301-0.088867-1.235352-0.265625-1.805664c-0.177734-0.570312-0.4375-1.064453-0.779297-1.482422
			c-0.342773-0.418457-0.760742-0.747559-1.254883-0.988281s-1.083008-0.361328-1.767578-0.361328
			c-0.709961,0-1.330078,0.132812-1.862305,0.398926s-0.982422,0.614746-1.349609,1.04541
			c-0.367188,0.431152-0.652344,0.925293-0.855469,1.482422c-0.203125,0.558105-0.341797,1.12793-0.417969,1.710938H312.631836z"/>
	</g>
	<g>
		<path style="&st6;" d="M168.529785,120.074219c-1.901855-4.105469-3.734375-8.400391-5.496582-12.886719
			c-1.762207-4.485352-3.403809-8.970703-4.925293-13.456055h5.285645c0.609375,1.773438,1.231934,3.585938,1.867676,5.435547
			c0.634766,1.850586,1.269531,3.667969,1.905273,5.455078c0.634766,1.786133,1.27002,3.515625,1.905273,5.188477
			c0.634766,1.672852,1.257324,3.206055,1.867676,4.599609c0.583984-1.393555,1.193359-2.919922,1.829102-4.580078
			c0.634766-1.660156,1.276367-3.389648,1.924805-5.189453c0.647461-1.798828,1.288086-3.623047,1.923828-5.473633
			c0.634766-1.849609,1.245117-3.662109,1.830078-5.435547h5.132812c-1.550781,4.485352-3.205078,8.970703-4.958984,13.456055
			c-1.755859,4.486328-3.586914,8.78125-5.494141,12.886719H168.529785z"/>
		<path style="&st6;" d="M184.110352,110.228516c0-1.748047,0.259766-3.28125,0.779297-4.599609
			c0.519531-1.317383,1.209961-2.413086,2.072266-3.288086c0.861328-0.874023,1.849609-1.532227,2.964844-1.976562
			c1.115234-0.442383,2.254883-0.665039,3.420898-0.665039c2.737305,0,4.87207,0.849609,6.405273,2.546875
			c1.533203,1.698242,2.299805,4.232422,2.299805,7.602539c0,0.253906-0.006836,0.539062-0.018555,0.855469
			c-0.013672,0.317383-0.032227,0.602539-0.057617,0.855469h-13.114258c0.126953,1.59668,0.69043,2.832031,1.691406,3.706055
			s2.452148,1.311523,4.352539,1.311523c1.115234,0,2.134766-0.101562,3.060547-0.304688
			c0.924805-0.202148,1.65332-0.417969,2.185547-0.645508l0.608398,3.762695c-0.253906,0.12793-0.602539,0.260742-1.045898,0.399414
			c-0.443359,0.139648-0.950195,0.266602-1.520508,0.379883c-0.570312,0.114258-1.18457,0.208984-1.84375,0.285156
			s-1.330078,0.114258-2.014648,0.114258c-1.748047,0-3.268555-0.259766-4.561523-0.779297
			c-1.291992-0.519531-2.356445-1.241211-3.192383-2.166992c-0.836914-0.924805-1.458008-2.014648-1.863281-3.268555
			C184.313477,113.098633,184.110352,111.724609,184.110352,110.228516z M197.453125,108.175781
			c0-0.632812-0.088867-1.235352-0.265625-1.805664c-0.177734-0.569336-0.4375-1.063477-0.779297-1.482422
			c-0.342773-0.417969-0.760742-0.74707-1.254883-0.988281c-0.494141-0.240234-1.083008-0.361328-1.767578-0.361328
			c-0.709961,0-1.330078,0.133789-1.862305,0.399414c-0.532227,0.266602-0.982422,0.615234-1.349609,1.045898
			s-0.652344,0.924805-0.855469,1.482422s-0.341797,1.12793-0.417969,1.709961H197.453125z"/>
		<path style="&st6;" d="M218.246094,104.336914c-0.379883-0.126953-0.90625-0.259766-1.577148-0.399414
			c-0.671875-0.138672-1.451172-0.208984-2.337891-0.208984c-0.507812,0-1.045898,0.050781-1.616211,0.152344
			s-0.96875,0.189453-1.197266,0.265625v15.927734h-4.599609v-18.930664c0.886719-0.329102,1.996094-0.639648,3.326172-0.930664
			c1.331055-0.291016,2.806641-0.4375,4.428711-0.4375c0.303711,0,0.65918,0.018555,1.064453,0.056641
			s0.810547,0.089844,1.216797,0.152344c0.404297,0.063477,0.797852,0.139648,1.177734,0.228516s0.68457,0.170898,0.912109,0.24707
			L218.246094,104.336914z"/>
		<path style="&st6;" d="M240.141602,110.152344c0,1.59668-0.234375,3.035156-0.703125,4.31543
			c-0.469727,1.279297-1.140625,2.375-2.014648,3.288086c-0.874023,0.912109-1.932617,1.609375-3.173828,2.089844
			c-1.242188,0.481445-2.648438,0.722656-4.219727,0.722656c-1.520508,0-2.97168-0.114258-4.352539-0.341797
			c-1.381836-0.228516-2.52832-0.481445-3.44043-0.760742V91.335938l4.599609-0.759766v10.301758
			c0.532227-0.279297,1.18457-0.532227,1.958008-0.760742c0.772461-0.227539,1.62793-0.341797,2.56543-0.341797
			c1.393555,0,2.642578,0.24707,3.744141,0.741211c1.102539,0.494141,2.021484,1.197266,2.756836,2.109375
			c0.734375,0.912109,1.297852,2.008789,1.691406,3.288086C239.945312,107.194336,240.141602,108.607422,240.141602,110.152344z
			 M235.427734,110.077148c0-1.951172-0.386719-3.49707-1.15918-4.637695c-0.773438-1.140625-1.995117-1.710938-3.667969-1.710938
			c-0.760742,0-1.476562,0.114258-2.147461,0.341797c-0.671875,0.228516-1.210938,0.482422-1.616211,0.760742v11.441406
			c0.329102,0.076172,0.753906,0.146484,1.273438,0.209961s1.146484,0.094727,1.881836,0.094727
			c1.697266,0,3.02832-0.576172,3.991211-1.729492S235.427734,112.104492,235.427734,110.077148z"/>
		<path style="&st6;" d="M251.506836,99.699219c1.520508,0,2.799805,0.19043,3.839844,0.570312
			c1.038086,0.379883,1.868164,0.912109,2.489258,1.59668c0.621094,0.683594,1.064453,1.514648,1.331055,2.489258
			c0.265625,0.976562,0.398438,2.046875,0.398438,3.212891v12.049805c-0.708984,0.152344-1.780273,0.335938-3.211914,0.550781
			s-3.046875,0.323242-4.84668,0.323242c-1.191406,0-2.280273-0.114258-3.268555-0.341797
			c-0.988281-0.228516-1.831055-0.595703-2.52832-1.102539s-1.242188-1.165039-1.634766-1.976562
			c-0.392578-0.810547-0.588867-1.811523-0.588867-3.00293c0-1.140625,0.22168-2.103516,0.665039-2.889648
			c0.443359-0.785156,1.045898-1.424805,1.805664-1.918945c0.760742-0.494141,1.640625-0.848633,2.641602-1.064453
			c1.000977-0.214844,2.046875-0.323242,3.136719-0.323242c0.506836,0,1.039062,0.032227,1.59668,0.094727
			c0.556641,0.063477,1.152344,0.170898,1.786133,0.323242v-0.759766c0-0.532227-0.063477-1.039062-0.189453-1.520508
			c-0.12793-0.481445-0.348633-0.90625-0.666016-1.273438c-0.316406-0.367188-0.735352-0.652344-1.253906-0.855469
			c-0.519531-0.203125-1.172852-0.304688-1.958008-0.304688c-1.064453,0-2.040039,0.076172-2.926758,0.228516
			c-0.887695,0.152344-1.609375,0.330078-2.166992,0.532227l-0.570312-3.725586
			c0.583008-0.202148,1.431641-0.405273,2.546875-0.608398C249.048828,99.800781,250.239258,99.699219,251.506836,99.699219z
			 M251.887695,116.842773c1.418945,0,2.495117-0.076172,3.230469-0.227539v-5.09375
			c-0.253906-0.076172-0.621094-0.152344-1.102539-0.228516s-1.013672-0.114258-1.59668-0.114258
			c-0.506836,0-1.019531,0.038086-1.539062,0.114258s-0.988281,0.21582-1.40625,0.417969
			c-0.417969,0.203125-0.754883,0.488281-1.007812,0.855469c-0.25293,0.368164-0.379883,0.831055-0.379883,1.387695
			c0,1.089844,0.341797,1.84375,1.026367,2.261719S250.72168,116.842773,251.887695,116.842773z"/>
		<path style="&st6;" d="M265.191406,100.839844c0.886719-0.25293,2.040039-0.494141,3.458984-0.722656
			c1.418945-0.227539,2.990234-0.341797,4.713867-0.341797c1.62207,0,2.977539,0.22168,4.067383,0.665039
			s1.958008,1.064453,2.604492,1.862305c0.645508,0.798828,1.101562,1.761719,1.368164,2.889648
			c0.265625,1.12793,0.399414,2.363281,0.399414,3.706055v11.175781h-4.599609v-10.453125
			c0-1.064453-0.070312-1.970703-0.208984-2.71875c-0.139648-0.74707-0.368164-1.355469-0.68457-1.824219
			c-0.317383-0.46875-0.748047-0.810547-1.292969-1.026367c-0.544922-0.214844-1.209961-0.323242-1.995117-0.323242
			c-0.583008,0-1.191406,0.038086-1.825195,0.114258s-1.101562,0.139648-1.40625,0.19043v16.041016h-4.599609V100.839844z"/>
		<path style="&st6;" d="M304.230469,119.46582c-0.912109,0.279297-2.058594,0.532227-3.44043,0.760742
			c-1.380859,0.227539-2.831055,0.341797-4.351562,0.341797c-1.572266,0-2.978516-0.241211-4.219727-0.722656
			c-1.242188-0.480469-2.299805-1.171875-3.173828-2.071289c-0.875-0.899414-1.546875-1.989258-2.014648-3.269531
			c-0.469727-1.279297-0.704102-2.717773-0.704102-4.314453c0-1.570312,0.196289-2.996094,0.589844-4.276367
			c0.392578-1.279297,0.96875-2.375977,1.729492-3.288086c0.759766-0.912109,1.68457-1.615234,2.774414-2.109375
			s2.34375-0.741211,3.763672-0.741211c0.962891,0,1.811523,0.114258,2.546875,0.341797
			c0.734375,0.228516,1.368164,0.481445,1.900391,0.760742v-9.541992l4.599609-0.759766V119.46582z M291.040039,110.077148
			c0,2.027344,0.481445,3.617188,1.444336,4.770508s2.293945,1.729492,3.991211,1.729492
			c0.735352,0,1.362305-0.03125,1.881836-0.094727s0.944336-0.133789,1.273438-0.209961v-11.40332
			c-0.405273-0.27832-0.944336-0.538086-1.615234-0.779297c-0.671875-0.240234-1.387695-0.361328-2.147461-0.361328
			c-1.672852,0-2.895508,0.570312-3.668945,1.710938S291.040039,108.125977,291.040039,110.077148z"/>
	</g>
	<g>
		<path style="&st6;" d="M158.898926,140.668945c0-1.011719,0.149902-1.897461,0.450684-2.660156
			c0.299805-0.761719,0.699219-1.395508,1.197754-1.901367c0.498047-0.504883,1.069336-0.885742,1.714355-1.142578
			c0.644531-0.255859,1.304199-0.384766,1.978027-0.384766c1.58252,0,2.816895,0.491211,3.703613,1.472656
			s1.330078,2.447266,1.330078,4.396484c0,0.146484-0.003906,0.310547-0.01123,0.494141s-0.018555,0.348633-0.032715,0.494141
			h-7.583008c0.072754,0.923828,0.398926,1.637695,0.978027,2.143555c0.578613,0.504883,1.41748,0.757812,2.516602,0.757812
			c0.644531,0,1.234375-0.057617,1.769531-0.175781c0.534668-0.117188,0.956055-0.241211,1.263672-0.373047l0.351562,2.175781
			c-0.146484,0.073242-0.348145,0.150391-0.604492,0.230469c-0.256348,0.081055-0.549316,0.154297-0.878906,0.219727
			c-0.330078,0.066406-0.685059,0.121094-1.066406,0.165039c-0.380859,0.043945-0.769043,0.066406-1.164551,0.066406
			c-1.01123,0-1.890625-0.150391-2.637695-0.451172c-0.747559-0.299805-1.362793-0.717773-1.846191-1.25293
			c-0.483887-0.53418-0.842773-1.165039-1.077148-1.889648C159.016113,142.328125,158.898926,141.533203,158.898926,140.668945z
			 M166.61377,139.481445c0-0.366211-0.051758-0.713867-0.153809-1.043945c-0.102539-0.330078-0.25293-0.615234-0.450684-0.857422
			c-0.197754-0.241211-0.439453-0.431641-0.725098-0.571289c-0.286133-0.138672-0.626465-0.208984-1.022461-0.208984
			c-0.410156,0-0.769043,0.077148-1.07666,0.231445c-0.308105,0.15332-0.568359,0.355469-0.780273,0.604492
			c-0.212891,0.249023-0.377441,0.53418-0.494629,0.856445c-0.117676,0.323242-0.197754,0.652344-0.241699,0.989258H166.61377z"/>
		<path style="&st6;" d="M175.076172,144.911133c0,0.512695-0.171875,0.930664-0.517578,1.251953
			c-0.34375,0.322266-0.757812,0.484375-1.242188,0.484375c-0.498047,0-0.914062-0.162109-1.251953-0.484375
			c-0.337891-0.321289-0.505859-0.739258-0.505859-1.251953c0-0.513672,0.167969-0.93457,0.505859-1.264648
			c0.337891-0.329102,0.753906-0.494141,1.251953-0.494141c0.484375,0,0.898438,0.165039,1.242188,0.494141
			C174.904297,143.976562,175.076172,144.397461,175.076172,144.911133z"/>
		<path style="&st6;" d="M180.923828,146.361328c-1.099609-2.374023-2.15918-4.857422-3.177734-7.451172
			c-1.019531-2.59375-1.96875-5.1875-2.848633-7.78125h3.056641c0.352539,1.026367,0.711914,2.074219,1.080078,3.143555
			c0.367188,1.069336,0.734375,2.121094,1.101562,3.154297s0.734375,2.033203,1.101562,3s0.727539,1.853516,1.080078,2.65918
			c0.337891-0.805664,0.69043-1.688477,1.057617-2.648438c0.367188-0.958984,0.738281-1.958984,1.112305-3
			c0.375-1.040039,0.746094-2.095703,1.113281-3.165039s0.719727-2.117188,1.057617-3.143555h2.96875
			c-0.897461,2.59375-1.853516,5.1875-2.868164,7.78125s-2.073242,5.077148-3.176758,7.451172H180.923828z"/>
		<path style="&st6;" d="M192.967773,144.911133c0,0.512695-0.171875,0.930664-0.516602,1.251953
			c-0.344727,0.322266-0.757812,0.484375-1.242188,0.484375c-0.498047,0-0.915039-0.162109-1.251953-0.484375
			c-0.337891-0.321289-0.505859-0.739258-0.505859-1.251953c0-0.513672,0.167969-0.93457,0.505859-1.264648
			c0.336914-0.329102,0.753906-0.494141,1.251953-0.494141c0.484375,0,0.897461,0.165039,1.242188,0.494141
			C192.795898,143.976562,192.967773,144.397461,192.967773,144.911133z"/>
	</g>
	<path style="&st2;" d="M113.299805,132.858398c0,8.566406-7.434082,12.887695-14.970215,15.048828
		c-11.353027,3.257812-20.455566,2.759766-29.933594,0c-7.912109-2.305664-14.962402-7.018555-14.962402-15.048828v-28.248047
		c0-8.143555,6.775391-15.080078,14.962402-15.080078H98.32959c9.972168,0,18.718262-8.626953,18.718262-18.839844V57.525391
		h11.229004c8.723145,0,12.829102,6.453125,14.974121,15.054199c2.995605,11.922852,3.129883,20.830566,0,30.134277
		c-3.024414,9.03125-6.270996,15.057617-14.974121,15.057617h-14.977051H83.358887v3.779297h29.940918V132.858398z"/>
	<g>
		<defs>
			<path id="SVGID_1_" d="M117.047852,57.525391v13.164551c0,10.213379-8.74707,18.840332-18.717773,18.840332H68.395996
				c-8.187012,0-14.961914,6.936523-14.961914,15.080078v28.248047c0,8.029297,7.049805,12.744141,14.961914,15.048828
				c9.478027,2.759766,18.581055,3.257812,29.934082,0c7.536133-2.161133,14.969727-6.482422,14.969727-15.048828v-11.307617
				H83.35791v-3.77832h29.941895h14.976074c8.703125,0,11.950195-6.027344,14.975098-15.057617
				c3.128906-9.304688,2.996094-18.213867,0-30.135742C141.105957,63.979004,137,57.525391,128.275879,57.525391H117.047852z"/>
		</defs>
		<clipPath id="SVGID_2_">
			<use xlink:href="#SVGID_1_"  style="overflow:visible;"/>
		</clipPath>
		
			<linearGradient id="SVGID_3_" gradientUnits="userSpaceOnUse" x1="0.001953" y1="170.075195" x2="1.001951" y2="170.075195" gradientTransform="matrix(-181.973892 0 0 -181.973892 145.75 31053.429688)">
			<stop  offset="0" style="stop-color:#F9B000"/>
			<stop  offset="1" style="stop-color:#FFE873"/>
		</linearGradient>
		<rect x="53.434082" y="57.525146" style="&st0;" width="92.945801" height="93.639648"/>
	</g>
	<g>
		<defs>
			<rect id="SVGID_4_" width="342.991211" height="170.077148"/>
		</defs>
		<clipPath id="SVGID_5_">
			<use xlink:href="#SVGID_4_"  style="overflow:visible;"/>
		</clipPath>
		<path style="&st3;" d="M53.635742,42.444336c0-8.561035,2.290039-13.226074,14.962891-15.437988
			c8.615234-1.50293,19.665039-1.702148,29.951172,0c8.11377,1.324219,14.969727,7.39209,14.969727,15.437988V70.69043
			c0,8.299805-6.648926,15.069824-14.969727,15.069824H68.598633c-10.144043,0-18.708984,8.666504-18.708984,18.45752v13.553711
			H39.59082c-8.700195,0-13.762207-6.273438-15.907227-15.055664c-2.873047-11.796875-2.743652-18.831543,0-30.13623
			c2.387207-9.855469,10.00293-15.054199,18.710938-15.054199h11.241211h29.947754v-3.789062H53.635742V42.444336z"/>
	</g>
	<g>
		<defs>
			<path id="SVGID_6_" d="M68.599121,27.006348c-12.67334,2.212891-14.964355,6.87793-14.964355,15.437988v11.291992h29.949219
				v3.789062H53.634766H42.39502c-8.708984,0-16.325195,5.19873-18.710938,15.053711
				c-2.745117,11.306152-2.873047,18.338867,0,30.135742c2.14502,8.783203,7.207031,15.057617,15.906738,15.057617h10.299316
				v-13.554688c0-9.791016,8.564941-18.456543,18.708984-18.456543h29.950684c8.321289,0,14.970215-6.770996,14.970215-15.071289
				V42.444336c0-8.046387-6.855957-14.114258-14.970215-15.437988c-4.984863-0.825195-10.147949-1.203125-15.12793-1.203125
				C78.125977,25.803223,73.039062,26.230957,68.599121,27.006348"/>
		</defs>
		<clipPath id="SVGID_7_">
			<use xlink:href="#SVGID_6_"  style="overflow:visible;"/>
		</clipPath>
		
			<linearGradient id="SVGID_8_" gradientUnits="userSpaceOnUse" x1="-0.001465" y1="170.083008" x2="0.998535" y2="170.083008" gradientTransform="matrix(-91.804695 -0.7299 -0.7299 91.804695 237.514313 -15542.178711)">
			<stop  offset="0" style="stop-color:#39699A"/>
			<stop  offset="1" style="stop-color:#3877B4"/>
		</linearGradient>
		<polygon style="&st1;" points="113.51416,118.508789 20.080078,117.766602 20.816895,25.066406 114.250977,25.809082 		"/>
	</g>
	<g>
		<path style="&st4;" d="M63.490234,40.563477c0-3.115234,2.507812-5.645996,5.61377-5.645996
			c3.086426,0,5.612305,2.530762,5.612305,5.645996c0,3.125-2.525879,5.644043-5.612305,5.644043
			C65.998047,46.20752,63.490234,43.688477,63.490234,40.563477"/>
		<path style="&st4;" d="M94.113281,134.722656c0-3.108398,2.518066-5.628906,5.600098-5.628906
			c3.115723,0,5.620117,2.520508,5.620117,5.628906c0,3.132812-2.504395,5.650391-5.620117,5.650391
			C96.631348,140.373047,94.113281,137.855469,94.113281,134.722656"/>
	</g>
	<rect style="&st5;" width="342.991211" height="170.077148"/>
</g>
</svg>
