<?xml version="1.0" encoding="UTF-8" standalone="no"?>
<svg
   xmlns:dc="http://purl.org/dc/elements/1.1/"
   xmlns:cc="http://creativecommons.org/ns#"
   xmlns:rdf="http://www.w3.org/1999/02/22-rdf-syntax-ns#"
   xmlns:svg="http://www.w3.org/2000/svg"
   xmlns="http://www.w3.org/2000/svg"
   viewBox="0 0 1122.52 352.6529"
   height="352.65289"
   width="1122.52"
   xml:space="preserve"
   id="svg834"
   version="1.1"><metadata
     id="metadata840"><rdf:RDF><cc:Work
         rdf:about=""><dc:format>image/svg+xml</dc:format><dc:type
           rdf:resource="http://purl.org/dc/dcmitype/StillImage" /><dc:title></dc:title></cc:Work></rdf:RDF></metadata><defs
     id="defs838"><clipPath
       id="clipPath852"
       clipPathUnits="userSpaceOnUse"><path
         id="path850"
         d="M 0,595.28 H 841.89 V 0 H 0 Z" /></clipPath></defs><g
     transform="matrix(1.3333333,0,0,-1.3333333,0,645.42133)"
     id="g842"><path
       id="path844"
       style="fill:#f58718;fill-opacity:1;fill-rule:nonzero;stroke:none;stroke-width:0.66656685"
       d="M 0,219.57634 H 841.89 V 484.06601 H 0 Z" /><g
       id="g846"><g
         clip-path="url(#clipPath852)"
         id="g848"><g
           transform="translate(162.3926,382.7632)"
           id="g854"><path
             id="path856"
             style="fill:#231f20;fill-opacity:1;fill-rule:nonzero;stroke:none"
             d="m 0,0 c -0.189,-2.118 -11.624,-11.762 -16.354,-13.291 -4.24,-1.371 -18.33,-0.263 -24.074,0.253 -5.828,0.523 -16.469,3.342 -19.59,6.578 -1.378,1.429 -0.861,8.303 -0.672,10.401 0.169,1.89 8.096,5.251 13.981,5.874 4.824,0.51 20.471,3.986 27.211,3.381 6.56,-0.589 13.545,-1.216 17.199,-6.363 C 1.252,1.831 0.174,1.931 0,0 m 23.07,9.73 c -0.45,5.239 -1.804,15.477 -2.74,28.76 -0.856,12.169 -0.628,23.799 -2.146,25.294 -2.911,2.862 -8.09,1.602 -11.311,1.517 C 5.955,65.277 4.712,57.333 4.149,48.377 3.576,39.251 3.838,29.642 3.111,30.097 c -9.17,5.732 -15.452,5.704 -30.662,6.265 -20.474,0.757 -47.916,-5.462 -56.016,-14.449 -1.522,-1.688 -2.065,-18.215 -1.514,-22.455 0.831,-6.399 0.845,-10.421 5.919,-14.587 3.742,-3.072 18.065,-10.944 27.232,-12.82 3.807,-0.78 18.544,1.491 22.614,2.213 13.161,2.333 26.863,5.026 31.273,3.828 0.527,-0.144 0.188,-5.74 1.682,-5.874 2.49,-0.224 22.644,-1.14 24.068,0.246 2.658,2.588 -3.802,27.553 -4.637,37.266" /></g><g
           transform="translate(276.3535,344.4458)"
           id="g858"><path
             id="path860"
             style="fill:#231f20;fill-opacity:1;fill-rule:nonzero;stroke:none"
             d="m 0,0 c 0.639,0.813 2.104,4.821 1.889,12.962 -0.08,2.998 -4.975,-0.876 -17.897,-0.835 -23.219,0.073 -57.168,-1.591 -59.029,-0.074 -2.373,1.932 -3.96,11.85 -2.58,13.722 2.099,2.851 27.398,2.572 55.89,3.324 2.7,0.071 35.928,3.653 39.104,1.703 2.334,-1.434 0,0 2.279,-14.82 3,-19.5 3.844,-24.582 -1.222,-36.323 -1.231,-2.849 -7.344,-10.341 -11,-12.659 -7.467,-4.734 -20.601,-5.533 -31.334,-6 -23.5,-1.021 -59.055,2.299 -62.604,5.496 -8.732,7.866 -12.01,22.044 -11.1,27.003 0.213,1.163 15.297,4.122 15.475,3.546 0.772,-2.501 3.127,-8.047 25.929,-8.047 13.8,0 38.704,-0.1 45.904,3.301 C -6.887,-6.092 -1.101,-1.399 0,0" /></g><g
           transform="translate(392.0537,383.7573)"
           id="g862"><path
             id="path864"
             style="fill:#231f20;fill-opacity:1;fill-rule:nonzero;stroke:none"
             d="m 0,0 c -0.135,-1.571 -1.5,-5.83 -7.689,-9.76 -6.19,-3.93 -17.168,-6.282 -24.6,-6.613 -8.514,-0.38 -18.03,0.31 -23.783,4.132 -4.115,2.732 -6.77,11.05 -6.637,12.586 0.113,1.327 3.617,6.062 8.628,6.767 6.849,0.965 22.529,5.826 31.073,4.764 C -9.345,10.178 0.271,3.142 0,0 m 18.348,2.896 c -0.457,7.89 0.908,21.35 -0.209,26.497 -0.286,1.319 -9.188,-0.056 -11.456,0.045 -1.268,0.056 -0.782,-4.649 -1.731,-3.776 -7.378,6.79 -20.937,8.399 -33.977,9.747 -13.102,1.355 -24.981,-2.805 -35.192,-7.822 C -75.114,22.232 -90.22,7.51 -91.059,-0.602 c -0.609,-5.891 -2.6,-8.468 2.218,-13.555 3.879,-4.096 17.002,-12.274 23.618,-14.652 4.976,-1.788 18.911,1.001 27.707,1.559 14.398,0.913 24.878,1.011 35.275,3.463 0.756,0.179 0.237,-4.857 1.444,-4.848 2.867,0.023 18.845,-0.541 19.379,0.744 1.482,3.563 -0.059,27.761 -0.234,30.787" /></g><g
           transform="translate(523.0957,402.3647)"
           id="g866"><path
             id="path868"
             style="fill:#231f20;fill-opacity:1;fill-rule:nonzero;stroke:none"
             d="m 0,0 c 4.59,-14.938 4.899,-43.603 4.612,-46.829 -0.036,-0.402 -3.833,0 -7.158,0.074 -3.137,0.07 -5.791,-0.208 -6.46,0.125 -1.603,0.799 -1.527,13.993 -10.275,18.266 -9.288,4.535 -21.81,6.223 -28.283,6.8 -5.463,0.486 -25.865,-3.668 -28.715,-7.132 -1.538,-1.869 1.916,-18.429 0.052,-17.533 -1.742,0.838 -28.092,-1.874 -29.314,-0.929 -2.438,1.885 0.371,34.295 0.554,36.345 0.184,2.076 -0.47,21.177 1.349,22.142 0.734,0.389 18.125,3.718 19.011,4.042 1.828,0.67 0.948,-4.477 1.684,-4.717 0.671,-0.218 5.508,2.652 11.663,3.806 11.353,2.13 43.384,4.474 51.166,2.315 C -12.359,14.625 -4.235,13.785 0,0" /></g><g
           transform="translate(761.2744,309.1455)"
           id="g870"><path
             id="path872"
             style="fill:#231f20;fill-opacity:1;fill-rule:nonzero;stroke:none"
             d="m 0,0 c 4.59,-14.939 4.898,-43.604 4.611,-46.83 -0.036,-0.402 -3.833,0 -7.158,0.074 -3.136,0.07 -5.791,-0.207 -6.46,0.125 -1.603,0.799 -1.526,13.994 -10.275,18.266 -9.287,4.535 -21.809,6.224 -28.282,6.801 -5.464,0.486 -25.865,-3.668 -28.715,-7.133 -1.539,-1.869 1.916,-18.428 0.051,-17.532 -1.742,0.838 -28.092,-1.875 -29.313,-0.929 -2.438,1.885 0.37,34.295 0.553,36.344 0.184,2.076 -0.469,21.178 1.349,22.143 0.735,0.388 18.125,3.717 19.012,4.042 1.827,0.67 0.948,-4.478 1.684,-4.717 0.671,-0.219 5.507,2.651 11.663,3.805 11.353,2.13 43.384,4.474 51.165,2.316 C -12.36,14.625 -4.236,13.785 0,0" /></g><g
           transform="translate(603.6318,280.9834)"
           id="g874"><path
             id="path876"
             style="fill:#231f20;fill-opacity:1;fill-rule:nonzero;stroke:none"
             d="m 0,0 c -9.604,-2.561 -27.684,-4.467 -42.492,-5.051 -12.335,-0.486 -21.925,2.115 -21.925,4.278 0,1.867 -2.464,7.152 1.953,11.753 6.833,7.12 22.475,12.258 29.832,14.256 14.384,3.907 48.478,-0.215 48.478,-4.97 C 15.846,15.508 5.327,1.42 0,0 m -9.369,113.846 c 3.87,0 19.402,1.87 29.654,-1.243 4.912,-1.492 12.074,-7.103 12.074,-8.346 0,-2.753 -5.193,-7.496 -14.738,-10.299 -11.203,-3.291 -27.256,-4.44 -30.909,-4.44 -6.768,0 -16.68,4.44 -16.68,7.103 0,3.019 13.831,17.225 20.599,17.225 m 30.72,-61.085 c -17.681,1.141 -53.458,-2.158 -56.22,-4.053 0,0 -9.709,2.763 -9.709,11.208 0,3.849 4.867,15.707 7.972,15.707 11.386,0 42.765,0.324 51.38,3.788 13.401,5.387 25.923,14.69 26.204,18.468 0.451,6.1 1.34,19.732 -0.238,24.309 -0.789,2.289 -4.819,8.235 -6.269,9.313 -2.249,1.672 10.295,-2.289 11.4,-0.79 0.9,1.223 4.667,19.491 3.156,20.126 -13.028,5.489 -39.665,-10.673 -41.356,-12.312 -0.944,-0.914 -14.372,-0.236 -21.704,-0.236 -19.253,0 -36.053,-6.456 -45.244,-15.153 -4.7,-4.445 -12.609,-19.231 -12.609,-24.783 0,-7.23 9.677,-15.686 17.206,-20.955 2.367,-1.657 -12.668,-5.604 -17.6,-21.381 -0.825,-2.641 1.045,-5.107 4.301,-7.072 3.683,-2.221 9.354,-3.634 14.444,-3.63 0.302,0 -15.082,-7.437 -19.939,-18.458 -4.617,-10.476 -1.62,-31.664 -0.354,-32.695 1.102,-0.9 6.415,-9.381 12.074,-10.832 27.701,-7.103 52.739,-4.023 66.945,-1.775 24.301,3.843 36.054,20.3 37.113,20.597 0.199,0.057 6.442,13.924 3.729,27.88 C 43.547,42.817 32.359,52.05 21.351,52.761" /></g><g
           transform="translate(728.5264,383.0142)"
           id="g878"><path
             id="path880"
             style="fill:#231f20;fill-opacity:1;fill-rule:nonzero;stroke:none"
             d="m 0,0 c -0.187,-2.345 -9.7,-12.056 -14.266,-14.06 -10.355,-4.547 -38.755,2.521 -43.471,6.414 -2.96,2.442 -5.002,8.746 -4.63,13.435 0.372,4.69 34.046,10.365 40.988,9.814 C -14.438,15.052 0.372,4.689 0,0 M 22.519,26.191 C 12.89,32.498 -3.859,37.165 -16.738,38.188 -42.045,40.196 -69.244,26.314 -71.852,19.274 -73.377,15.159 -76.56,8.423 -75.171,2.784 c 1.68,-6.822 8.271,-16.757 11.44,-20.51 2.827,-3.348 16.481,-9.182 27.182,-10.032 7.81,-0.62 19.393,-0.015 30.705,0.578 11.127,0.584 21.991,1.117 28.911,5.412 7.079,4.395 12.912,14.928 13.472,21.967 0.455,5.744 -5.58,20.464 -14.02,25.992" /></g><g
           transform="translate(520.0527,317.7593)"
           id="g882"><path
             id="path884"
             style="fill:#231f20;fill-opacity:1;fill-rule:nonzero;stroke:none"
             d="m 0,0 c 2.461,-3.789 1.531,-22.79 -1.87,-26.667 -1.111,-1.269 -15.749,-0.082 -30.011,-0.441 -15.788,-0.398 -31.347,-2.338 -32.655,-3.809 -0.587,-0.658 -13.25,-10.916 -4.777,-13.31 5.875,-1.66 23.936,-2.305 33.6,-1.6 14.226,1.037 36.556,5.553 37.1,4.801 0.79,-1.092 -1.618,-10.445 -2.965,-11.26 -6.216,-3.757 -20.077,-2.742 -36.163,-2.533 -13.662,0.176 -29.776,-0.818 -35.226,0.408 -15.173,3.412 -33.932,21.409 -32.909,35.436 0.486,6.652 0.689,11.954 7.711,16.926 3.58,2.533 12.041,3.784 18.159,5.624 7.188,2.161 12.363,4.667 20.684,4.083 C -46.438,6.755 -4.243,6.532 0,0" /></g><g
           transform="translate(292.9375,412.0972)"
           id="g886"><path
             id="path888"
             style="fill:#231f20;fill-opacity:1;fill-rule:nonzero;stroke:none"
             d="m 0,0 c 0,-1.81 1.727,-25.822 0,-26.814 -6.436,-3.699 -34.411,-2.947 -39.779,-2.947 -4.842,0 -2.063,22.959 -2.063,27.109 0,4.15 14.053,8.545 23.572,8.545 C -8.75,5.893 0,4.149 0,0" /></g><g
           transform="translate(304.9668,260.7295)"
           id="g890"><path
             id="path892"
             style="fill:#ffffff;fill-opacity:1;fill-rule:nonzero;stroke:none"
             d="m 0,0 c -0.201,0 -0.398,0.006 -0.594,0.017 l -1.711,0.099 -0.039,1.598 c -0.17,6.778 0.643,11.623 5.412,17.819 1.717,2.229 3.516,5.648 2.942,7.947 -0.235,0.938 -0.844,1.624 -1.916,2.158 -0.865,0.43 -2.11,0.436 -3.416,0.016 -1.66,-0.534 -3.133,-1.646 -3.666,-2.77 l -3.418,1.409 c 0.956,2.015 3.203,3.8 5.865,4.654 2.318,0.746 4.59,0.662 6.395,-0.236 C 7.86,31.712 9.173,30.178 9.65,28.27 10.699,24.07 7.521,19.34 6.105,17.501 2.343,12.615 1.411,8.788 1.374,3.583 2.479,3.723 3.74,3.987 4.975,4.244 8.698,5.023 12.549,5.828 15.33,4.271 L 13.404,1.283 C 11.906,2.122 8.658,1.443 5.792,0.845 3.719,0.411 1.748,0 0,0" /></g><g
           transform="translate(327.6445,286.8389)"
           id="g894"><path
             id="path896"
             style="fill:#ffffff;fill-opacity:1;fill-rule:nonzero;stroke:none"
             d="m 0,0 c -0.707,0 -1.195,-0.256 -1.629,-0.857 -2.416,-3.33 -0.975,-13.884 1.831,-20.402 2.347,-5.452 4.384,-6.908 5.218,-6.908 0.604,0 1.457,0.761 2.278,2.034 2.373,3.678 4.408,14.948 0.484,21.586 C 6.417,-1.563 3.761,-0.076 0.059,-0.002 0.039,-0.002 0.019,0 0,0 M 5.42,-31.65 H 5.418 c -3.166,0 -6.088,3.058 -8.686,9.093 -1.495,3.476 -2.66,8.063 -3.118,12.273 -0.391,3.606 -0.421,8.509 1.66,11.38 1.133,1.562 2.768,2.388 4.726,2.388 0.045,0 0.094,0 0.141,-0.002 5.006,-0.101 8.92,-2.296 11.313,-6.345 2.033,-3.44 2.951,-8.283 2.585,-13.638 -0.31,-4.529 -1.512,-8.908 -3.137,-11.428 -1.593,-2.47 -3.438,-3.721 -5.482,-3.721" /></g><g
           transform="translate(346.6738,261.2539)"
           id="g898"><path
             id="path900"
             style="fill:#ffffff;fill-opacity:1;fill-rule:nonzero;stroke:none"
             d="m 0,0 c -1.678,6.51 -3.482,25.915 -1.695,33.951 l 3.66,-0.707 C 1.25,30.034 1.11,24.011 1.58,16.72 1.985,10.399 2.813,4.007 3.634,0.813 Z" /></g><g
           transform="translate(372.8945,271.0059)"
           id="g902"><path
             id="path904"
             style="fill:#ffffff;fill-opacity:1;fill-rule:nonzero;stroke:none"
             d="m 0,0 c -1.697,-1.624 -5.222,-2.521 -9.926,-2.521 -0.131,0 -0.262,0.002 -0.39,0.004 -3.896,0.041 -6.774,0.849 -7.898,2.218 -0.673,0.819 -0.802,1.937 -0.392,3.413 0.646,2.339 2.815,4.911 6.051,5.035 0.795,0.031 2.402,0.064 3.712,0.064 1.282,0 1.825,-0.029 2.034,-0.046 C -6.356,8.13 -5.91,8.098 -5.479,8.069 -0.56,7.723 1.148,7.396 1.267,3.317 1.307,1.94 0.893,0.856 0,0 m -16.201,17.775 c 0.612,0.289 2.591,0.552 3.811,0.552 h 0.047 c 1.273,0 2.929,-0.031 4.466,-0.264 2.184,-0.334 2.672,-0.866 2.741,-0.957 0.063,-0.193 0.009,-0.936 -0.553,-2.01 -0.598,-1.138 -1.286,-1.762 -1.506,-1.873 -0.592,-0.295 -1.533,-0.456 -2.649,-0.456 -2.429,0 -5.232,0.804 -6.247,1.793 -0.938,0.916 -1.2,1.643 -0.11,3.215 M 5.002,3.411 c -0.096,3.298 -1.25,5.508 -3.529,6.755 -1.543,0.843 -3.352,1.111 -5.285,1.273 0.996,1.09 1.787,2.542 2.152,3.742 0.439,1.447 0.357,2.716 -0.238,3.669 -1.643,2.626 -6.445,2.961 -10.445,2.961 h -0.048 c -0.541,0 -1.804,-0.058 -3.104,-0.269 -1.956,-0.319 -3.1,-0.836 -3.706,-1.679 -2.054,-2.85 -1.916,-5.443 0.41,-7.711 0.591,-0.576 1.355,-1.061 2.213,-1.46 -0.826,-0.386 -1.606,-0.888 -2.322,-1.501 -1.592,-1.361 -2.774,-3.212 -3.327,-5.206 -0.703,-2.548 -0.351,-4.701 1.045,-6.402 2.376,-2.892 7.198,-3.545 10.823,-3.585 0.143,0 0.288,-0.002 0.433,-0.002 h 10e-4 c 4.047,0 9.519,0.62 12.603,3.575 1.611,1.542 2.392,3.507 2.324,5.84" /></g><g
           transform="translate(82.1025,257.7061)"
           id="g906"><path
             id="path908"
             style="fill:#ffffff;fill-opacity:1;fill-rule:nonzero;stroke:none"
             d="m 0,0 -3.335,0.02 c -0.045,1.404 0.012,2.851 0.162,4.287 0.144,4.332 0.211,9.134 -0.065,12.261 -0.04,0.455 -0.081,0.918 -0.124,1.387 -0.51,5.719 -1.088,12.201 -1.088,17.816 h 3.336 c 0,-5.466 0.572,-11.869 1.076,-17.519 0.041,-0.471 0.083,-0.934 0.123,-1.389 0.051,-0.57 0.09,-1.191 0.121,-1.851 0.791,1.244 1.696,2.291 2.699,3.109 2.586,2.115 5.865,2.779 9.482,1.926 2.96,-0.699 5.19,-2.83 6.628,-6.33 1.142,-2.779 1.634,-5.944 2.069,-8.735 0.062,-0.396 0.122,-0.785 0.183,-1.158 L 17.973,3.291 C 17.911,3.672 17.851,4.064 17.787,4.469 17.004,9.498 16.029,15.758 11.62,16.799 8.978,17.424 6.817,17.012 5.017,15.539 2.18,13.219 0.64,8.492 0.156,4.018 0.108,2.598 0.054,1.236 0,0" /></g><g
           transform="translate(106.9727,276.5967)"
           id="g910"><path
             id="path912"
             style="fill:#ffffff;fill-opacity:1;fill-rule:nonzero;stroke:none"
             d="m 0,0 c 0.992,-0.006 2.064,-0.016 3.178,-0.025 2.602,-0.026 5.279,-0.051 7.523,-0.026 0.326,1.795 0.298,4.104 -0.099,6.322 -0.53,2.956 -1.638,5.346 -3.043,6.561 C 6.237,13.975 4.636,14.064 2.664,13.104 -0.074,11.77 -0.408,7.035 -0.363,4.332 -0.34,2.904 -0.205,1.424 0,0 m 9.5,-18.916 c -2.631,0 -4.984,1.242 -7.001,3.699 -1.796,2.186 -3.036,4.979 -3.917,7.166 -1.045,2.592 -2.203,7.555 -2.281,12.328 -0.102,6.125 1.594,10.215 4.902,11.827 1.633,0.794 3.213,1.119 4.697,0.96 1.411,-0.15 2.704,-0.724 3.842,-1.709 2.001,-1.73 3.473,-4.748 4.144,-8.496 0.587,-3.275 0.48,-6.664 -0.284,-9.064 L 13.239,-3.338 12.05,-3.365 C 9.537,-3.422 6.289,-3.393 3.146,-3.363 2.275,-3.354 1.43,-3.346 0.629,-3.34 c 0.322,-1.371 0.687,-2.572 1.047,-3.465 1.7,-4.22 4.165,-9.031 8.173,-8.763 1.159,0.078 1.999,0.443 2.564,1.119 0.791,0.945 1.089,2.537 0.86,4.605 l 3.317,0.365 c 0.33,-2.992 -0.229,-5.451 -1.618,-7.111 -1.149,-1.373 -2.843,-2.17 -4.901,-2.308 C 9.88,-18.91 9.689,-18.916 9.5,-18.916" /></g><g
           transform="translate(130.502,257.9521)"
           id="g914"><path
             id="path916"
             style="fill:#ffffff;fill-opacity:1;fill-rule:nonzero;stroke:none"
             d="M 0,0 C -3.834,6.379 -3.244,17.787 -2.854,25.334 L -2.84,25.592 0.492,25.42 0.479,25.162 C 0.132,18.453 -0.449,7.225 2.859,1.721 Z" /></g><g
           transform="translate(143.584,279.8408)"
           id="g918"><path
             id="path920"
             style="fill:#ffffff;fill-opacity:1;fill-rule:nonzero;stroke:none"
             d="m 0,0 c -0.98,0 -1.744,-0.195 -2.07,-0.48 -1.471,-1.293 -2.651,-5.571 -2.744,-9.948 -0.081,-3.758 0.664,-6.187 1.437,-6.927 1.186,-1.137 4.443,-1.84 5.905,-1.276 2.947,1.139 3.175,6.371 3.326,9.834 l 0.008,0.19 C 5.93,-7.09 5.838,-4.873 5.652,-2.35 5.205,-1.691 4.369,-1.09 3.252,-0.643 2.099,-0.182 0.947,0 0,0 m 1.215,-22.162 c -0.982,0 -1.881,0.15 -2.481,0.283 -1.827,0.402 -3.438,1.174 -4.42,2.113 -2.273,2.178 -2.519,6.83 -2.464,9.409 0.09,4.218 1.16,9.994 3.878,12.382 0.959,0.844 2.399,1.297 4.162,1.313 C 1.398,3.352 3.031,3.039 4.49,2.455 4.752,2.352 5.004,2.238 5.248,2.121 4.701,6.223 4.21,10.354 3.811,13.715 3.666,14.934 3.533,16.059 3.412,17.049 l 3.304,0.465 C 7.191,14.535 8.053,8.047 8.631,1.998 8.834,0.488 9.045,-1.01 9.26,-2.453 c 0.032,-0.16 0.056,-0.322 0.073,-0.486 0.444,-2.932 0.911,-5.624 1.382,-7.715 0.413,-1.83 1.379,-6.119 3.293,-7.274 l -1.723,-2.857 c -1.822,1.097 -2.961,3.15 -3.777,5.543 -0.046,-0.199 -0.096,-0.399 -0.149,-0.598 -0.822,-3.047 -2.38,-5.033 -4.628,-5.902 -0.81,-0.313 -1.692,-0.42 -2.516,-0.42" /></g><g
           transform="translate(163.6367,291.8447)"
           id="g922"><path
             id="path924"
             style="fill:#ffffff;fill-opacity:1;fill-rule:nonzero;stroke:none"
             d="m 0,0 c -0.309,0 -0.59,-0.074 -0.842,-0.221 -2.234,-1.297 -3.39,-7.521 -2.769,-11.707 0.168,-1.133 0.377,-2.467 0.637,-3.89 2.146,0.031 5.173,0.222 7.874,0.392 1.083,0.069 2.129,0.135 3.069,0.188 C 8.108,-8.479 6.472,-4.232 2.617,-1.201 1.6,-0.402 0.725,0 0,0 m 4.244,-33.648 c -0.508,0 -1.008,0.064 -1.5,0.193 -2.972,0.781 -5.283,3.773 -7.064,9.15 -1.345,4.057 -2.123,8.727 -2.592,11.887 -0.356,2.398 -0.217,5.525 0.361,8.164 0.524,2.393 1.649,5.535 4.033,6.92 C -1.043,3.521 1.4,4 4.679,1.422 c 2.808,-2.207 4.674,-4.988 5.702,-8.498 0.807,-2.754 1.08,-5.883 0.862,-9.844 l -0.083,-1.512 -1.512,-0.062 c -1.226,-0.053 -2.835,-0.154 -4.539,-0.262 -2.484,-0.156 -5.242,-0.33 -7.398,-0.387 0.322,-1.392 0.698,-2.793 1.136,-4.113 1.36,-4.103 3.001,-6.514 4.745,-6.973 1.912,-0.501 4.537,1.309 7.594,5.239 l 2.632,-2.049 c -2.011,-2.588 -3.875,-4.365 -5.695,-5.438 -1.326,-0.779 -2.625,-1.171 -3.879,-1.171" /></g><g
           transform="translate(188.4043,258.1982)"
           id="g926"><path
             id="path928"
             style="fill:#ffffff;fill-opacity:1;fill-rule:nonzero;stroke:none"
             d="m 0,0 c -1.675,0.047 -3.145,0.738 -4.37,2.055 -2.419,2.601 -3.83,7.672 -4.312,15.5 -0.381,6.172 -0.088,12.775 0.086,16.722 0.065,1.44 0.116,2.578 0.116,3.241 h 3.335 c 0,-0.737 -0.051,-1.907 -0.117,-3.389 C -5.434,30.25 -5.721,23.756 -5.352,17.76 -4.82,9.129 -3.196,5.691 -1.927,4.328 -1.316,3.672 -0.675,3.355 0.094,3.334 Z" /></g><g
           transform="translate(199.4824,292.5049)"
           id="g930"><path
             id="path932"
             style="fill:#ffffff;fill-opacity:1;fill-rule:nonzero;stroke:none"
             d="M 0,0 C -0.307,0 -0.577,-0.09 -0.813,-0.197 -1.824,-0.658 -2.867,-1.879 -3.6,-3.465 -4.393,-5.18 -4.742,-7.123 -4.561,-8.793 c 0.256,-2.336 0.586,-4.758 0.907,-7.1 0.623,-4.556 1.262,-9.242 1.458,-13.945 2.823,0.049 5.792,0.285 8.031,1.309 2.606,1.191 4.001,3.383 4.388,6.894 0.382,3.487 0.162,5.578 -0.696,6.586 -1.033,1.213 -3.572,1.428 -7.328,1.613 l -1.603,0.081 0.017,1.605 c 0.02,1.621 0.498,3.277 0.961,4.881 0.836,2.887 1.264,4.724 0.18,5.9 C 1.069,-0.227 0.488,0 0,0 m -3.789,-33.186 v 0.545 h -1.684 c 0,5.412 -0.756,10.946 -1.487,16.297 -0.323,2.364 -0.657,4.809 -0.917,7.19 -0.25,2.289 0.193,4.806 1.248,7.09 1.091,2.357 2.666,4.099 4.435,4.904 2.227,1.014 4.559,0.449 6.4,-1.545 C 5.322,0.084 5.831,-1.486 5.721,-3.373 5.635,-4.842 5.2,-6.344 4.78,-7.797 4.539,-8.631 4.305,-9.441 4.146,-10.199 c 3.252,-0.207 6.188,-0.651 7.921,-2.686 1.537,-1.804 1.977,-4.529 1.472,-9.115 -0.268,-2.424 -0.968,-4.471 -2.083,-6.082 -1.036,-1.5 -2.46,-2.67 -4.233,-3.481 -3.276,-1.498 -7.402,-1.623 -11.012,-1.623" /></g><g
           transform="translate(222.5566,292.1455)"
           id="g934"><path
             id="path936"
             style="fill:#ffffff;fill-opacity:1;fill-rule:nonzero;stroke:none"
             d="m 0,0 c -0.511,0 -0.96,-0.109 -1.346,-0.326 -1.166,-0.658 -2.002,-2.403 -2.351,-4.914 -0.359,-2.574 -0.577,-5.389 -0.565,-8.143 1.686,0.045 3.39,0.418 5.172,0.807 1.733,0.377 3.51,0.765 5.361,0.867 0.327,5.607 0.053,9.426 -3.945,11.143 C 1.449,-0.189 0.672,0 0,0 m 2.39,-31.188 c -2.339,0 -4.636,1.077 -6.16,2.936 -2.101,2.563 -3.351,6.506 -3.717,11.721 -0.335,4.785 0.16,9.416 0.485,11.75 0.504,3.619 1.894,6.164 4.018,7.361 1.849,1.043 4.079,1.016 6.629,-0.08 3.003,-1.291 4.91,-3.645 5.662,-6.994 0.613,-2.725 0.408,-5.795 0.226,-8.504 l -0.14,-2.117 -1.638,0.08 c -2.012,0.097 -4.014,-0.338 -6.133,-0.801 -1.856,-0.404 -3.761,-0.82 -5.746,-0.879 0.316,-3.853 1.2,-7.306 2.935,-9.422 1.007,-1.228 2.58,-1.873 4.103,-1.681 0.797,0.099 2.258,0.527 3.071,2.271 l 3.023,-1.412 c -1.09,-2.334 -3.159,-3.854 -5.678,-4.17 -0.313,-0.039 -0.627,-0.059 -0.94,-0.059" /></g><g
           transform="translate(243.7227,290.792)"
           id="g938"><path
             id="path940"
             style="fill:#ffffff;fill-opacity:1;fill-rule:nonzero;stroke:none"
             d="m 0,0 c -0.729,0 -1.458,-0.074 -2.124,-0.18 -1.536,-0.242 -2.573,-0.84 -3.173,-1.828 -1.734,-2.863 -0.121,-8.787 1.652,-14.213 l 0.17,0.006 c 2.627,0.291 4.988,2.623 6.426,4.93 1.061,1.697 1.779,3.594 2.026,5.34 0.242,1.718 0.019,3.156 -0.645,4.16 C 3.422,-0.41 1.709,0 0,0 m -0.236,-29.262 -3.331,0.19 c 0.104,1.836 -1.093,5.39 -2.362,9.154 -2.364,7.022 -5.046,14.979 -2.221,19.639 1.124,1.853 2.976,2.996 5.507,3.394 5.788,0.912 8.501,-1.16 9.758,-3.06 1.12,-1.694 1.524,-3.928 1.166,-6.467 -0.31,-2.197 -1.197,-4.555 -2.499,-6.641 -0.526,-0.843 -1.108,-1.625 -1.731,-2.334 1.805,0.063 3.593,-0.156 5.292,-1.043 1.574,-0.82 3.048,-2.744 4.044,-5.279 0.963,-2.451 1.288,-4.953 0.892,-6.865 l -3.267,0.676 c 0.58,2.802 -1.48,7.607 -3.211,8.511 -1.988,1.035 -4.537,0.662 -7.237,0.266 -1.023,-0.149 -2.066,-0.301 -3.111,-0.383 1.338,-3.978 2.445,-7.406 2.311,-9.758" /></g><g
           transform="translate(269.5049,260.2705)"
           id="g942"><path
             id="path944"
             style="fill:#ffffff;fill-opacity:1;fill-rule:nonzero;stroke:none"
             d="m 0,0 c -0.121,0 -0.243,0.004 -0.366,0.014 -2.051,0.136 -3.854,1.181 -5.358,3.109 -1.14,1.461 -2.119,3.459 -2.908,5.938 -1.529,4.808 -1.955,10.066 -2.068,12.103 -0.088,1.602 0.133,4.65 0.828,7.559 0.919,3.841 2.36,6.158 4.285,6.884 1.563,0.588 3.315,0.291 4.806,-0.818 1.764,-1.312 2.813,-3.49 2.671,-5.553 l -3.328,0.229 c 0.063,0.928 -0.485,2.015 -1.334,2.646 -0.331,0.246 -0.982,0.621 -1.637,0.373 -0.463,-0.173 -1.449,-1.326 -2.218,-4.537 -0.59,-2.468 -0.819,-5.187 -0.741,-6.599 0.082,-1.491 0.463,-6.707 1.916,-11.276 C -4.507,7.1 -2.819,3.52 -0.146,3.342 0.312,3.313 0.919,3.393 1.56,4.287 3.79,7.4 3.632,16.064 2.319,19.982 1.54,19.979 -0.289,19.693 -3.132,18.682 l -1.118,3.144 c 1.993,0.709 3.804,1.188 5.236,1.387 0.848,0.117 3.429,0.476 4.21,-1.404 0.887,-2.131 1.443,-5.86 1.416,-9.502 C 6.595,9.781 6.267,5.129 4.272,2.344 3.171,0.807 1.7,0 0,0" /></g><g
           transform="translate(127.3281,285.6846)"
           id="g946"><path
             id="path948"
             style="fill:#ffffff;fill-opacity:1;fill-rule:nonzero;stroke:none"
             d="M 0,0 C -0.629,2.904 -0.631,5.91 -0.004,8.932 L 3.264,8.254 C 2.725,5.656 2.723,3.188 3.26,0.707 Z" /></g></g></g></g></svg>